<svg width="16" height="16" viewBox="0 0 16 16" fill="none" xmlns="http://www.w3.org/2000/svg">
<path d="M2.77782 5.11106L5.33337 5.84884L8.14226 3.80884L4.11115 3.92439C4.07168 3.92655 4.03343 3.93879 4.00004 3.95995L2.72448 4.69328C2.68481 4.71527 2.65264 4.74865 2.63214 4.78911C2.61164 4.82958 2.60375 4.87526 2.60949 4.92026C2.61524 4.96525 2.63435 5.00749 2.66436 5.0415C2.69436 5.07552 2.73389 5.09975 2.77782 5.11106Z" fill="#1F1F1F"/>
<path d="M15.3423 2.82665L12.5423 2.2222C12.3068 2.17108 12.0631 2.17121 11.8276 2.22259C11.5922 2.27397 11.3706 2.3754 11.1778 2.51998L2.72005 8.66665L0.688934 8.57776C0.572594 8.5738 0.457951 8.60649 0.361192 8.67121C0.264434 8.73593 0.190448 8.8294 0.149682 8.93844C0.108917 9.04747 0.103431 9.16656 0.133999 9.27888C0.164568 9.3912 0.229646 9.49109 0.320045 9.56442L2.29782 11.1333C2.33038 11.1596 2.36914 11.1771 2.41038 11.1841C2.45162 11.1911 2.49397 11.1874 2.53338 11.1733C3.09782 10.9555 5.20005 9.83998 7.68449 8.47554L8.18227 13.5911C8.18649 13.6354 8.20273 13.6777 8.22924 13.7135C8.25574 13.7492 8.2915 13.7771 8.33266 13.794C8.37383 13.8109 8.41883 13.8163 8.46281 13.8095C8.5068 13.8027 8.5481 13.7841 8.58227 13.7555L9.69338 12.8311C9.7542 12.7801 9.79512 12.7093 9.80893 12.6311L10.8623 6.72442C12.64 5.73776 14.3378 4.7822 15.5334 4.10665C15.6574 4.03914 15.7578 3.93512 15.8207 3.80868C15.8837 3.68225 15.9063 3.53951 15.8855 3.39981C15.8646 3.26011 15.8013 3.1302 15.7041 3.02768C15.607 2.92515 15.4806 2.85497 15.3423 2.82665Z" fill="#1F1F1F"/>
</svg>
