<svg width="60" height="60" viewBox="0 0 60 60" fill="none" xmlns="http://www.w3.org/2000/svg">
<rect width="60" height="60" rx="20" fill="#1F1F1F"/>
<path fill-rule="evenodd" clip-rule="evenodd" d="M31.005 19.7438C32.8816 18.6512 36.2382 16.2148 35.7024 13C31.4156 13.0001 30.2431 16.8927 29.9224 19.0223C29.8269 19.6557 30.4515 20.066 31.005 19.7438ZM28.7608 20.2583C27.8698 19.9327 26.6989 19.6385 25.376 19.6385C22.4256 19.6385 18 22.5889 18 28.4897C18 35.8657 22.4256 41.7665 26.1136 41.7665C27.22 41.7665 27.7732 41.5083 28.3264 41.2502C28.8796 40.992 29.4328 40.7339 30.5392 40.7339C31.6456 40.7339 32.1987 40.992 32.7519 41.2502C33.3051 41.5083 33.8582 41.7665 34.9646 41.7665C37.5335 41.7665 40.4603 38.9034 42 34.6732C37.1776 32.9153 35.7024 26.2769 40.8654 22.2447C39.3386 20.5073 37.3033 19.6385 35.7022 19.6385C34.3794 19.6385 33.2084 19.9327 32.3175 20.2583C31.1937 20.669 29.8846 20.669 28.7608 20.2583Z" fill="white"/>
</svg>
