<svg width="32" height="26" viewBox="0 0 32 26" fill="none" xmlns="http://www.w3.org/2000/svg">
<path d="M10.6901 1L5.69006 5" stroke="#1F1F1F" stroke-width="1.5" stroke-miterlimit="10" stroke-linecap="round" stroke-linejoin="round"/>
<path d="M18.6901 1L23.6901 5" stroke="#1F1F1F" stroke-width="1.5" stroke-miterlimit="10" stroke-linecap="round" stroke-linejoin="round"/>
<path d="M1.69006 7.99888C1.69006 6.14992 2.97706 6 4.57606 6H24.8041C26.4031 6 27.6901 6.14992 27.6901 7.99888C27.6901 10.1477 26.4031 9.99775 24.8041 9.99775H4.57606C2.97706 9.99775 1.69006 10.1477 1.69006 7.99888Z" stroke="#1F1F1F" stroke-width="1.5"/>
<path d="M11.6901 15V20V15Z" fill="#9DB2CE"/>
<path d="M11.6901 15V20" stroke="#1F1F1F" stroke-width="1.5" stroke-linecap="round"/>
<path d="M17.6901 15V20" stroke="#1F1F1F" stroke-width="1.5" stroke-linecap="round"/>
<path d="M3.69006 11L5.51477 21.08C5.92889 23.3433 6.92536 25 10.6265 25H18.4301C22.4548 25 23.0501 23.4133 23.5159 21.22L25.6901 11" stroke="#1F1F1F" stroke-width="1.5" stroke-linecap="round"/>
</svg>
