<svg width="26" height="26" viewBox="0 0 26 26" fill="none" xmlns="http://www.w3.org/2000/svg">
<path d="M20.368 24.5441C19.312 24.8561 18.064 25.0001 16.6 25.0001H9.39995C7.93595 25.0001 6.68796 24.8561 5.63196 24.5441C5.89596 21.4241 9.09995 18.9641 13 18.9641C16.9 18.9641 20.104 21.4241 20.368 24.5441Z" stroke="#1F1F1F" stroke-width="1.5" stroke-linecap="round" stroke-linejoin="round"/>
<path d="M16.6 1H9.4C3.4 1 1 3.4 1 9.4V16.6C1 21.136 2.368 23.62 5.632 24.544C5.896 21.424 9.1 18.964 13 18.964C16.9 18.964 20.104 21.424 20.368 24.544C23.632 23.62 25 21.136 25 16.6V9.4C25 3.4 22.6 1 16.6 1ZM13 15.604C10.624 15.604 8.704 13.672 8.704 11.296C8.704 8.92002 10.624 7 13 7C15.376 7 17.296 8.92002 17.296 11.296C17.296 13.672 15.376 15.604 13 15.604Z" stroke="#1F1F1F" stroke-width="1.5" stroke-linecap="round" stroke-linejoin="round"/>
<path d="M17.2962 11.2958C17.2962 13.6718 15.3762 15.6038 13.0002 15.6038C10.6242 15.6038 8.70422 13.6718 8.70422 11.2958C8.70422 8.91978 10.6242 6.99976 13.0002 6.99976C15.3762 6.99976 17.2962 8.91978 17.2962 11.2958Z" stroke="#1F1F1F" stroke-width="1.5" stroke-linecap="round" stroke-linejoin="round"/>
</svg>
