<svg width="280" height="177" viewBox="0 0 280 177" fill="none" xmlns="http://www.w3.org/2000/svg">
<path d="M280 16.7317V160.268C280 169.504 272.493 177 263.245 177H16.755C7.50659 177 0 169.504 0 160.268V16.7317C0 7.49614 7.50659 0 16.755 0H263.253C266.563 0 269.657 0.96083 272.245 2.62572C276.906 5.58276 280 10.8011 280 16.7317Z" fill="url(#paint0_linear_437_6663)"/>
<path d="M280 16.7317V125.72C253.665 135.693 223.978 132.33 216.77 119.665C211.487 110.38 222.261 103.14 219.267 86.0109C217.84 77.8936 214.1 71.9629 208.766 66.3636C201.625 58.8343 191.613 51.918 180.573 41.1335C173.473 34.2006 156.071 17.2038 146.582 0H263.245C266.555 0 269.648 0.960831 272.245 2.634C276.914 5.58276 280 10.7928 280 16.7317Z" fill="url(#paint1_linear_437_6663)"/>
<path d="M280 54.5106V160.268C280 169.504 272.502 176.992 263.253 176.992H16.7553C7.50684 176.992 0.00854492 169.504 0.00854492 160.268V79.0614C4.83599 74.2904 10.4846 69.8259 17.0622 66.0654C37.1185 54.5768 56.5029 55.3471 94.4506 57.3433C140.17 59.7454 143.389 67.5646 175.58 68.5586C188.826 68.9727 199.609 67.9953 208.766 66.3636C239.631 60.7891 251.857 47.528 276.682 53.5994C277.786 53.8728 278.889 54.1709 280 54.5106Z" fill="url(#paint2_linear_437_6663)"/>
<path d="M86.2553 0C81.6933 44.4716 45.1723 79.4922 0 81.7866V16.7317C0 7.49614 7.50659 0 16.755 0H86.2553Z" fill="url(#paint3_linear_437_6663)"/>
<path opacity="0.33" d="M207.845 176.992H90.0706L140.949 126.184C145.354 121.794 152.554 121.794 156.958 126.184L207.845 176.992Z" fill="url(#paint4_linear_437_6663)"/>
<path opacity="0.27" d="M280 158.305V160.26C280 169.496 272.493 176.992 263.245 176.992H16.755C7.50659 176.992 0 169.496 0 160.26V94.4431C4.64496 91.9748 10.0116 90.0945 16.0251 89.4319C29.96 87.9161 40.8923 93.7142 53.7323 100.73C78.3589 114.19 82.2324 124.834 96.159 133.68C122.951 150.701 144.964 134.434 190.435 135.56C224.692 136.421 261.072 146.858 280 158.305Z" fill="url(#paint5_linear_437_6663)"/>
<path opacity="0.53" d="M280 16.7317V160.268C280 169.504 272.493 177 263.245 177H16.755C7.50659 177 0 169.504 0 160.268V16.7317C0 7.49614 7.50659 0 16.755 0H263.253C266.563 0 269.657 0.96083 272.245 2.62572C276.906 5.58276 280 10.8011 280 16.7317Z" fill="url(#paint6_linear_437_6663)"/>
<path d="M29.4539 29.173H23.9297V33.2151H29.2216V34.7806H23.9297V40.0652H22.2708V27.5993H29.4539V29.173Z" fill="white"/>
<path d="M32.0915 29.5455C31.7929 29.5455 31.5441 29.4461 31.345 29.2391C31.1459 29.0403 31.0381 28.7918 31.0381 28.5102C31.0381 28.2285 31.1376 27.98 31.345 27.773C31.5441 27.5659 31.7929 27.4582 32.0915 27.4582C32.3735 27.4582 32.6224 27.5659 32.8214 27.773C33.0205 27.98 33.1283 28.2285 33.1283 28.5102C33.1283 28.7918 33.0288 29.0403 32.8214 29.2391C32.6224 29.4379 32.3818 29.5455 32.0915 29.5455ZM31.3118 40.065V31.1607H32.8629V40.065H31.3118Z" fill="white"/>
<path d="M39.6727 30.9287C40.7178 30.9287 41.5556 31.2601 42.186 31.9144C42.8163 32.5771 43.1315 33.4633 43.1315 34.5898V40.0566H41.5805V34.681C41.5805 33.9603 41.3814 33.3971 40.9915 32.9995C40.6017 32.6019 40.0542 32.4031 39.3658 32.4031C38.5944 32.4031 37.9723 32.6433 37.4912 33.1237C37.0101 33.6042 36.7779 34.3414 36.7779 35.3436V40.0566H35.2268V31.1607H36.7779V32.4445C37.4083 31.434 38.3787 30.9287 39.6727 30.9287Z" fill="white"/>
<path d="M52.6618 31.1607H54.2129V40.0649H52.6618V38.5326C51.8904 39.7088 50.7624 40.2969 49.2942 40.2969C48.05 40.2969 46.98 39.8413 46.1008 38.9384C45.2216 38.0273 44.782 36.9257 44.782 35.6169C44.782 34.3082 45.2216 33.2066 46.1008 32.2955C46.98 31.3843 48.0418 30.937 49.2942 30.937C50.7707 30.937 51.8904 31.5251 52.6618 32.7013V31.1607ZM49.4933 38.7976C50.3974 38.7976 51.1522 38.4912 51.7577 37.8782C52.3632 37.2653 52.6701 36.5115 52.6701 35.6087C52.6701 34.7058 52.3632 33.9521 51.7577 33.3391C51.1522 32.7262 50.3974 32.4197 49.4933 32.4197C48.5975 32.4197 47.851 32.7262 47.2455 33.3391C46.64 33.9521 46.3331 34.7058 46.3331 35.6087C46.3331 36.5115 46.64 37.2653 47.2455 37.8782C47.851 38.4912 48.5975 38.7976 49.4933 38.7976Z" fill="white"/>
<path d="M60.7577 40.2969C59.414 40.2969 58.2942 39.8496 57.4067 38.955C56.5109 38.0604 56.0713 36.9505 56.0713 35.6169C56.0713 34.2834 56.5192 33.1735 57.4067 32.2789C58.2942 31.3843 59.414 30.937 60.7577 30.937C61.637 30.937 62.4249 31.1441 63.13 31.5665C63.835 31.989 64.3576 32.5522 64.6976 33.2646L63.3954 34.01C63.1714 33.5379 62.8231 33.1569 62.3503 32.867C61.8775 32.5771 61.3466 32.4363 60.7577 32.4363C59.8619 32.4363 59.1237 32.7427 58.5182 33.3474C57.9127 33.9521 57.6224 34.7058 57.6224 35.6087C57.6224 36.495 57.921 37.2487 58.5182 37.8534C59.1154 38.458 59.8619 38.7645 60.7577 38.7645C61.3549 38.7645 61.8858 38.6237 62.3586 38.3421C62.8314 38.0604 63.1963 37.6877 63.4452 37.2156L64.764 37.9776C64.3825 38.6817 63.835 39.2366 63.1217 39.6591C62.4166 40.0815 61.6204 40.2969 60.7577 40.2969Z" fill="white"/>
<path d="M67.0864 29.5455C66.7878 29.5455 66.5389 29.4461 66.3399 29.2391C66.1408 29.0403 66.033 28.7918 66.033 28.5102C66.033 28.2285 66.1325 27.98 66.3399 27.773C66.5389 27.5659 66.7878 27.4582 67.0864 27.4582C67.3684 27.4582 67.6172 27.5659 67.8163 27.773C68.0154 27.98 68.1232 28.2285 68.1232 28.5102C68.1232 28.7918 68.0237 29.0403 67.8163 29.2391C67.6089 29.4379 67.3684 29.5455 67.0864 29.5455ZM66.2984 40.065V31.1607H67.8495V40.065H66.2984Z" fill="white"/>
<path d="M28.3841 74.8621V76.2702L26.3768 76.1791L27.5463 77.786L26.2855 78.5397L25.2902 76.734L24.2948 78.5397L23.0589 77.786L24.2036 76.1791L22.2129 76.2702V74.8621L24.2036 74.9697L23.0589 73.338L24.2948 72.5842L25.2902 74.3899L26.2855 72.5842L27.5463 73.338L26.3768 74.9697L28.3841 74.8621Z" fill="white"/>
<path d="M38.7356 74.862V76.2701L36.7283 76.179L37.8979 77.7859L36.6371 78.5397L35.6417 76.734L34.6464 78.5397L33.4105 77.7859L34.5552 76.179L32.5645 76.2701V74.862L34.5552 74.9697L33.4105 73.3379L34.6464 72.5842L35.6417 74.3899L36.6371 72.5842L37.8979 73.3379L36.7283 74.9697L38.7356 74.862Z" fill="white"/>
<path d="M49.0957 74.862V76.2701L47.0884 76.179L48.258 77.7859L46.9972 78.5397L46.0018 76.734L45.0065 78.5397L43.7706 77.7859L44.9153 76.179L42.9246 76.2701V74.862L44.9153 74.9697L43.7706 73.3379L45.0065 72.5842L46.0018 74.3899L46.9972 72.5842L48.258 73.3379L47.0884 74.9697L49.0957 74.862Z" fill="white"/>
<path d="M59.4551 74.862V76.2701L57.4478 76.179L58.6173 77.7859L57.3566 78.5397L56.3612 76.734L55.3659 78.5397L54.13 77.7859L55.2746 76.179L53.2839 76.2701V74.862L55.2746 74.9697L54.13 73.3379L55.3659 72.5842L56.3612 74.3899L57.3566 72.5842L58.6173 73.3379L57.4478 74.9697L59.4551 74.862Z" fill="white"/>
<path d="M76.9905 74.862V76.2701L74.9832 76.179L76.1527 77.7859L74.892 78.5397L73.8966 76.734L72.9013 78.5397L71.6654 77.7859L72.81 76.179L70.8193 76.2701V74.862L72.81 74.9697L71.6654 73.3379L72.9013 72.5842L73.8966 74.3899L74.892 72.5842L76.1527 73.3379L74.9832 74.9697L76.9905 74.862Z" fill="white"/>
<path d="M87.3499 74.862V76.2701L85.3426 76.179L86.5121 77.7859L85.2514 78.5397L84.256 76.734L83.2607 78.5397L82.0248 77.7859L83.1694 76.179L81.1787 76.2701V74.862L83.1694 74.9697L82.0248 73.3379L83.2607 72.5842L84.256 74.3899L85.2514 72.5842L86.5121 73.3379L85.3426 74.9697L87.3499 74.862Z" fill="white"/>
<path d="M97.71 74.862V76.2701L95.7027 76.179L96.8722 77.7859L95.6115 78.5397L94.6161 76.734L93.6208 78.5397L92.3849 77.7859L93.5295 76.179L91.5388 76.2701V74.862L93.5295 74.9697L92.3849 73.3379L93.6208 72.5842L94.6161 74.3899L95.6115 72.5842L96.8722 73.3379L95.7027 74.9697L97.71 74.862Z" fill="white"/>
<path d="M108.062 74.862V76.2701L106.054 76.179L107.224 77.7859L105.963 78.5397L104.968 76.734L103.972 78.5397L102.736 77.7859L103.881 76.179L101.89 76.2701V74.862L103.881 74.9697L102.736 73.3379L103.972 72.5842L104.968 74.3899L105.963 72.5842L107.224 73.3379L106.054 74.9697L108.062 74.862Z" fill="white"/>
<path d="M125.605 74.862V76.2701L123.597 76.179L124.767 77.7859L123.506 78.5397L122.511 76.734L121.516 78.5397L120.28 77.7859L121.424 76.179L119.434 76.2701V74.862L121.424 74.9697L120.28 73.3379L121.516 72.5842L122.511 74.3899L123.506 72.5842L124.767 73.3379L123.597 74.9697L125.605 74.862Z" fill="white"/>
<path d="M135.956 74.862V76.2701L133.949 76.179L135.119 77.7859L133.858 78.5397L132.862 76.734L131.867 78.5397L130.631 77.7859L131.776 76.179L129.785 76.2701V74.862L131.776 74.9697L130.631 73.3379L131.867 72.5842L132.862 74.3899L133.858 72.5842L135.119 73.3379L133.949 74.9697L135.956 74.862Z" fill="white"/>
<path d="M146.317 74.862V76.2701L144.309 76.179L145.479 77.7859L144.218 78.5397L143.223 76.734L142.227 78.5397L140.992 77.7859L142.136 76.179L140.146 76.2701V74.862L142.136 74.9697L140.992 73.338L142.227 72.5842L143.223 74.3899L144.218 72.5842L145.479 73.338L144.309 74.9697L146.317 74.862Z" fill="white"/>
<path d="M156.677 74.862V76.2701L154.67 76.179L155.839 77.7859L154.578 78.5397L153.583 76.734L152.588 78.5397L151.352 77.7859L152.497 76.179L150.506 76.2701V74.862L152.497 74.9697L151.352 73.338L152.588 72.5842L153.583 74.3899L154.578 72.5842L155.839 73.338L154.67 74.9697L156.677 74.862Z" fill="white"/>
<path d="M167.567 88.3137V86.6405L173.025 81.0826C174.485 79.6248 175.215 78.374 175.215 77.3304C175.215 76.4607 174.95 75.7897 174.419 75.301C173.888 74.8123 173.241 74.5721 172.478 74.5721C171.018 74.5721 169.956 75.2596 169.301 76.6429L167.576 75.6324C168.057 74.6301 168.737 73.8764 169.6 73.3628C170.462 72.8493 171.416 72.5925 172.461 72.5925C173.755 72.5925 174.883 73.0232 175.837 73.8681C176.791 74.7212 177.272 75.8643 177.272 77.3055C177.272 78.8627 176.351 80.5608 174.51 82.3996L170.57 86.3258H177.562V88.3137H167.567Z" fill="white"/>
<path d="M186.819 79.2023C187.997 79.4259 188.968 79.9312 189.714 80.7264C190.469 81.5216 190.842 82.5321 190.842 83.7497C190.842 85.2489 190.328 86.4334 189.3 87.3031C188.271 88.1728 187.019 88.6035 185.542 88.6035C184.364 88.6035 183.319 88.3385 182.407 87.8001C181.494 87.2617 180.847 86.4914 180.466 85.4726L182.191 84.4537C182.647 85.8784 183.767 86.5908 185.55 86.5908C186.504 86.5908 187.284 86.3423 187.889 85.837C188.495 85.34 188.794 84.636 188.794 83.7414C188.794 82.8468 188.495 82.1428 187.889 81.6375C187.284 81.1322 186.504 80.8755 185.55 80.8755H185.02L184.198 79.6165L187.773 74.7874H180.905V72.8658H190.179L190.17 74.6798L186.819 79.2023Z" fill="white"/>
<path d="M206.104 83.4598V85.3815H204.229V88.3137H202.172V85.3815H194.284V83.4598L199.825 72.8741H202.031L196.491 83.4598H202.164V79.0946H204.221V83.4598H206.104Z" fill="white"/>
<path d="M214.182 78.8958C215.642 78.8958 216.878 79.3266 217.882 80.188C218.893 81.0494 219.399 82.2339 219.399 83.7497C219.399 85.2489 218.885 86.4334 217.857 87.3031C216.828 88.1728 215.576 88.6035 214.099 88.6035C212.921 88.6035 211.868 88.3219 210.939 87.7587C210.01 87.1954 209.363 86.3754 208.998 85.2986L210.74 84.3047C210.947 85.0584 211.345 85.6217 211.934 86.011C212.523 86.4003 213.245 86.5991 214.099 86.5991C215.07 86.5991 215.858 86.3506 216.463 85.8453C217.069 85.34 217.367 84.6443 217.367 83.7497C217.367 82.8551 217.069 82.1511 216.463 81.6458C215.858 81.1405 215.086 80.8838 214.141 80.8838H209.769L210.325 72.8741H218.802V74.7957H212.2L211.926 78.8958H214.182Z" fill="white"/>
<path d="M23.524 130.491C22.6199 130.491 21.8734 130.193 21.2845 129.597C20.6956 129 20.4053 128.271 20.4053 127.402C20.4053 126.532 20.6956 125.803 21.2845 125.207C21.8734 124.61 22.6199 124.312 23.524 124.312C24.0715 124.312 24.5691 124.445 25.0253 124.701C25.4816 124.966 25.8382 125.314 26.0953 125.753L25.4069 126.151C25.2327 125.82 24.9839 125.563 24.6438 125.364C24.3037 125.165 23.9305 125.074 23.524 125.074C22.8356 125.074 22.2798 125.298 21.8402 125.737C21.4089 126.176 21.185 126.731 21.185 127.393C21.185 128.048 21.4006 128.603 21.8402 129.042C22.2716 129.481 22.8356 129.704 23.524 129.704C23.9305 129.704 24.3037 129.605 24.6438 129.414C24.9839 129.216 25.2327 128.959 25.4069 128.636L26.0953 129.025C25.8465 129.464 25.4898 129.82 25.0336 130.085C24.5774 130.35 24.0715 130.491 23.524 130.491Z" fill="white"/>
<path d="M30.4247 126.126H31.1629V130.383H30.4247V129.654C30.0514 130.218 29.5206 130.499 28.8155 130.499C28.2183 130.499 27.7123 130.284 27.2893 129.845C26.8663 129.414 26.6589 128.884 26.6589 128.254C26.6589 127.633 26.8663 127.103 27.2893 126.664C27.7123 126.233 28.2183 126.01 28.8155 126.01C29.5206 126.01 30.0597 126.291 30.4247 126.855V126.126ZM28.9068 129.77C29.3381 129.77 29.703 129.621 29.9851 129.331C30.2754 129.041 30.4164 128.677 30.4164 128.246C30.4164 127.815 30.2754 127.451 29.9851 127.161C29.6948 126.871 29.3381 126.722 28.9068 126.722C28.4837 126.722 28.1188 126.871 27.8368 127.161C27.5465 127.451 27.4054 127.815 27.4054 128.246C27.4054 128.677 27.5465 129.041 27.8368 129.331C28.1271 129.629 28.4837 129.77 28.9068 129.77Z" fill="white"/>
<path d="M33.0302 126.838C33.2708 126.308 33.7187 126.043 34.3573 126.043V126.813C33.9924 126.797 33.6855 126.896 33.4201 127.103C33.1629 127.31 33.0302 127.65 33.0302 128.114V130.367H32.292V126.109H33.0302V126.838Z" fill="white"/>
<path d="M38.38 124.419H39.1182V130.375H38.38V129.646C38.0067 130.209 37.4759 130.491 36.7708 130.491C36.1736 130.491 35.6677 130.275 35.2446 129.836C34.8216 129.406 34.6143 128.876 34.6143 128.246C34.6143 127.625 34.8216 127.095 35.2446 126.656C35.6677 126.225 36.1736 126.001 36.7708 126.001C37.4759 126.001 38.015 126.283 38.38 126.846V124.419ZM36.8704 129.77C37.3017 129.77 37.6667 129.621 37.9487 129.331C38.239 129.041 38.38 128.677 38.38 128.246C38.38 127.815 38.239 127.451 37.9487 127.161C37.6584 126.871 37.3017 126.722 36.8704 126.722C36.4474 126.722 36.0824 126.871 35.8004 127.161C35.5101 127.451 35.3691 127.815 35.3691 128.246C35.3691 128.677 35.5101 129.041 35.8004 129.331C36.0824 129.629 36.4391 129.77 36.8704 129.77Z" fill="white"/>
<path d="M46.1432 124.419H46.9312V130.375H46.1432V127.691H43.2484V130.375H42.4521V124.419H43.2484V126.946H46.1432V124.419Z" fill="white"/>
<path d="M51.7254 129.837C51.2858 130.267 50.7549 130.483 50.1328 130.483C49.5107 130.483 48.9799 130.267 48.5403 129.837C48.109 129.406 47.885 128.876 47.885 128.246C47.885 127.617 48.1007 127.087 48.5403 126.656C48.9716 126.225 49.5025 126.01 50.1328 126.01C50.7632 126.01 51.2858 126.225 51.7254 126.656C52.165 127.087 52.3807 127.617 52.3807 128.246C52.3807 128.876 52.165 129.406 51.7254 129.837ZM50.1328 129.762C50.5559 129.762 50.9208 129.621 51.2028 129.331C51.4931 129.041 51.6342 128.685 51.6342 128.254C51.6342 127.824 51.4931 127.459 51.2028 127.178C50.9125 126.888 50.5559 126.747 50.1328 126.747C49.7098 126.747 49.3614 126.888 49.0711 127.178C48.7808 127.468 48.6398 127.832 48.6398 128.254C48.6398 128.685 48.7808 129.05 49.0711 129.331C49.3614 129.621 49.7098 129.762 50.1328 129.762Z" fill="white"/>
<path d="M53.2607 130.375V124.163H53.999V130.375H53.2607Z" fill="white"/>
<path d="M58.66 124.419H59.3982V130.375H58.66V129.646C58.2868 130.209 57.7559 130.491 57.0509 130.491C56.4537 130.491 55.9477 130.275 55.5247 129.836C55.1017 129.406 54.8943 128.876 54.8943 128.246C54.8943 127.625 55.1017 127.095 55.5247 126.656C55.9477 126.225 56.4537 126.001 57.0509 126.001C57.7559 126.001 58.2951 126.283 58.66 126.846V124.419ZM57.1421 129.77C57.5734 129.77 57.9384 129.621 58.2204 129.331C58.5107 129.041 58.6517 128.677 58.6517 128.246C58.6517 127.815 58.5107 127.451 58.2204 127.161C57.9301 126.871 57.5734 126.722 57.1421 126.722C56.7191 126.722 56.3541 126.871 56.0721 127.161C55.7818 127.451 55.6408 127.815 55.6408 128.246C55.6408 128.677 55.7818 129.041 56.0721 129.331C56.3624 129.629 56.7191 129.77 57.1421 129.77Z" fill="white"/>
<path d="M61.0487 128.586C61.1234 128.967 61.2976 129.265 61.5713 129.472C61.845 129.679 62.1851 129.787 62.5915 129.787C63.1556 129.787 63.562 129.58 63.8191 129.166L64.4495 129.522C64.0348 130.16 63.4127 130.483 62.575 130.483C61.8948 130.483 61.3474 130.276 60.9243 129.845C60.5013 129.422 60.2939 128.884 60.2939 128.238C60.2939 127.6 60.5013 127.062 60.916 126.639C61.3308 126.217 61.8699 126.001 62.5252 126.001C63.1473 126.001 63.6615 126.225 64.0514 126.664C64.4495 127.103 64.6403 127.633 64.6403 128.254C64.6403 128.362 64.632 128.47 64.6154 128.586H61.0487ZM62.5252 126.706C62.127 126.706 61.7953 126.822 61.5381 127.045C61.281 127.269 61.1151 127.567 61.057 127.94H63.9021C63.8357 127.534 63.6781 127.227 63.421 127.02C63.1556 126.813 62.8653 126.706 62.5252 126.706Z" fill="white"/>
<path d="M66.2324 126.838C66.4729 126.308 66.9208 126.043 67.5595 126.043V126.813C67.1945 126.797 66.8876 126.896 66.6222 127.103C66.3651 127.31 66.2324 127.65 66.2324 128.114V130.367H65.4941V126.109H66.2324V126.838Z" fill="white"/>
<path d="M72.536 126.01C73.0337 126.01 73.4401 126.167 73.7387 126.482C74.0373 126.797 74.1866 127.227 74.1866 127.766V130.375H73.4484V127.807C73.4484 127.459 73.3572 127.194 73.1664 127.004C72.9756 126.813 72.7185 126.722 72.395 126.722C72.0217 126.722 71.7231 126.838 71.4992 127.07C71.2752 127.302 71.1591 127.65 71.1591 128.13V130.383H70.4209V126.126H71.1591V126.739C71.4577 126.25 71.9222 126.01 72.536 126.01Z" fill="white"/>
<path d="M78.7491 126.126H79.4874V130.383H78.7491V129.654C78.3759 130.218 77.845 130.499 77.14 130.499C76.5428 130.499 76.0368 130.284 75.6138 129.845C75.1908 129.414 74.9834 128.884 74.9834 128.254C74.9834 127.633 75.1908 127.103 75.6138 126.664C76.0368 126.233 76.5428 126.01 77.14 126.01C77.845 126.01 78.3842 126.291 78.7491 126.855V126.126ZM77.2312 129.77C77.6625 129.77 78.0275 129.621 78.3095 129.331C78.5998 129.041 78.7408 128.677 78.7408 128.246C78.7408 127.815 78.5998 127.451 78.3095 127.161C78.0192 126.871 77.6625 126.722 77.2312 126.722C76.8082 126.722 76.4432 126.871 76.1612 127.161C75.8709 127.451 75.7299 127.815 75.7299 128.246C75.7299 128.677 75.8709 129.041 76.1612 129.331C76.4515 129.629 76.8082 129.77 77.2312 129.77Z" fill="white"/>
<path d="M85.2192 126.01C85.7003 126.01 86.0819 126.167 86.3805 126.474C86.6791 126.78 86.8201 127.203 86.8201 127.733V130.375H86.0819V127.757C86.0819 127.426 85.9989 127.169 85.8247 126.995C85.6505 126.813 85.4266 126.722 85.1446 126.722C84.8294 126.722 84.5722 126.83 84.3815 127.037C84.1907 127.244 84.0995 127.575 84.0995 128.014V130.383H83.3612V127.766C83.3612 127.434 83.2783 127.178 83.1207 127.004C82.9548 126.822 82.7391 126.73 82.4571 126.73C82.1419 126.73 81.8848 126.838 81.6774 127.053C81.4701 127.269 81.3622 127.592 81.3622 128.023V130.391H80.624V126.134H81.3622V126.706C81.6526 126.25 82.0756 126.026 82.6313 126.026C83.2036 126.026 83.6184 126.267 83.8838 126.747C84.1741 126.25 84.622 126.01 85.2192 126.01Z" fill="white"/>
<path d="M88.371 128.586C88.4457 128.967 88.6198 129.265 88.8936 129.472C89.1673 129.679 89.5074 129.787 89.9138 129.787C90.4778 129.787 90.8843 129.58 91.1414 129.166L91.7718 129.522C91.3571 130.16 90.735 130.483 89.8972 130.483C89.2171 130.483 88.6696 130.276 88.2466 129.845C87.8236 129.422 87.6162 128.884 87.6162 128.238C87.6162 127.6 87.8236 127.062 88.2383 126.639C88.653 126.217 89.1922 126.001 89.8475 126.001C90.4695 126.001 90.9838 126.225 91.3737 126.664C91.7718 127.103 91.9626 127.633 91.9626 128.254C91.9626 128.362 91.9543 128.47 91.9377 128.586H88.371ZM89.8475 126.706C89.4493 126.706 89.1175 126.822 88.8604 127.045C88.6033 127.269 88.4374 127.567 88.3793 127.94H91.2161C91.1497 127.534 90.9921 127.227 90.735 127.02C90.4861 126.813 90.1875 126.706 89.8475 126.706Z" fill="white"/>
<path d="M26.2109 138.931H28.0108V148.043H26.6422L22.7355 142.468V148.043H20.9355V138.931H22.3041L26.2109 144.481V138.931Z" fill="white"/>
<path d="M35.1775 147.231C34.5056 147.894 33.6928 148.225 32.7306 148.225C31.7684 148.225 30.9472 147.894 30.2837 147.231C29.6201 146.568 29.2883 145.757 29.2883 144.787C29.2883 143.827 29.6201 143.015 30.2837 142.344C30.9472 141.681 31.7601 141.35 32.7306 141.35C33.6928 141.35 34.5139 141.681 35.1775 142.344C35.8493 143.007 36.1811 143.818 36.1811 144.787C36.1811 145.757 35.841 146.568 35.1775 147.231ZM31.4615 146.08C31.7933 146.419 32.2163 146.585 32.7223 146.585C33.2283 146.585 33.6513 146.419 33.9831 146.08C34.3231 145.74 34.489 145.309 34.489 144.787C34.489 144.266 34.3231 143.835 33.9831 143.504C33.643 143.164 33.22 142.998 32.7223 142.998C32.2246 142.998 31.8016 143.164 31.4615 143.504C31.1297 143.843 30.9638 144.274 30.9638 144.787C30.9638 145.309 31.1297 145.74 31.4615 146.08Z" fill="white"/>
<path d="M44.5664 141.358C45.3129 141.358 45.9101 141.598 46.358 142.087C46.8059 142.576 47.0299 143.222 47.0299 144.042V148.051H45.3461V144.158C45.3461 143.768 45.2465 143.462 45.0558 143.247C44.865 143.031 44.5913 142.924 44.2512 142.924C43.8696 142.924 43.571 143.048 43.3554 143.305C43.1397 143.561 43.0402 143.918 43.0402 144.398V148.059H41.3647V144.166C41.3647 143.777 41.2651 143.47 41.0744 143.255C40.8836 143.04 40.6099 142.932 40.2698 142.932C39.8965 142.932 39.5979 143.056 39.374 143.313C39.15 143.561 39.0422 143.926 39.0422 144.406V148.067H37.3584V141.557H39.0422V142.244C39.432 141.665 40.0375 141.375 40.8504 141.375C41.6467 141.375 42.2439 141.689 42.6255 142.311C43.0651 141.665 43.712 141.358 44.5664 141.358Z" fill="white"/>
<path d="M53.4169 141.54H55.1007V148.051H53.4169V147.28C52.911 147.91 52.2059 148.233 51.2935 148.233C50.4226 148.233 49.6761 147.902 49.054 147.239C48.4319 146.576 48.125 145.765 48.125 144.796C48.125 143.835 48.4319 143.023 49.054 142.352C49.6761 141.689 50.4226 141.358 51.2935 141.358C52.2059 141.358 52.911 141.673 53.4169 142.311V141.54ZM50.3148 146.113C50.6548 146.452 51.0862 146.626 51.6087 146.626C52.1313 146.626 52.5626 146.452 52.9027 146.113C53.2427 145.773 53.4169 145.326 53.4169 144.787C53.4169 144.249 53.2427 143.81 52.9027 143.47C52.5626 143.131 52.1313 142.957 51.6087 142.957C51.0862 142.957 50.6548 143.131 50.3148 143.47C49.9747 143.81 49.8088 144.257 49.8088 144.787C49.8088 145.326 49.983 145.773 50.3148 146.113Z" fill="white"/>
<path d="M60.2517 141.358C60.965 141.358 61.5539 141.598 62.0184 142.07C62.4829 142.551 62.7152 143.205 62.7152 144.05V148.043H61.0314V144.257C61.0314 143.826 60.9152 143.495 60.683 143.263C60.4508 143.031 60.1356 142.915 59.7457 142.915C59.3144 142.915 58.966 143.048 58.7006 143.321C58.4435 143.595 58.3108 143.992 58.3108 144.531V148.043H56.627V141.532H58.3108V142.261C58.7172 141.656 59.3642 141.358 60.2517 141.358Z" fill="white"/>
<path d="M76.4093 138.931V148.043H74.626V142.137L72.0547 146.361L71.8473 146.369L69.2843 142.162V148.051H67.4844V138.94H69.3341L71.9469 143.238L74.5514 138.94H76.4093V138.931Z" fill="white"/>
<path d="M82.9785 141.54H84.6623V148.051H82.9785V147.28C82.4725 147.91 81.7674 148.233 80.855 148.233C79.9841 148.233 79.2376 147.902 78.6155 147.239C77.9934 146.576 77.6865 145.765 77.6865 144.796C77.6865 143.835 77.9934 143.023 78.6155 142.352C79.2376 141.689 79.9841 141.358 80.855 141.358C81.7674 141.358 82.4725 141.673 82.9785 142.311V141.54ZM79.8763 146.113C80.2164 146.452 80.6477 146.626 81.1702 146.626C81.6928 146.626 82.1241 146.452 82.4642 146.113C82.8043 145.773 82.9785 145.326 82.9785 144.787C82.9785 144.249 82.8043 143.81 82.4642 143.47C82.1241 143.131 81.6928 142.957 81.1702 142.957C80.6477 142.957 80.2164 143.131 79.8763 143.47C79.5362 143.81 79.3703 144.257 79.3703 144.787C79.3703 145.326 79.5362 145.773 79.8763 146.113Z" fill="white"/>
<path d="M89.8056 141.358C90.519 141.358 91.1079 141.598 91.5724 142.07C92.0369 142.551 92.2691 143.205 92.2691 144.05V148.043H90.5853V144.257C90.5853 143.826 90.4692 143.495 90.237 143.263C90.0047 143.031 89.6895 142.915 89.2997 142.915C88.8684 142.915 88.52 143.048 88.2546 143.321C87.9974 143.595 87.8647 143.992 87.8647 144.531V148.043H86.1809V141.532H87.8647V142.261C88.2794 141.656 88.9264 141.358 89.8056 141.358Z" fill="white"/>
<path d="M95.6785 146.469H98.5733V148.043H93.4307V146.924L96.1762 143.106H93.5551V141.532H98.4406V142.65L95.6785 146.469Z" fill="white"/>
<path d="M104.967 147.231C104.295 147.894 103.483 148.225 102.52 148.225C101.558 148.225 100.737 147.894 100.073 147.231C99.4099 146.568 99.0781 145.757 99.0781 144.787C99.0781 143.827 99.4099 143.015 100.073 142.344C100.737 141.681 101.55 141.35 102.52 141.35C103.483 141.35 104.304 141.681 104.967 142.344C105.639 143.007 105.971 143.818 105.971 144.787C105.971 145.757 105.631 146.568 104.967 147.231ZM101.26 146.08C101.591 146.419 102.014 146.585 102.52 146.585C103.026 146.585 103.449 146.419 103.781 146.08C104.121 145.74 104.287 145.309 104.287 144.787C104.287 144.266 104.121 143.835 103.781 143.504C103.441 143.164 103.018 142.998 102.52 142.998C102.023 142.998 101.6 143.164 101.26 143.504C100.928 143.843 100.762 144.274 100.762 144.787C100.754 145.309 100.92 145.74 101.26 146.08Z" fill="white"/>
<path d="M112.707 147.231C112.035 147.894 111.222 148.225 110.26 148.225C109.297 148.225 108.476 147.894 107.813 147.231C107.149 146.568 106.817 145.757 106.817 144.787C106.817 143.827 107.149 143.015 107.813 142.344C108.476 141.681 109.289 141.35 110.26 141.35C111.222 141.35 112.043 141.681 112.707 142.344C113.378 143.007 113.71 143.818 113.71 144.787C113.71 145.757 113.378 146.568 112.707 147.231ZM108.999 146.08C109.331 146.419 109.754 146.585 110.26 146.585C110.766 146.585 111.189 146.419 111.52 146.08C111.86 145.74 112.026 145.309 112.026 144.787C112.026 144.266 111.86 143.835 111.52 143.504C111.18 143.164 110.757 142.998 110.26 142.998C109.762 142.998 109.339 143.164 108.999 143.504C108.667 143.843 108.501 144.274 108.501 144.787C108.501 145.309 108.667 145.74 108.999 146.08Z" fill="white"/>
<path d="M116.581 142.659C116.738 142.244 116.995 141.93 117.352 141.723C117.709 141.516 118.115 141.408 118.555 141.408V143.28C118.041 143.222 117.584 143.321 117.178 143.595C116.772 143.868 116.572 144.307 116.572 144.936V148.051H114.889V141.54H116.572V142.659H116.581Z" fill="white"/>
<path d="M204.586 129.63H207.356V130.375H203.798V124.419H207.315V125.165H204.586V126.996H207.099V127.733H204.586V129.63Z" fill="white"/>
<path d="M211.927 130.375H211.056L209.861 128.768L208.667 130.375H207.796L209.43 128.188L207.895 126.126H208.775L209.87 127.6L210.973 126.126H211.844L210.309 128.188L211.927 130.375Z" fill="white"/>
<path d="M214.97 126.01C215.568 126.01 216.074 126.225 216.497 126.664C216.92 127.095 217.127 127.625 217.127 128.254C217.127 128.876 216.92 129.406 216.497 129.845C216.074 130.276 215.568 130.499 214.97 130.499C214.265 130.499 213.726 130.218 213.361 129.654V132.09H212.623V126.134H213.361V126.863C213.726 126.291 214.265 126.01 214.97 126.01ZM214.879 129.77C215.302 129.77 215.659 129.621 215.949 129.331C216.239 129.041 216.38 128.677 216.38 128.246C216.38 127.815 216.239 127.451 215.949 127.161C215.659 126.871 215.302 126.722 214.879 126.722C214.448 126.722 214.083 126.871 213.801 127.161C213.511 127.451 213.37 127.815 213.37 128.246C213.37 128.677 213.511 129.041 213.801 129.331C214.083 129.629 214.448 129.77 214.879 129.77Z" fill="white"/>
<path d="M218.388 125.347C218.247 125.347 218.123 125.297 218.032 125.206C217.94 125.115 217.891 124.991 217.891 124.858C217.891 124.726 217.94 124.602 218.032 124.502C218.123 124.403 218.247 124.353 218.388 124.353C218.521 124.353 218.637 124.403 218.737 124.502C218.836 124.602 218.878 124.718 218.878 124.858C218.878 124.999 218.828 125.115 218.737 125.206C218.645 125.297 218.521 125.347 218.388 125.347ZM218.015 130.375V126.117H218.753V130.375H218.015Z" fill="white"/>
<path d="M220.628 126.838C220.868 126.308 221.316 126.043 221.955 126.043V126.813C221.59 126.797 221.283 126.896 221.018 127.103C220.761 127.31 220.628 127.65 220.628 128.114V130.367H219.89V126.109H220.628V126.838Z" fill="white"/>
<path d="M225.745 126.126H226.542L224.8 130.64C224.617 131.12 224.36 131.493 224.037 131.742C223.713 131.99 223.332 132.106 222.909 132.081V131.394C223.431 131.435 223.813 131.145 224.053 130.524L224.136 130.367L222.278 126.126H223.075L224.493 129.389L225.745 126.126Z" fill="white"/>
<path d="M231.693 124.419C232.506 124.419 233.178 124.709 233.717 125.281C234.256 125.852 234.521 126.565 234.521 127.393C234.521 128.23 234.256 128.934 233.717 129.505C233.178 130.085 232.506 130.367 231.693 130.367H229.37V124.411H231.693V124.419ZM231.693 129.629C232.298 129.629 232.796 129.414 233.186 128.992C233.576 128.569 233.766 128.039 233.766 127.401C233.766 126.764 233.576 126.233 233.186 125.811C232.796 125.389 232.307 125.173 231.693 125.173H230.158V129.629H231.693Z" fill="white"/>
<path d="M238.935 126.126H239.673V130.383H238.935V129.654C238.561 130.218 238.031 130.499 237.326 130.499C236.728 130.499 236.222 130.284 235.799 129.845C235.376 129.414 235.169 128.884 235.169 128.254C235.169 127.633 235.376 127.103 235.799 126.664C236.222 126.233 236.728 126.01 237.326 126.01C238.031 126.01 238.57 126.291 238.935 126.855V126.126ZM237.425 129.77C237.856 129.77 238.221 129.621 238.503 129.331C238.794 129.041 238.935 128.677 238.935 128.246C238.935 127.815 238.794 127.451 238.503 127.161C238.213 126.871 237.856 126.722 237.425 126.722C237.002 126.722 236.637 126.871 236.355 127.161C236.065 127.451 235.924 127.815 235.924 128.246C235.924 128.677 236.065 129.041 236.355 129.331C236.637 129.629 236.994 129.77 237.425 129.77Z" fill="white"/>
<path d="M243.123 126.838H241.986V129.141C241.986 129.348 242.028 129.497 242.111 129.588C242.194 129.679 242.318 129.721 242.492 129.721C242.667 129.721 242.874 129.721 243.123 129.712V130.375C242.476 130.458 242.003 130.408 241.704 130.218C241.406 130.027 241.256 129.671 241.256 129.141V126.838H240.41V126.126H241.256V125.157L241.995 124.933V126.126H243.131V126.838H243.123Z" fill="white"/>
<path d="M244.309 128.586C244.383 128.967 244.557 129.265 244.831 129.472C245.105 129.679 245.445 129.787 245.851 129.787C246.415 129.787 246.822 129.58 247.079 129.166L247.709 129.522C247.295 130.16 246.672 130.483 245.835 130.483C245.155 130.483 244.607 130.276 244.184 129.845C243.761 129.422 243.554 128.884 243.554 128.238C243.554 127.6 243.761 127.062 244.176 126.639C244.591 126.217 245.13 126.001 245.785 126.001C246.407 126.001 246.921 126.225 247.311 126.664C247.709 127.103 247.9 127.633 247.9 128.254C247.9 128.362 247.892 128.47 247.875 128.586H244.309ZM245.777 126.706C245.379 126.706 245.047 126.822 244.79 127.045C244.532 127.269 244.367 127.567 244.309 127.94H247.154C247.087 127.534 246.93 127.227 246.672 127.02C246.415 126.813 246.117 126.706 245.777 126.706Z" fill="white"/>
<path d="M209.853 146.924C209.239 147.786 208.368 148.216 207.257 148.216C206.145 148.216 205.283 147.786 204.661 146.924C204.047 146.063 203.732 144.92 203.732 143.487C203.732 142.054 204.039 140.911 204.661 140.049C205.274 139.188 206.145 138.757 207.257 138.757C208.368 138.757 209.231 139.188 209.853 140.049C210.467 140.911 210.782 142.054 210.782 143.487C210.782 144.92 210.475 146.063 209.853 146.924ZM205.557 146.104C205.955 146.717 206.527 147.032 207.265 147.032C208.003 147.032 208.576 146.725 208.982 146.104C209.389 145.491 209.588 144.613 209.588 143.487C209.588 142.36 209.389 141.482 208.982 140.861C208.576 140.24 208.003 139.933 207.265 139.933C206.527 139.933 205.955 140.24 205.557 140.861C205.158 141.474 204.959 142.352 204.959 143.487C204.959 144.613 205.158 145.491 205.557 146.104Z" fill="white"/>
<path d="M211.669 148.042V147.057L214.887 143.777C215.75 142.915 216.181 142.178 216.181 141.565C216.181 141.052 216.024 140.654 215.708 140.364C215.393 140.074 215.012 139.933 214.564 139.933C213.701 139.933 213.079 140.339 212.689 141.159L211.669 140.563C211.959 139.975 212.357 139.528 212.863 139.221C213.369 138.915 213.933 138.765 214.555 138.765C215.319 138.765 215.982 139.014 216.546 139.519C217.11 140.025 217.392 140.695 217.392 141.549C217.392 142.468 216.853 143.47 215.766 144.555L213.436 146.866H217.558V148.034H211.669V148.042Z" fill="white"/>
<path d="M219.242 149.326L218.562 149.343L223.78 137.647L224.46 137.631L219.242 149.326Z" fill="white"/>
<path d="M229.063 142.667C229.759 142.799 230.332 143.097 230.771 143.57C231.219 144.042 231.435 144.63 231.435 145.35C231.435 146.237 231.128 146.933 230.522 147.446C229.917 147.96 229.179 148.216 228.308 148.216C227.611 148.216 226.997 148.059 226.458 147.744C225.919 147.43 225.537 146.974 225.313 146.369L226.334 145.773C226.599 146.618 227.263 147.032 228.316 147.032C228.88 147.032 229.345 146.883 229.701 146.593C230.058 146.303 230.232 145.889 230.232 145.359C230.232 144.829 230.058 144.414 229.701 144.116C229.345 143.818 228.88 143.669 228.316 143.669H228.001L227.52 142.924L229.635 140.074H225.579V138.939H231.053L231.045 140L229.063 142.667Z" fill="white"/>
<path d="M238.619 146.924C238.006 147.786 237.135 148.216 236.023 148.216C234.912 148.216 234.049 147.786 233.427 146.924C232.813 146.063 232.498 144.92 232.498 143.487C232.498 142.054 232.805 140.911 233.427 140.049C234.041 139.188 234.912 138.757 236.023 138.757C237.135 138.757 237.997 139.188 238.619 140.049C239.233 140.911 239.548 142.054 239.548 143.487C239.548 144.92 239.242 146.063 238.619 146.924ZM234.323 146.104C234.721 146.717 235.293 147.032 236.032 147.032C236.77 147.032 237.342 146.725 237.749 146.104C238.155 145.491 238.354 144.613 238.354 143.487C238.354 142.36 238.155 141.482 237.749 140.861C237.342 140.24 236.77 139.933 236.032 139.933C235.293 139.933 234.721 140.24 234.323 140.861C233.925 141.474 233.726 142.352 233.726 143.487C233.717 144.613 233.916 145.491 234.323 146.104Z" fill="white"/>
<path d="M257.015 27.2347H254.244C253.381 27.2347 252.743 27.4749 252.361 28.3198L247.036 40.3798H250.802C250.802 40.3798 251.424 38.7564 251.557 38.4085H256.152C256.26 38.8723 256.583 40.3798 256.583 40.3798H259.918L257.015 27.2347ZM252.594 35.7165C252.892 34.9627 254.012 32.0388 254.012 32.0388C254.012 32.0305 254.319 31.2685 254.493 30.7881L254.734 31.9229C254.734 31.9229 255.422 35.0539 255.563 35.7248H252.594V35.7165Z" fill="white"/>
<path d="M242.251 30.8792C242.242 31.5004 243.014 31.9063 244.275 32.5109C246.34 33.4552 247.302 34.5817 247.286 36.0892C247.261 38.8143 244.814 40.5786 241.031 40.5786C239.422 40.562 237.871 40.239 237.033 39.8745L237.539 36.9258L238.004 37.1411C239.173 37.6298 239.945 37.8286 241.38 37.8286C242.408 37.8286 243.512 37.4228 243.52 36.5448C243.528 35.9649 243.055 35.5508 241.662 34.9047C240.293 34.2752 238.493 33.2233 238.51 31.3347C238.526 28.7836 241.031 26.9944 244.573 26.9944C245.967 26.9944 247.086 27.2843 247.792 27.5494L247.302 30.3988L246.979 30.2497C246.315 29.9846 245.461 29.7278 244.291 29.7444C242.906 29.7444 242.251 30.3325 242.251 30.8792Z" fill="white"/>
<path d="M237.033 27.2264L234.786 40.3715H231.202L233.442 27.2264H237.033Z" fill="white"/>
<path d="M224.144 33.9938C222.95 30.9539 220.088 28.4276 215.75 27.3756L215.8 27.1106H221.365C222.12 27.1354 222.726 27.3756 222.933 28.1791L224.144 33.9938Z" fill="white"/>
<path d="M231.998 27.2347L226.341 40.3633H222.551L219.341 29.4048C221.647 30.8792 223.613 33.2233 224.309 34.8551L224.691 36.2135L228.208 27.243H231.998V27.2347Z" fill="white"/>
<path d="M46.8968 113.85H24.5015C23.0665 113.85 21.8887 112.674 21.8887 111.241V94.6832C21.8887 93.2503 23.0665 92.0741 24.5015 92.0741H46.8968C48.3318 92.0741 49.5096 93.2503 49.5096 94.6832V111.241C49.5096 112.674 48.3318 113.85 46.8968 113.85Z" fill="#F6C859"/>
<path d="M32.5155 110.943C32.3994 110.943 32.2833 110.877 32.2335 110.769C32.1506 110.611 32.2169 110.421 32.3745 110.338C32.839 110.098 33.4694 109.659 33.8344 108.889C34.2989 107.911 34.1744 106.851 33.9837 106.76C33.9339 106.735 33.7431 106.834 33.627 106.892C33.3284 107.05 32.9054 107.257 32.4243 107.091C31.9515 106.926 31.7192 106.503 31.6114 106.304C30.8898 104.979 30.6658 101.533 31.4289 99.8187C31.6861 99.2472 32.0262 98.9158 32.4575 98.8164C32.8971 98.717 33.2537 98.8993 33.5358 99.0484C33.768 99.1726 33.8924 99.2223 33.9588 99.1809C34.2574 98.9987 34.2491 97.9053 33.8344 97.0356C33.4694 96.2653 32.839 95.8263 32.3745 95.5861C32.2169 95.5032 32.1589 95.3127 32.2335 95.1553C32.3165 94.998 32.5072 94.94 32.6648 95.0145C33.2123 95.2962 33.9671 95.8263 34.4067 96.7622C34.8463 97.6817 35.0537 99.2637 34.2823 99.7276C33.8924 99.9595 33.5275 99.769 33.2289 99.6199C33.0049 99.5039 32.7975 99.3962 32.5902 99.4459C32.3082 99.5122 32.1174 99.8352 32.0013 100.092C31.3294 101.583 31.5202 104.846 32.1589 106.014C32.2667 106.213 32.3994 106.429 32.6234 106.503C32.839 106.578 33.0381 106.487 33.3284 106.337C33.6104 106.197 33.9256 106.031 34.2574 106.197C34.9707 106.545 34.9293 108.085 34.4067 109.178C33.9671 110.106 33.2123 110.645 32.6648 110.926C32.6151 110.934 32.5653 110.943 32.5155 110.943Z" fill="#7D662D"/>
<path d="M31.5614 100.399H25.8049C25.6307 100.399 25.4814 100.258 25.4814 100.076C25.4814 99.8934 25.6225 99.7524 25.8049 99.7524H31.5614C31.7356 99.7524 31.8849 99.8934 31.8849 100.076C31.8849 100.258 31.7356 100.399 31.5614 100.399Z" fill="#7D662D"/>
<path d="M31.5614 106.156H25.8049C25.6307 106.156 25.4814 106.015 25.4814 105.833C25.4814 105.65 25.6225 105.509 25.8049 105.509H31.5614C31.7356 105.509 31.8849 105.65 31.8849 105.833C31.8849 106.015 31.7356 106.156 31.5614 106.156Z" fill="#7D662D"/>
<path d="M39.233 110.943C39.1832 110.943 39.1335 110.934 39.0837 110.91C38.5363 110.628 37.7815 110.098 37.3418 109.162C36.8193 108.069 36.7778 106.528 37.4911 106.18C37.8229 106.023 38.1381 106.18 38.4201 106.321C38.7104 106.47 38.9095 106.561 39.1252 106.486C39.3657 106.404 39.5067 106.147 39.5897 105.998C40.2284 104.83 40.4191 101.575 39.7473 100.075C39.6311 99.8186 39.4321 99.4956 39.1583 99.4293C38.9842 99.3879 38.8763 99.214 38.9178 99.0483C38.9593 98.8743 39.1335 98.775 39.2994 98.8081C39.7307 98.9075 40.0708 99.2471 40.3279 99.8186C41.091 101.533 40.8753 104.979 40.1454 106.304C40.0376 106.503 39.8053 106.925 39.3325 107.091C38.8514 107.257 38.4284 107.05 38.1298 106.892C38.0137 106.834 37.8146 106.735 37.7732 106.76C37.5824 106.851 37.458 107.911 37.9225 108.889C38.2874 109.659 38.9178 110.098 39.3823 110.338C39.5399 110.421 39.598 110.611 39.5233 110.769C39.4653 110.876 39.3491 110.943 39.233 110.943Z" fill="#7D662D"/>
<path d="M37.956 99.1229C37.8232 99.1229 37.6988 99.0401 37.6491 98.9075C36.9606 96.8533 38.5698 95.2713 39.084 95.0062C39.2416 94.9234 39.4324 94.9897 39.5153 95.147C39.5983 95.3044 39.5319 95.4949 39.3743 95.5777C39.1421 95.6937 37.6656 96.961 38.2546 98.7087C38.3126 98.8744 38.2214 99.0566 38.0555 99.1146C38.0223 99.1146 37.9891 99.1229 37.956 99.1229Z" fill="#7D662D"/>
<path d="M45.951 100.399H40.1946C40.0204 100.399 39.8711 100.258 39.8711 100.076C39.8711 99.8934 40.0121 99.7524 40.1946 99.7524H45.951C46.1252 99.7524 46.2745 99.8934 46.2745 100.076C46.2745 100.258 46.1335 100.399 45.951 100.399Z" fill="#7D662D"/>
<path d="M45.951 106.156H40.1946C40.0204 106.156 39.8711 106.015 39.8711 105.833C39.8711 105.65 40.0121 105.509 40.1946 105.509H45.951C46.1252 105.509 46.2745 105.65 46.2745 105.833C46.2745 106.015 46.1335 106.156 45.951 106.156Z" fill="#7D662D"/>
<defs>
<linearGradient id="paint0_linear_437_6663" x1="30.6006" y1="197.747" x2="249.097" y2="-21.0538" gradientUnits="userSpaceOnUse">
<stop stop-color="#1B1464"/>
<stop offset="1" stop-color="#83EFFF"/>
</linearGradient>
<linearGradient id="paint1_linear_437_6663" x1="186.227" y1="89.8829" x2="273.086" y2="2.9022" gradientUnits="userSpaceOnUse">
<stop stop-color="#83EFFF"/>
<stop offset="1" stop-color="#1B1464"/>
</linearGradient>
<linearGradient id="paint2_linear_437_6663" x1="47.9418" y1="215.061" x2="244.084" y2="18.6456" gradientUnits="userSpaceOnUse">
<stop stop-color="#1B1464"/>
<stop offset="1" stop-color="#83EFFF"/>
</linearGradient>
<linearGradient id="paint3_linear_437_6663" x1="-9.69702" y1="72.1001" x2="74.2612" y2="-11.9752" gradientUnits="userSpaceOnUse">
<stop stop-color="#1B1464"/>
<stop offset="1" stop-color="#83EFFF"/>
</linearGradient>
<linearGradient id="paint4_linear_437_6663" x1="119.516" y1="206.396" x2="178.319" y2="147.511" gradientUnits="userSpaceOnUse">
<stop stop-color="#02B6FD"/>
<stop offset="1" stop-color="#83EFFF"/>
</linearGradient>
<linearGradient id="paint5_linear_437_6663" x1="51.7909" y1="218.908" x2="196.038" y2="74.4597" gradientUnits="userSpaceOnUse">
<stop stop-color="#1B1464"/>
<stop offset="1" stop-color="#83EFFF"/>
</linearGradient>
<linearGradient id="paint6_linear_437_6663" x1="30.6006" y1="197.747" x2="249.097" y2="-21.0538" gradientUnits="userSpaceOnUse">
<stop stop-color="#02CAFD"/>
<stop offset="1" stop-color="#83F8A6"/>
</linearGradient>
</defs>
</svg>
