<svg width="320" height="202" viewBox="0 0 320 202" fill="none" xmlns="http://www.w3.org/2000/svg">
<path d="M319.914 19.0706L320 182.768C320.01 193.293 311.436 201.838 300.866 201.848L19.2386 202C17.4818 202 15.7728 201.762 14.1592 201.315C6.05323 199.107 0.0954849 191.723 0.0859372 182.939L7.97525e-06 19.2419C-0.0095397 8.71701 8.55472 0.161963 19.1336 0.161963L300.771 0.00970459C304.542 0.00970459 308.085 1.10406 311.044 3.0073C316.381 6.37603 319.914 12.3046 319.914 19.0706Z" fill="url(#paint0_linear_437_6584)"/>
<path opacity="0.53" d="M221.812 201.895L19.2385 202C17.4818 202 15.7727 201.762 14.1592 201.315L104.022 111.653C106.705 108.97 109.98 107.238 113.426 106.505C119.594 105.116 126.344 106.829 131.156 111.644L221.812 201.895Z" fill="url(#paint1_linear_437_6584)"/>
<path opacity="0.53" d="M87.7909 73.0747L0.0763875 160.595L7.96638e-06 19.2512C-0.00953971 8.71681 8.56427 0.171287 19.124 0.16177L41.7043 0.152252L87.7813 46.0298C95.2858 53.4809 95.2954 65.6045 87.7909 73.0747Z" fill="url(#paint2_linear_437_6584)"/>
<path opacity="0.53" d="M165.843 0.0761414L138.298 27.5684C130.812 35.0481 118.649 35.0576 111.163 27.5874L83.5801 0.123722L165.843 0.0761414Z" fill="url(#paint3_linear_437_6584)"/>
<path opacity="0.53" d="M319.913 19.0704L319.99 165.268C314.843 165.467 309.621 163.621 305.687 159.691L189.158 43.6698C181.653 36.2091 181.644 24.0759 189.139 16.6057L205.733 0.0475802L300.761 0C304.532 0 308.074 1.09436 311.034 2.9976C316.381 6.37584 319.913 12.3044 319.913 19.0704Z" fill="url(#paint4_linear_437_6584)"/>
<path d="M33.6954 33.3923H27.3844V37.9981H33.4281V39.7872H27.3748V45.8204H25.4844L25.4749 31.6127H33.6859L33.6954 33.3923Z" fill="white"/>
<path d="M36.7035 33.8206C36.3598 33.8206 36.0829 33.7064 35.8442 33.478C35.6151 33.2496 35.5005 32.9736 35.5005 32.6501C35.5005 32.3265 35.6151 32.041 35.8442 31.8031C36.0734 31.5652 36.3598 31.451 36.7035 31.451C37.0281 31.451 37.305 31.5652 37.5437 31.8031C37.7728 32.041 37.8874 32.317 37.8874 32.6501C37.8874 32.9736 37.7728 33.2496 37.5437 33.478C37.305 33.7064 37.0281 33.8206 36.7035 33.8206ZM35.8156 45.8205L35.806 35.6667H37.5819L37.5914 45.8205H35.8156Z" fill="white"/>
<path d="M45.3628 35.4002C46.5563 35.4002 47.5111 35.7713 48.2367 36.5231C48.9528 37.2749 49.3156 38.2931 49.3156 39.5778V45.8109H47.5397V39.6825C47.5397 38.8546 47.3106 38.217 46.8618 37.7602C46.4131 37.3034 45.7925 37.0846 45.0096 37.0846C44.1312 37.0846 43.4151 37.3605 42.8709 37.9125C42.3267 38.4644 42.0593 39.3018 42.0593 40.4438V45.8204H40.2835L40.2739 35.6666H42.0498V37.1321C42.785 35.9712 43.883 35.4002 45.3628 35.4002Z" fill="white"/>
<path d="M60.209 35.6571H61.9849L61.9944 45.8109H60.2186V44.0694C59.3402 45.4112 58.0512 46.0774 56.3708 46.0869C54.9482 46.0869 53.7261 45.573 52.7236 44.5357C51.7211 43.4985 51.2151 42.2423 51.2151 40.7483C51.2151 39.2543 51.7116 37.9981 52.7236 36.9608C53.7261 35.9236 54.9387 35.4097 56.3708 35.4097C58.0512 35.4097 59.3402 36.0758 60.2186 37.4176L60.209 35.6571ZM56.5904 44.3644C57.6216 44.3644 58.4809 44.0123 59.1779 43.3177C59.8653 42.623 60.2186 41.757 60.2186 40.7293C60.2186 39.7015 59.8748 38.8355 59.1779 38.1409C58.4809 37.4462 57.6216 37.0941 56.5904 37.0941C55.5688 37.0941 54.7191 37.4462 54.0221 38.1409C53.3251 38.8355 52.9814 39.7015 52.9814 40.7293C52.9814 41.757 53.3251 42.623 54.0221 43.3177C54.7191 44.0123 55.5688 44.3644 56.5904 44.3644Z" fill="white"/>
<path d="M69.46 46.0583C67.9228 46.0583 66.653 45.5444 65.6314 44.5262C64.6098 43.508 64.1038 42.2328 64.1038 40.7197C64.1038 39.2067 64.6098 37.9315 65.6314 36.9133C66.653 35.895 67.9228 35.3812 69.46 35.3812C70.4625 35.3812 71.3695 35.6191 72.1715 36.1044C72.9735 36.5802 73.5655 37.2273 73.9665 38.0457L72.4771 38.9021C72.2193 38.3597 71.8183 37.9315 71.2836 37.6079C70.7489 37.2844 70.1379 37.1226 69.46 37.1226C68.4384 37.1226 67.5887 37.4652 66.9012 38.1599C66.2138 38.8546 65.8701 39.711 65.8701 40.7388C65.8701 41.757 66.2138 42.6039 66.9012 43.2986C67.5887 43.9933 68.4384 44.3359 69.46 44.3359C70.1379 44.3359 70.7489 44.1741 71.2932 43.8601C71.8374 43.546 72.2479 43.1083 72.5344 42.5659L74.0429 43.4414C73.6132 44.2407 72.9831 44.8783 72.1715 45.3636C71.36 45.849 70.453 46.0583 69.46 46.0583Z" fill="white"/>
<path d="M76.6886 33.8015C76.3449 33.8015 76.068 33.6873 75.8293 33.4589C75.6002 33.2305 75.4856 32.9545 75.4856 32.631C75.4856 32.3074 75.6002 32.0219 75.8293 31.784C76.0585 31.5461 76.3449 31.4319 76.6886 31.4319C77.0132 31.4319 77.2901 31.5461 77.5288 31.784C77.7675 32.0219 77.8725 32.2979 77.8725 32.631C77.8725 32.9545 77.7579 33.2305 77.5288 33.4589C77.2901 33.6873 77.0132 33.8015 76.6886 33.8015ZM75.7911 45.7919L75.7816 35.6381H77.5574L77.567 45.7919H75.7911Z" fill="white"/>
<path d="M32.492 85.5029V87.1111L30.191 87.016L31.5277 88.8526L30.086 89.7091L28.9498 87.6441L27.8136 89.7091L26.4006 88.8526L27.7086 87.016L25.4363 87.1207V85.5124L27.7086 85.6361L26.391 83.771L27.8041 82.9145L28.9403 84.9795L30.0764 82.9145L31.5182 83.771L30.1815 85.6361L32.492 85.5029Z" fill="white"/>
<path d="M44.3209 85.4936V87.1018L42.0199 87.0067L43.3566 88.8433L41.9149 89.6998L40.7787 87.6347L39.6425 89.6998L38.2295 88.8433L39.5375 87.0067L37.2651 87.1114V85.5031L39.5375 85.6268L38.2199 83.7617L39.633 82.9052L40.7691 84.9702L41.9053 82.9052L43.347 83.7617L42.0103 85.6268L44.3209 85.4936Z" fill="white"/>
<path d="M56.1609 85.4936V87.1018L53.8695 87.0067L55.2062 88.8433L53.7645 89.6998L52.6283 87.6347L51.4921 89.6998L50.0791 88.8433L51.3871 87.0067L49.1147 87.1114V85.5031L51.3871 85.6268L50.0695 83.7617L51.4826 82.9052L52.6187 84.9702L53.7549 82.9052L55.1966 83.7617L53.8599 85.6268L56.1609 85.4936Z" fill="white"/>
<path d="M67.9896 85.484V87.0923L65.6886 86.9971L67.0253 88.8338L65.5836 89.6902L64.4474 87.6252L63.3112 89.6902L61.8982 88.8338L63.2062 86.9971L60.9338 87.1018V85.4936L63.2062 85.6173L61.8886 83.7521L63.3017 82.8956L64.4378 84.9607L65.574 82.8956L67.0157 83.7521L65.679 85.6173L67.9896 85.484Z" fill="white"/>
<path d="M88.0308 85.4745V87.0828L85.7298 86.9876L87.0665 88.8242L85.6248 89.6807L84.4886 87.6157L83.3525 89.6807L81.9394 88.8242L83.2475 86.9876L80.9751 87.0923V85.484L83.2475 85.6077L81.9299 83.7426L83.3429 82.8861L84.4791 84.9511L85.6153 82.8861L87.057 83.7426L85.7203 85.6077L88.0308 85.4745Z" fill="white"/>
<path d="M99.8697 85.4649V87.0732L97.5687 86.978L98.9054 88.8146L97.4637 89.6711L96.3275 87.6061L95.1913 89.6711L93.7783 88.8146L95.0863 86.978L92.814 87.0827V85.4745L95.0863 85.5982L93.7687 83.733L95.1818 82.8765L96.318 84.9415L97.4541 82.8765L98.8958 83.733L97.5592 85.5982L99.8697 85.4649Z" fill="white"/>
<path d="M111.7 85.4649V87.0732L109.399 86.978L110.735 88.8146L109.294 89.6711L108.158 87.6061L107.021 89.6711L105.608 88.8146L106.916 86.978L104.644 87.0827V85.4745L106.916 85.5982L105.599 83.733L107.012 82.8765L108.148 84.9415L109.284 82.8765L110.726 83.733L109.389 85.5982L111.7 85.4649Z" fill="white"/>
<path d="M123.539 85.4554V87.0636L121.247 86.9685L122.584 88.8051L121.142 89.6616L120.006 87.5966L118.87 89.6616L117.457 88.8051L118.765 86.9685L116.493 87.0732V85.4649L118.765 85.5886L117.447 83.7235L118.861 82.867L119.997 84.932L121.133 82.867L122.575 83.7235L121.238 85.5886L123.539 85.4554Z" fill="white"/>
<path d="M143.569 85.4459V87.0541L141.268 86.9589L142.605 88.7956L141.163 89.652L140.027 87.587L138.891 89.652L137.478 88.7956L138.786 86.9589L136.513 87.0636V85.4554L138.786 85.5791L137.468 83.7139L138.881 82.8575L140.017 84.9225L141.153 82.8575L142.595 83.7139L141.258 85.5791L143.569 85.4459Z" fill="white"/>
<path d="M155.409 85.4363V87.0445L153.108 86.9494L154.445 88.786L153.003 89.6425L151.867 87.5775L150.731 89.6425L149.318 88.786L150.626 86.9494L148.353 87.0541V85.4458L150.626 85.5695L149.308 83.7044L150.721 82.8479L151.857 84.9129L152.993 82.8479L154.435 83.7044L153.098 85.5695L155.409 85.4363Z" fill="white"/>
<path d="M167.248 85.4268V87.035L164.947 86.9398L166.283 88.7765L164.842 89.6329L163.705 87.5679L162.569 89.6329L161.156 88.7765L162.464 86.9398L160.192 87.0445V85.4363L162.464 85.56L161.147 83.6948L162.56 82.8384L163.696 84.9034L164.832 82.8384L166.274 83.6948L164.937 85.56L167.248 85.4268Z" fill="white"/>
<path d="M179.078 85.4268V87.035L176.786 86.9398L178.123 88.7765L176.681 89.6329L175.545 87.5679L174.409 89.6329L172.996 88.7765L174.304 86.9398L172.031 87.0445V85.4363L174.304 85.56L172.986 83.6948L174.399 82.8384L175.536 84.9034L176.672 82.8384L178.113 83.6948L176.777 85.56L179.078 85.4268Z" fill="white"/>
<path d="M191.528 100.757V98.8446L197.753 92.5068C199.414 90.8415 200.254 89.4236 200.254 88.2341C200.254 87.2444 199.949 86.4736 199.347 85.9216C198.746 85.3697 198.001 85.0937 197.123 85.0937C195.452 85.0937 194.249 85.8836 193.495 87.4632L191.528 86.3118C192.082 85.1698 192.855 84.3039 193.838 83.7234C194.822 83.1334 195.91 82.8384 197.104 82.8384C198.584 82.8384 199.872 83.3237 200.961 84.2944C202.059 85.265 202.603 86.5782 202.603 88.215C202.603 89.9945 201.553 91.9358 199.452 94.0294L194.946 98.5115H202.928V100.776L191.528 100.757Z" fill="white"/>
<path d="M213.525 90.3562C214.871 90.6036 215.979 91.1841 216.838 92.0881C217.698 92.9921 218.127 94.1436 218.127 95.533C218.127 97.2459 217.535 98.5972 216.361 99.5869C215.187 100.577 213.754 101.071 212.074 101.071C210.728 101.071 209.534 100.767 208.494 100.158C207.453 99.5488 206.708 98.6638 206.269 97.5028L208.236 96.3418C208.761 97.9691 210.04 98.778 212.074 98.778C213.162 98.778 214.06 98.4925 214.747 97.9215C215.435 97.3506 215.779 96.5512 215.779 95.533C215.779 94.5147 215.435 93.7059 214.747 93.1349C214.06 92.5544 213.162 92.2689 212.074 92.2689H211.473L210.537 90.832L214.623 85.3221H206.775V83.1334L217.373 83.1239L217.363 85.1794L213.525 90.3562Z" fill="white"/>
<path d="M235.561 95.1999V97.3886H233.413V100.738H231.064V97.3886H222.051V95.1999L228.381 83.1239H230.902L224.572 95.1999H231.055V90.2229H233.403V95.1999H235.561Z" fill="white"/>
<path d="M244.784 89.9945C246.455 89.9945 247.858 90.4799 249.014 91.46C250.169 92.4402 250.742 93.7915 250.742 95.5234C250.742 97.2364 250.15 98.5876 248.976 99.5773C247.801 100.567 246.369 101.062 244.689 101.062C243.342 101.062 242.139 100.738 241.08 100.091C240.02 99.4441 239.275 98.5115 238.855 97.2839L240.85 96.1515C241.089 97.008 241.538 97.6551 242.216 98.1023C242.894 98.5496 243.715 98.7685 244.689 98.7685C245.796 98.7685 246.703 98.483 247.391 97.912C248.078 97.341 248.422 96.5417 248.422 95.5234C248.422 94.5052 248.078 93.6963 247.381 93.1254C246.694 92.5449 245.806 92.2594 244.727 92.2594H239.733L240.364 83.1239L250.054 83.1143V85.3031H242.512L242.206 89.985L244.784 89.9945Z" fill="white"/>
<path d="M26.9729 148.947C25.9418 148.947 25.092 148.605 24.4142 147.929C23.7363 147.253 23.4021 146.416 23.4021 145.426C23.4021 144.437 23.7363 143.599 24.4046 142.924C25.0729 142.248 25.9322 141.905 26.9634 141.905C27.584 141.905 28.1569 142.058 28.682 142.353C29.2071 142.648 29.6081 143.047 29.9041 143.552L29.1116 144.008C28.9207 143.637 28.6247 143.333 28.2428 143.114C27.8609 142.895 27.4312 142.781 26.9634 142.781C26.1805 142.781 25.5408 143.038 25.0443 143.542C24.5478 144.046 24.2996 144.675 24.2996 145.436C24.2996 146.188 24.5478 146.816 25.0443 147.32C25.5408 147.824 26.1805 148.081 26.9634 148.072C27.4312 148.072 27.8609 147.958 28.2428 147.739C28.6342 147.52 28.9207 147.225 29.1116 146.854L29.9041 147.301C29.6176 147.805 29.2166 148.215 28.6915 148.51C28.1664 148.795 27.5935 148.947 26.9729 148.947Z" fill="white"/>
<path d="M34.8592 143.961H35.709V148.814H34.8592V147.977C34.4391 148.614 33.8281 148.938 33.0165 148.938C32.3386 148.938 31.7562 148.69 31.2693 148.196C30.7919 147.701 30.5532 147.101 30.5532 146.387C30.5532 145.674 30.7919 145.074 31.2693 144.579C31.7467 144.085 32.3291 143.837 33.0165 143.837C33.8185 143.837 34.4296 144.151 34.8592 144.798V143.961ZM33.1216 148.119C33.618 148.119 34.0286 147.958 34.3532 147.615C34.6874 147.282 34.8497 146.873 34.8497 146.378C34.8497 145.883 34.6874 145.474 34.3532 145.141C34.019 144.808 33.6085 144.646 33.112 144.646C32.6251 144.646 32.2145 144.817 31.8899 145.15C31.5557 145.483 31.3934 145.893 31.3934 146.387C31.3934 146.882 31.5557 147.291 31.8899 147.625C32.2336 147.958 32.6346 148.129 33.1216 148.119Z" fill="white"/>
<path d="M37.8385 144.77C38.1154 144.17 38.6214 143.866 39.3566 143.866V144.751C38.946 144.732 38.5832 144.836 38.2873 145.084C37.9913 145.322 37.8385 145.712 37.8385 146.235V148.805H36.9888V143.951H37.8385V144.77Z" fill="white"/>
<path d="M43.9481 142.01H44.7978V148.805H43.9481V147.967C43.528 148.605 42.9169 148.928 42.1054 148.928C41.4275 148.928 40.8451 148.681 40.3582 148.186C39.8808 147.691 39.6421 147.092 39.6421 146.378C39.6421 145.664 39.8808 145.065 40.3582 144.57C40.8355 144.075 41.418 143.828 42.1054 143.828C42.9074 143.828 43.528 144.142 43.9481 144.789V142.01ZM42.22 148.119C42.7164 148.119 43.127 147.958 43.4516 147.615C43.7858 147.282 43.9481 146.873 43.9481 146.378C43.9481 145.883 43.7858 145.474 43.4516 145.141C43.1175 144.808 42.7069 144.646 42.22 144.646C41.733 144.646 41.3225 144.817 40.9979 145.15C40.6637 145.483 40.5014 145.893 40.5014 146.387C40.5014 146.882 40.6637 147.291 40.9979 147.625C41.3225 147.958 41.733 148.119 42.22 148.119Z" fill="white"/>
<path d="M52.8182 142.01H53.7157V148.805H52.8182V145.75H49.5052V148.805H48.5981V142.01H49.5052V144.893H52.8182V142.01Z" fill="white"/>
<path d="M59.1954 148.186C58.6989 148.681 58.0878 148.928 57.3718 148.928C56.6557 148.928 56.0542 148.681 55.5577 148.196C55.0612 147.701 54.813 147.101 54.813 146.378C54.813 145.664 55.0612 145.055 55.5577 144.56C56.0542 144.065 56.6557 143.828 57.3718 143.818C58.0878 143.818 58.6894 144.065 59.1954 144.551C59.7014 145.036 59.9496 145.645 59.9496 146.368C59.9401 147.092 59.6919 147.691 59.1954 148.186ZM57.3718 148.1C57.8587 148.1 58.2692 147.939 58.5939 147.605C58.928 147.272 59.0904 146.863 59.0904 146.378C59.0904 145.883 58.928 145.474 58.5939 145.15C58.2597 144.817 57.8492 144.655 57.3622 144.655C56.8848 144.655 56.4743 144.817 56.1401 145.15C55.8059 145.483 55.6436 145.893 55.6436 146.378C55.6436 146.873 55.8059 147.282 56.1401 147.605C56.4934 147.939 56.8944 148.1 57.3718 148.1Z" fill="white"/>
<path d="M60.9536 148.795V141.715H61.8034V148.795H60.9536Z" fill="white"/>
<path d="M67.1207 142H67.9705V148.795H67.1207V147.958C66.7006 148.595 66.0896 148.919 65.278 148.919C64.6001 148.919 64.0177 148.671 63.5308 148.176C63.0534 147.682 62.8147 147.082 62.8052 146.368C62.8052 145.655 63.0439 145.055 63.5213 144.56C63.9986 144.065 64.581 143.818 65.2589 143.818C66.0609 143.818 66.6815 144.142 67.1016 144.779L67.1207 142ZM65.3926 148.11C65.8891 148.11 66.2996 147.948 66.6242 147.606C66.9584 147.272 67.1207 146.863 67.1207 146.368C67.1207 145.874 66.9584 145.464 66.6242 145.131C66.2901 144.798 65.8795 144.636 65.3926 144.636C64.9057 144.636 64.4951 144.808 64.1609 145.141C63.8268 145.474 63.6645 145.883 63.6645 146.378C63.6645 146.873 63.8268 147.282 64.1609 147.615C64.4951 147.939 64.9057 148.11 65.3926 148.11Z" fill="white"/>
<path d="M69.852 146.759C69.9379 147.196 70.1384 147.529 70.4535 147.767C70.7685 148.005 71.16 148.129 71.6183 148.129C72.258 148.129 72.7258 147.891 73.0218 147.415L73.7379 147.824C73.2605 148.557 72.554 148.919 71.5992 148.919C70.8258 148.919 70.1957 148.681 69.7183 148.196C69.2314 147.71 68.9927 147.101 68.9927 146.368C68.9927 145.636 69.2314 145.027 69.6992 144.541C70.1766 144.056 70.7876 143.809 71.5419 143.809C72.258 143.809 72.8404 144.056 73.2891 144.56C73.7379 145.065 73.967 145.664 73.967 146.368C73.967 146.492 73.9575 146.616 73.9384 146.749L69.852 146.759ZM71.5324 144.608C71.0741 144.608 70.7017 144.732 70.4057 144.989C70.1097 145.245 69.9188 145.588 69.852 146.016H73.1077C73.0313 145.56 72.8499 145.207 72.5635 144.97C72.258 144.732 71.9143 144.608 71.5324 144.608Z" fill="white"/>
<path d="M75.7711 144.751C76.048 144.151 76.554 143.847 77.2892 143.847V144.732C76.8691 144.713 76.5158 144.827 76.2199 145.065C75.9239 145.303 75.7711 145.693 75.7711 146.216V148.786H74.9214V143.932H75.7711V144.751Z" fill="white"/>
<path d="M82.9791 143.809C83.552 143.809 84.0103 143.989 84.354 144.341C84.6977 144.703 84.8695 145.188 84.8695 145.807V148.786H84.0198V145.855C84.0198 145.455 83.9148 145.15 83.6952 144.941C83.4851 144.722 83.1796 144.617 82.8072 144.617C82.3871 144.617 82.0434 144.751 81.7856 145.008C81.5278 145.274 81.3942 145.674 81.3942 146.216V148.786H80.5444V143.932H81.3942V144.627C81.7474 144.085 82.2726 143.809 82.9791 143.809Z" fill="white"/>
<path d="M90.0741 143.932H90.9238V148.786H90.0741V147.948C89.654 148.586 89.043 148.909 88.2314 148.909C87.5535 148.909 86.9711 148.662 86.4842 148.167C86.0068 147.672 85.7681 147.073 85.7585 146.359C85.7585 145.645 85.9972 145.046 86.4746 144.551C86.952 144.056 87.5344 143.809 88.2123 143.809C89.0143 143.809 89.6349 144.123 90.055 144.77V143.932H90.0741ZM88.346 148.091C88.8424 148.091 89.253 147.92 89.5776 147.586C89.9118 147.253 90.0741 146.844 90.0741 146.349C90.0741 145.855 89.9118 145.445 89.5776 145.112C89.2434 144.779 88.8329 144.617 88.346 144.617C87.859 144.617 87.4485 144.779 87.1143 145.122C86.7801 145.455 86.6178 145.864 86.6178 146.359C86.6178 146.854 86.7801 147.263 87.1143 147.596C87.4485 147.929 87.859 148.091 88.346 148.091Z" fill="white"/>
<path d="M97.4634 143.799C98.0076 143.799 98.4468 143.97 98.7905 144.332C99.1247 144.684 99.2966 145.16 99.2966 145.759V148.776H98.4468V145.788C98.4468 145.417 98.3514 145.122 98.1509 144.912C97.9599 144.703 97.6926 144.598 97.3679 144.598C97.0051 144.598 96.7187 144.722 96.4991 144.96C96.2795 145.198 96.1745 145.569 96.1745 146.073V148.766H95.3247V145.778C95.3247 145.407 95.2293 145.112 95.0479 144.903C94.8665 144.694 94.6087 144.589 94.2936 144.589C93.9308 144.589 93.6348 144.713 93.4057 144.96C93.167 145.207 93.0524 145.579 93.0524 146.064V148.757H92.2026V143.904H93.0524V144.551C93.3865 144.037 93.8639 143.77 94.5036 143.77C95.1624 143.77 95.6398 144.046 95.9358 144.598C96.27 144.075 96.7855 143.799 97.4634 143.799Z" fill="white"/>
<path d="M101.062 146.74C101.148 147.177 101.348 147.51 101.663 147.748C101.979 147.986 102.37 148.11 102.828 148.11C103.468 148.11 103.936 147.872 104.232 147.396L104.948 147.805C104.47 148.538 103.764 148.9 102.809 148.9C102.036 148.9 101.406 148.662 100.928 148.176C100.441 147.691 100.203 147.082 100.203 146.349C100.203 145.617 100.441 145.008 100.909 144.522C101.387 144.037 101.998 143.799 102.752 143.79C103.468 143.79 104.05 144.037 104.499 144.541C104.948 145.046 105.177 145.645 105.177 146.349C105.177 146.473 105.167 146.597 105.148 146.73L101.062 146.74ZM102.752 144.589C102.294 144.589 101.921 144.713 101.625 144.97C101.329 145.226 101.138 145.569 101.071 145.997H104.327C104.251 145.54 104.069 145.188 103.783 144.951C103.477 144.713 103.134 144.589 102.752 144.589Z" fill="white"/>
<path d="M30.0471 158.579H32.0998L32.1094 168.97H30.5435L26.0752 162.623V168.98H24.0225L24.0129 158.588H25.5788L30.0471 164.916V158.579Z" fill="white"/>
<path d="M40.2921 168.027C39.5283 168.789 38.5926 169.16 37.4947 169.169C36.3967 169.179 35.461 168.789 34.7067 168.037C33.9429 167.275 33.5706 166.352 33.5706 165.258C33.5706 164.164 33.9525 163.231 34.7067 162.479C35.461 161.728 36.3967 161.347 37.4947 161.347C38.5926 161.347 39.5283 161.728 40.2921 162.479C41.0559 163.241 41.4378 164.164 41.4378 165.258C41.4378 166.343 41.0559 167.275 40.2921 168.027ZM36.0625 166.714C36.4444 167.104 36.9218 167.294 37.4947 167.294C38.0675 167.294 38.5544 167.104 38.9364 166.714C39.3278 166.324 39.5188 165.839 39.5188 165.249C39.5188 164.659 39.3278 164.164 38.9364 163.783C38.5449 163.402 38.0675 163.203 37.4947 163.203C36.9218 163.203 36.4444 163.393 36.0625 163.783C35.6806 164.173 35.4896 164.659 35.4896 165.249C35.4896 165.839 35.6806 166.333 36.0625 166.714Z" fill="white"/>
<path d="M51.0338 161.318C51.8836 161.318 52.571 161.594 53.077 162.146C53.5926 162.698 53.8409 163.44 53.8409 164.373V168.941H51.9218V164.506C51.9218 164.059 51.8072 163.716 51.5972 163.469C51.3776 163.222 51.072 163.098 50.671 163.098C50.2318 163.098 49.8977 163.241 49.6494 163.526C49.4012 163.812 49.2866 164.23 49.2866 164.773V168.941H47.3675V164.506C47.3675 164.059 47.2625 163.716 47.0429 163.469C46.8233 163.222 46.5178 163.098 46.1168 163.098C45.6871 163.098 45.353 163.241 45.0952 163.526C44.8469 163.812 44.7133 164.23 44.7133 164.773V168.941H42.7942V161.518H44.7133V162.308C45.162 161.642 45.8494 161.309 46.7851 161.309C47.7017 161.309 48.37 161.661 48.8092 162.375C49.3057 161.68 50.0504 161.318 51.0338 161.318Z" fill="white"/>
<path d="M61.1443 161.528H63.0634V168.95H61.1443V168.075C60.5714 168.798 59.7599 169.16 58.7192 169.16C57.7262 169.16 56.8765 168.779 56.1604 168.027C55.4539 167.266 55.0911 166.343 55.0911 165.249C55.0911 164.154 55.4443 163.222 56.1509 162.47C56.8574 161.708 57.7071 161.337 58.7001 161.337C59.7408 161.337 60.5523 161.699 61.1252 162.422L61.1443 161.528ZM57.6021 166.743C57.9936 167.133 58.4805 167.333 59.0724 167.333C59.6644 167.333 60.1609 167.133 60.5523 166.743C60.9438 166.352 61.1443 165.848 61.1443 165.239C61.1443 164.63 60.9438 164.126 60.5523 163.735C60.1609 163.345 59.6644 163.145 59.0724 163.145C58.4709 163.145 57.984 163.345 57.6021 163.735C57.2202 164.126 57.0197 164.63 57.0197 165.239C57.0197 165.848 57.2107 166.352 57.6021 166.743Z" fill="white"/>
<path d="M68.944 161.309C69.7555 161.309 70.4334 161.585 70.9585 162.127C71.4932 162.67 71.751 163.421 71.7605 164.383V168.941H69.8414V164.62C69.8414 164.126 69.7078 163.745 69.4404 163.488C69.1731 163.222 68.8103 163.098 68.3711 163.098C67.8746 163.098 67.4736 163.25 67.1776 163.555C66.8817 163.859 66.7289 164.325 66.7289 164.934V168.941H64.8098V161.518H66.7289V162.346C67.1872 161.661 67.9319 161.318 68.944 161.309Z" fill="white"/>
<path d="M87.4099 158.54L87.4194 168.931H85.3762V162.194L82.4355 167.019L82.1968 167.028L79.2657 162.222V168.931H77.2129L77.2034 158.54H79.3134L82.3018 163.44L85.2712 158.53L87.4099 158.54Z" fill="white"/>
<path d="M94.9141 161.509H96.8331V168.931H94.9141V168.056C94.3412 168.779 93.5296 169.141 92.4889 169.141C91.496 169.141 90.6462 168.76 89.9397 168.008C89.2332 167.247 88.8704 166.324 88.8704 165.229C88.8704 164.135 89.2236 163.203 89.9302 162.441C90.6367 161.689 91.4864 161.309 92.4794 161.309C93.5201 161.309 94.3316 161.67 94.9045 162.394V161.509H94.9141ZM91.3719 166.723C91.7633 167.114 92.2502 167.313 92.8422 167.313C93.4342 167.313 93.9306 167.114 94.3221 166.723C94.7135 166.333 94.9141 165.829 94.9141 165.22C94.9141 164.611 94.7135 164.107 94.3221 163.716C93.9306 163.326 93.4342 163.126 92.8422 163.126C92.2502 163.126 91.7538 163.326 91.3719 163.716C90.9804 164.107 90.7894 164.611 90.7894 165.22C90.7894 165.829 90.9899 166.333 91.3719 166.723Z" fill="white"/>
<path d="M102.715 161.29C103.527 161.29 104.205 161.566 104.73 162.108C105.265 162.651 105.522 163.402 105.532 164.363V168.922H103.613V164.601C103.613 164.107 103.479 163.726 103.212 163.469C102.945 163.202 102.582 163.079 102.143 163.079C101.646 163.079 101.245 163.231 100.949 163.536C100.653 163.84 100.5 164.306 100.5 164.915V168.922H98.5813V161.499H100.5V162.327C100.968 161.642 101.703 161.299 102.715 161.29Z" fill="white"/>
<path d="M109.427 167.123H112.73V168.922H106.859V167.647L110 163.298H107.011V161.499H112.587V162.774L109.427 167.123Z" fill="white"/>
<path d="M120.044 167.989C119.28 168.75 118.344 169.122 117.246 169.131C116.148 169.131 115.212 168.75 114.449 167.999C113.694 167.247 113.312 166.314 113.312 165.22C113.312 164.126 113.694 163.193 114.449 162.432C115.203 161.68 116.139 161.299 117.237 161.299C118.335 161.299 119.27 161.68 120.034 162.432C120.798 163.193 121.18 164.116 121.18 165.21C121.189 166.305 120.807 167.228 120.044 167.989ZM115.804 166.676C116.186 167.066 116.664 167.256 117.237 167.256C117.809 167.256 118.296 167.066 118.678 166.676C119.06 166.286 119.261 165.8 119.261 165.21C119.261 164.62 119.07 164.126 118.678 163.745C118.287 163.355 117.809 163.164 117.237 163.164C116.664 163.164 116.177 163.355 115.804 163.745C115.423 164.135 115.232 164.62 115.232 165.21C115.232 165.8 115.423 166.286 115.804 166.676Z" fill="white"/>
<path d="M128.885 167.98C128.122 168.731 127.186 169.112 126.088 169.122C124.99 169.122 124.054 168.741 123.3 167.989C122.536 167.237 122.154 166.305 122.154 165.21C122.154 164.116 122.536 163.183 123.29 162.422C124.045 161.67 124.98 161.29 126.078 161.29C127.176 161.29 128.112 161.67 128.876 162.422C129.64 163.183 130.022 164.107 130.022 165.201C130.022 166.295 129.649 167.228 128.885 167.98ZM124.646 166.666C125.028 167.057 125.506 167.247 126.088 167.247C126.661 167.247 127.148 167.057 127.53 166.666C127.921 166.276 128.112 165.791 128.112 165.201C128.112 164.611 127.921 164.116 127.53 163.735C127.138 163.345 126.661 163.155 126.088 163.155C125.515 163.155 125.038 163.345 124.656 163.735C124.274 164.126 124.083 164.611 124.083 165.201C124.083 165.791 124.264 166.286 124.646 166.666Z" fill="white"/>
<path d="M133.305 162.765C133.486 162.289 133.782 161.937 134.193 161.699C134.604 161.461 135.062 161.337 135.568 161.337V163.478C134.976 163.412 134.46 163.526 133.993 163.84C133.534 164.145 133.305 164.658 133.305 165.372V168.922H131.386V161.499H133.305V162.765Z" fill="white"/>
<path d="M233.853 147.853H237.013V148.709H232.946V141.915H236.965V142.771H233.853V144.855H236.726V145.702H233.853V147.853Z" fill="white"/>
<path d="M242.245 148.7H241.252L239.887 146.863L238.522 148.7H237.529L239.391 146.197L237.634 143.847H238.636L239.887 145.531L241.147 143.847H242.14L240.384 146.197L242.245 148.7Z" fill="white"/>
<path d="M245.72 143.723C246.398 143.723 246.981 143.97 247.467 144.465C247.945 144.96 248.193 145.56 248.193 146.273C248.193 146.987 247.954 147.586 247.477 148.081C247 148.576 246.417 148.824 245.739 148.824C244.937 148.824 244.317 148.5 243.897 147.862V150.641H243.047V143.847H243.897V144.684C244.298 144.037 244.918 143.723 245.72 143.723ZM245.615 148.005C246.102 148.005 246.513 147.843 246.847 147.501C247.181 147.168 247.343 146.759 247.343 146.264C247.343 145.769 247.181 145.36 246.847 145.027C246.513 144.694 246.102 144.532 245.615 144.532C245.119 144.532 244.708 144.703 244.384 145.036C244.049 145.369 243.887 145.778 243.887 146.273C243.887 146.768 244.049 147.177 244.384 147.51C244.708 147.843 245.119 148.005 245.615 148.005Z" fill="white"/>
<path d="M249.625 142.962C249.463 142.962 249.329 142.904 249.214 142.8C249.1 142.686 249.052 142.562 249.052 142.4C249.052 142.238 249.109 142.115 249.214 142C249.329 141.886 249.463 141.829 249.625 141.829C249.778 141.829 249.911 141.886 250.026 142C250.14 142.115 250.188 142.248 250.188 142.4C250.188 142.552 250.131 142.686 250.026 142.8C249.911 142.904 249.778 142.962 249.625 142.962ZM249.195 148.69V143.837H250.045V148.69H249.195Z" fill="white"/>
<path d="M252.184 144.655C252.461 144.056 252.967 143.751 253.702 143.751V144.636C253.292 144.617 252.929 144.732 252.633 144.97C252.337 145.207 252.184 145.598 252.184 146.121V148.69H251.334V143.837H252.184V144.655Z" fill="white"/>
<path d="M258.036 143.837H258.943L256.957 148.995C256.747 149.547 256.461 149.966 256.088 150.251C255.716 150.536 255.286 150.67 254.799 150.632V149.842C255.391 149.889 255.831 149.556 256.107 148.852L256.203 148.671L254.074 143.837H254.981L256.604 147.558L258.036 143.837Z" fill="white"/>
<path d="M264.825 141.896C265.752 141.896 266.525 142.22 267.136 142.876C267.747 143.533 268.053 144.332 268.053 145.284C268.053 146.235 267.747 147.035 267.136 147.691C266.525 148.348 265.752 148.681 264.825 148.681H262.171V141.886L264.825 141.896ZM264.835 147.834C265.532 147.834 266.095 147.587 266.534 147.101C266.974 146.616 267.193 146.007 267.193 145.284C267.193 144.561 266.974 143.951 266.534 143.466C266.095 142.981 265.522 142.743 264.835 142.743H263.078V147.825L264.835 147.834Z" fill="white"/>
<path d="M273.103 143.828H273.953V148.681H273.103V147.843C272.683 148.481 272.072 148.805 271.26 148.805C270.583 148.805 270 148.557 269.513 148.062C269.036 147.567 268.797 146.968 268.797 146.254C268.797 145.54 269.036 144.941 269.513 144.446C269.991 143.951 270.573 143.704 271.26 143.704C272.062 143.704 272.673 144.018 273.103 144.665V143.828ZM271.375 147.996C271.871 147.996 272.282 147.824 272.607 147.491C272.941 147.158 273.103 146.749 273.103 146.254C273.103 145.759 272.941 145.35 272.607 145.017C272.272 144.684 271.862 144.522 271.365 144.522C270.879 144.522 270.468 144.684 270.143 145.027C269.809 145.36 269.647 145.769 269.647 146.264C269.647 146.759 269.809 147.168 270.143 147.501C270.478 147.834 270.888 147.996 271.375 147.996Z" fill="white"/>
<path d="M277.887 144.646H276.589V147.272C276.589 147.51 276.636 147.682 276.732 147.786C276.827 147.891 276.971 147.939 277.162 147.939C277.353 147.939 277.601 147.939 277.878 147.929V148.681C277.142 148.776 276.598 148.719 276.255 148.5C275.911 148.281 275.739 147.872 275.739 147.272V144.646H274.775V143.828H275.739V142.724L276.589 142.476V143.837H277.887V144.646Z" fill="white"/>
<path d="M279.243 146.644C279.329 147.082 279.529 147.415 279.844 147.653C280.159 147.891 280.551 148.015 281.009 148.015C281.649 148.015 282.116 147.777 282.412 147.301L283.129 147.71C282.651 148.443 281.945 148.805 280.99 148.805C280.216 148.805 279.586 148.567 279.109 148.081C278.622 147.596 278.383 146.987 278.383 146.254C278.383 145.521 278.622 144.912 279.09 144.427C279.567 143.942 280.178 143.704 280.933 143.694C281.649 143.694 282.231 143.942 282.68 144.446C283.129 144.95 283.358 145.55 283.358 146.254C283.358 146.378 283.348 146.502 283.329 146.635L279.243 146.644ZM280.923 144.494C280.465 144.494 280.092 144.617 279.796 144.874C279.5 145.131 279.309 145.474 279.243 145.902H282.498C282.422 145.445 282.241 145.093 281.954 144.855C281.649 144.617 281.314 144.494 280.923 144.494Z" fill="white"/>
<path d="M239.886 167.57C239.179 168.551 238.196 169.045 236.926 169.045C235.656 169.045 234.663 168.56 233.957 167.58C233.25 166.6 232.897 165.296 232.897 163.659C232.897 162.022 233.25 160.719 233.957 159.739C234.663 158.758 235.646 158.273 236.916 158.264C238.186 158.264 239.179 158.749 239.876 159.729C240.583 160.709 240.936 162.013 240.936 163.65C240.945 165.287 240.592 166.59 239.886 167.57ZM234.969 166.638C235.427 167.342 236.076 167.694 236.916 167.694C237.756 167.694 238.415 167.342 238.874 166.638C239.332 165.934 239.561 164.944 239.561 163.659C239.561 162.375 239.332 161.375 238.864 160.671C238.406 159.967 237.747 159.615 236.907 159.615C236.067 159.615 235.417 159.967 234.959 160.671C234.501 161.375 234.272 162.375 234.272 163.669C234.281 164.944 234.51 165.934 234.969 166.638Z" fill="white"/>
<path d="M241.957 168.846V167.713L245.633 163.973C246.616 162.993 247.103 162.156 247.103 161.452C247.103 160.871 246.922 160.414 246.569 160.091C246.216 159.767 245.776 159.605 245.261 159.605C244.277 159.605 243.561 160.072 243.122 161.004L241.957 160.319C242.282 159.643 242.74 159.139 243.323 158.787C243.905 158.444 244.545 158.264 245.251 158.264C246.12 158.264 246.884 158.549 247.533 159.12C248.182 159.691 248.497 160.462 248.507 161.432C248.507 162.479 247.886 163.631 246.645 164.868L243.991 167.513H248.707V168.846H241.957Z" fill="white"/>
<path d="M250.608 170.311L249.834 170.33L255.782 156.988L256.556 156.969L250.608 170.311Z" fill="white"/>
<path d="M261.827 162.708C262.619 162.86 263.278 163.193 263.784 163.735C264.29 164.268 264.548 164.944 264.548 165.772C264.548 166.781 264.204 167.58 263.507 168.16C262.81 168.741 261.97 169.036 260.977 169.036C260.184 169.036 259.478 168.855 258.867 168.494C258.256 168.132 257.817 167.609 257.559 166.933L258.724 166.248C259.029 167.209 259.783 167.685 260.986 167.685C261.636 167.685 262.161 167.513 262.562 167.18C262.963 166.847 263.173 166.371 263.173 165.772C263.173 165.172 262.972 164.697 262.562 164.354C262.151 164.011 261.626 163.84 260.986 163.84H260.633L260.079 162.993L262.495 159.739H257.864V158.444H264.118L264.109 159.653L261.827 162.708Z" fill="white"/>
<path d="M272.749 167.551C272.043 168.532 271.059 169.026 269.789 169.026C268.52 169.026 267.527 168.541 266.83 167.561C266.123 166.581 265.77 165.277 265.77 163.64C265.77 162.003 266.123 160.7 266.82 159.72C267.517 158.739 268.51 158.254 269.78 158.245C271.05 158.245 272.043 158.73 272.749 159.71C273.456 160.69 273.809 161.994 273.809 163.631C273.809 165.268 273.456 166.571 272.749 167.551ZM267.842 166.619C268.3 167.323 268.949 167.675 269.789 167.675C270.63 167.675 271.288 167.323 271.747 166.619C272.205 165.915 272.434 164.925 272.434 163.631C272.434 162.337 272.205 161.347 271.737 160.643C271.279 159.938 270.62 159.577 269.78 159.586C268.94 159.586 268.281 159.938 267.832 160.643C267.374 161.347 267.145 162.346 267.145 163.64C267.154 164.925 267.383 165.915 267.842 166.619Z" fill="white"/>
<path d="M268.758 54.3372C275.639 54.3372 281.218 48.7772 281.218 41.9186C281.218 35.06 275.639 29.5 268.758 29.5C261.876 29.5 256.298 35.06 256.298 41.9186C256.298 48.7772 261.876 54.3372 268.758 54.3372Z" fill="white"/>
<path d="M285.379 54.3279C278.505 54.3279 272.92 48.7609 272.91 41.9188C272.901 35.0766 278.496 29.5002 285.36 29.4906C292.235 29.4906 297.82 35.0576 297.83 41.8998C297.839 48.7419 292.254 54.3184 285.379 54.3279ZM285.37 33.6302C280.787 33.6302 277.063 37.351 277.063 41.9093C277.063 46.4675 280.797 50.1883 285.37 50.1883C289.953 50.1883 293.676 46.4675 293.676 41.9093C293.676 37.332 289.953 33.6207 285.37 33.6302Z" fill="white"/>
<defs>
<linearGradient id="paint0_linear_437_6584" x1="35.0721" y1="225.66" x2="284.104" y2="-24.4701" gradientUnits="userSpaceOnUse">
<stop stop-color="#FF2F13"/>
<stop offset="1" stop-color="#EE8A23"/>
</linearGradient>
<linearGradient id="paint1_linear_437_6584" x1="-68.9288" y1="179.696" x2="-38.7474" y2="67.03" gradientUnits="userSpaceOnUse">
<stop stop-color="#FF8200"/>
<stop offset="1" stop-color="#FFCC97"/>
<stop offset="1" stop-color="#FF8B13"/>
</linearGradient>
<linearGradient id="paint2_linear_437_6584" x1="-37.3779" y1="123.305" x2="63.5663" y2="21.9155" gradientUnits="userSpaceOnUse">
<stop stop-color="#FF8200"/>
<stop offset="1" stop-color="#FFCC97"/>
<stop offset="1" stop-color="#FF8B13"/>
</linearGradient>
<linearGradient id="paint3_linear_437_6584" x1="50.6643" y1="25.4891" x2="59.882" y2="-14.0212" gradientUnits="userSpaceOnUse">
<stop stop-color="#FF8200"/>
<stop offset="1" stop-color="#FFCC97"/>
<stop offset="1" stop-color="#FF8B13"/>
</linearGradient>
<linearGradient id="paint4_linear_437_6584" x1="128.919" y1="126.867" x2="226.727" y2="-12.4445" gradientUnits="userSpaceOnUse">
<stop stop-color="#FF8200"/>
<stop offset="1" stop-color="#FFCC97"/>
<stop offset="1" stop-color="#FF8B13"/>
</linearGradient>
</defs>
</svg>
