<svg width="24" height="24" viewBox="0 0 24 24" fill="none" xmlns="http://www.w3.org/2000/svg">
<rect width="24" height="24" rx="12" fill="url(#paint0_linear_494_1994)"/>
<path d="M4.61523 15.2821V8.71804C4.61523 6.45226 6.45202 4.61548 8.7178 4.61548H15.2819C17.5477 4.61548 19.3845 6.45226 19.3845 8.71804V15.2821C19.3845 17.5479 17.5477 19.3847 15.2819 19.3847H8.7178C6.45202 19.3847 4.61523 17.5479 4.61523 15.2821Z" fill="white"/>
<path d="M12.0002 14.7692C13.5296 14.7692 14.7694 13.5293 14.7694 11.9999C14.7694 10.4705 13.5296 9.23071 12.0002 9.23071C10.4708 9.23071 9.23096 10.4705 9.23096 11.9999C9.23096 13.5293 10.4708 14.7692 12.0002 14.7692Z" fill="#FFD712"/>
<defs>
<linearGradient id="paint0_linear_494_1994" x1="21.6923" y1="6.92308" x2="-9.03063e-07" y2="19.3846" gradientUnits="userSpaceOnUse">
<stop stop-color="#FFE66B"/>
<stop offset="0.442708" stop-color="#FFD712"/>
<stop offset="0.796875" stop-color="#E9C204"/>
</linearGradient>
</defs>
</svg>
