<svg width="32" height="32" viewBox="0 0 32 32" fill="none" xmlns="http://www.w3.org/2000/svg">
<path d="M22 4H10C6.688 4 4 6.67734 4 9.97899V17.1586V18.3592C4 21.6608 6.688 24.3382 10 24.3382H11.8C12.124 24.3382 12.556 24.5543 12.76 24.8184L14.56 27.2076C15.352 28.2641 16.648 28.2641 17.44 27.2076L19.24 24.8184C19.468 24.5183 19.828 24.3382 20.2 24.3382H22C25.312 24.3382 28 21.6608 28 18.3592V9.97899C28 6.67734 25.312 4 22 4ZM11.2 16.006C10.528 16.006 10 15.4657 10 14.8054C10 14.1451 10.54 13.6048 11.2 13.6048C11.86 13.6048 12.4 14.1451 12.4 14.8054C12.4 15.4657 11.872 16.006 11.2 16.006ZM16 16.006C15.328 16.006 14.8 15.4657 14.8 14.8054C14.8 14.1451 15.34 13.6048 16 13.6048C16.66 13.6048 17.2 14.1451 17.2 14.8054C17.2 15.4657 16.672 16.006 16 16.006ZM20.8 16.006C20.128 16.006 19.6 15.4657 19.6 14.8054C19.6 14.1451 20.14 13.6048 20.8 13.6048C21.46 13.6048 22 14.1451 22 14.8054C22 15.4657 21.472 16.006 20.8 16.006Z" fill="white"/>
</svg>
