<svg width="24" height="24" viewBox="0 0 24 24" fill="none" xmlns="http://www.w3.org/2000/svg">
<path d="M22.0007 12.0064C22.0007 6.48731 17.5231 2.01274 12.0003 2.01274C6.47755 2.01274 2 6.48731 2 12.0064C2 17.5255 6.47755 22.0001 12.0003 22.0001C17.5231 22.0001 22.0007 17.5255 22.0007 12.0064Z" stroke="#A5A29A" stroke-width="1.5" stroke-miterlimit="10"/>
<path d="M16.485 9.05775L16.4838 9.05895L16.4838 9.05895C16.3857 9.15645 16.3043 9.27646 16.1678 9.48013L16.1654 9.48362C16.043 9.66625 15.8726 9.92058 15.6324 10.1462C15.3543 10.4079 15.2229 10.6213 15.1741 10.7976C15.1313 10.9524 15.13 11.1556 15.2785 11.4608L16.485 9.05775ZM16.485 9.05775C16.52 9.02285 16.5904 8.97722 16.7535 8.93438C16.8774 8.90185 16.9895 8.88456 17.1327 8.86249C17.2048 8.85137 17.2848 8.83905 17.378 8.82295L16.485 9.05775ZM15.3213 11.5423C15.0874 11.0569 15.3409 10.5797 15.518 10.3293L15.519 10.3279C15.6364 10.1627 15.7828 10.0311 15.868 9.95444L15.8694 9.95316C15.8737 9.94934 15.8778 9.94562 15.8819 9.94199L15.3213 11.5423ZM15.3213 11.5423C15.3064 11.5158 15.2921 11.4887 15.2786 11.461L15.3213 11.5423ZM17.0024 9.7285L16.5367 9.14063C16.689 9.01994 16.8748 8.9568 16.965 8.92776C17.0863 8.88871 17.2203 8.85611 17.3485 8.83149C17.4765 8.8069 17.6148 8.78718 17.7452 8.77873C17.846 8.7722 18.0433 8.7637 18.2324 8.8218L18.0197 9.51403L18.2324 8.8218C18.3955 8.87193 18.5229 8.9551 18.6063 9.01745C18.6929 9.08223 18.7681 9.15222 18.8234 9.2058C18.8519 9.2335 18.8794 9.26092 18.9025 9.28407L18.9075 9.28907C18.9297 9.31127 18.9476 9.32921 18.965 9.34617C18.9988 9.37918 19.0136 9.39171 19.0165 9.39408C19.017 9.39455 19.0171 9.39463 19.0168 9.39439L19.0228 9.39879L19.0227 9.39882C19.2323 9.55659 19.4766 9.66208 19.7352 9.70654C19.9039 9.72895 20.2629 9.68956 20.5754 9.55058C20.7258 9.48371 20.818 9.41403 20.8637 9.36336C20.8807 9.34449 20.8875 9.33246 20.8896 9.32806L20.8896 9.32521C20.8894 9.32522 20.8873 9.29559 20.8648 9.22674C20.8611 9.21564 20.8572 9.20419 20.8529 9.19236C20.7228 9.34565 20.5157 9.53815 20.2141 9.62221C19.7619 9.74823 19.3495 9.57408 19.027 9.34889C18.8991 9.2597 18.791 9.16575 18.7045 9.08722C18.6624 9.04906 18.6301 9.01907 18.6016 8.99255C18.5612 8.95505 18.5283 8.92449 18.4858 8.88755C18.3678 8.78499 18.308 8.75536 18.2522 8.74166L17.0024 9.7285ZM17.0024 9.7285L16.5367 9.14063C16.428 9.22677 16.3487 9.32315 16.2958 9.39478C16.2414 9.46841 16.1956 9.54269 16.1621 9.59838C16.1442 9.6281 16.1312 9.65019 16.1199 9.66925C16.105 9.69459 16.0932 9.7146 16.0774 9.7401C16.0569 9.77306 16.0481 9.7845 16.0482 9.78454C16.0482 9.78454 16.0482 9.78454 16.0482 9.78453L17.0024 9.7285ZM17.553 8.7923C17.4991 8.80182 17.441 8.81208 17.378 8.82295L17.553 8.7923ZM17.553 8.7923C17.9072 8.72974 18.0795 8.69931 18.2522 8.74165L17.553 8.7923ZM19.4086 13.7927L19.4086 13.7923C19.4164 13.3963 19.3595 12.9811 19.116 12.6486C18.8434 12.2762 18.4554 12.1607 18.1466 12.1378C17.8661 12.117 17.5736 12.1661 17.3668 12.2018C17.3329 12.2077 17.3002 12.2134 17.2686 12.2189C17.0758 12.2526 16.9207 12.2797 16.7668 12.29C16.2992 12.3202 15.8761 12.1661 15.5745 11.8721C15.6819 11.9641 15.7955 12.0233 15.8893 12.0615C16.0453 12.125 16.2037 12.1543 16.3348 12.1691C16.8055 12.2224 17.3838 12.1311 17.5833 12.0996C17.5919 12.0982 17.5998 12.097 17.6069 12.0959L17.6073 12.0958C18.2491 11.9949 18.7875 12.1323 19.1256 12.4984C19.2987 12.6862 19.3566 12.8477 19.3851 13.0492C19.4017 13.1663 19.4079 13.2957 19.4127 13.4683C19.4133 13.4911 19.4139 13.5149 19.4146 13.5394C19.4185 13.6888 19.4231 13.8672 19.4382 14.0522L19.4382 14.0528C19.4644 14.3705 19.57 14.6579 19.6403 14.8493L19.6412 14.8517L19.6415 14.8524C19.7235 15.0757 19.7679 15.1966 19.7857 15.3123C19.8096 15.468 19.8131 15.5941 19.8175 15.7578C19.8204 15.8615 19.8236 15.9803 19.8327 16.1312C19.84 16.2512 19.8597 16.3707 19.8763 16.4632C19.8856 16.5148 19.893 16.5542 19.8999 16.5904C19.9084 16.6356 19.916 16.6757 19.9249 16.728C19.9346 16.7849 19.9407 16.8291 19.944 16.8635C19.9279 16.8834 19.9125 16.9016 19.8932 16.9245C19.8906 16.9276 19.8879 16.9308 19.8851 16.9341C19.8435 16.6859 19.8151 16.4284 19.7962 16.1694L19.7961 16.1686C19.7917 16.1087 19.7882 16.0413 19.7845 15.968C19.7678 15.6426 19.7453 15.2011 19.6043 14.7766C19.4639 14.3521 19.4017 14.128 19.4086 13.7927Z" stroke="#A5A29A" stroke-width="1.5"/>
<path d="M12.7829 15.0775L12.7828 15.077C12.7289 14.8504 12.5346 14.628 12.071 14.3503C11.8925 14.2433 11.7072 14.1467 11.5039 14.0407C11.4508 14.013 11.3965 13.9846 11.3407 13.9553C11.0883 13.8225 10.8024 13.6671 10.5538 13.4833L10.5536 13.4831C10.4128 13.3788 10.2809 13.2643 10.1725 13.17L10.1677 13.1658C10.054 13.0669 9.96279 12.9876 9.87093 12.9175C9.68579 12.7764 9.57666 12.7365 9.4915 12.7304L9.49093 12.7304C9.43072 12.7261 9.38579 12.7279 9.3077 12.7311C9.2722 12.7325 9.22985 12.7342 9.1761 12.7357C9.12365 12.7372 9.0641 12.7381 8.99867 12.736C9.15085 12.7598 9.29315 12.7861 9.37312 12.8028L12.7829 15.0775ZM12.7829 15.0775C12.9125 15.6211 12.811 16.2441 12.5183 16.6793M12.7829 15.0775L13.1403 17.0983M8.62374 12.6887C8.60896 12.6853 8.59406 12.6816 8.57904 12.6777L8.62374 12.6887ZM8.62374 12.6887C8.61321 12.6878 8.60275 12.687 8.5924 12.6862L8.59029 12.686C8.53841 12.6822 8.42027 12.6734 8.29452 12.689C8.2862 12.6881 8.27774 12.6873 8.26916 12.6867C8.17131 12.6796 8.01746 12.6883 7.85647 12.7758C7.68972 12.8664 7.59116 13.0002 7.53816 13.1107C7.49006 13.211 7.47557 13.2988 7.47015 13.3421C7.46669 13.3696 7.46521 13.3939 7.46462 13.4133C7.43387 13.5293 7.42335 13.642 7.42096 13.7373C7.37771 13.5038 7.29928 13.2611 7.16179 13.0258C7.44287 12.9571 7.65956 12.8221 7.79741 12.7344C8.05463 12.5708 8.1029 12.5411 8.14153 12.533C8.14878 12.5347 8.1618 12.5381 8.1825 12.5449C8.21014 12.554 8.2334 12.5626 8.2687 12.5757C8.28561 12.582 8.30528 12.5893 8.32952 12.5982C8.39354 12.6216 8.47997 12.6522 8.5785 12.6776L8.62374 12.6887ZM4.7898 11.0655C4.77772 10.8961 4.79304 10.7235 4.84622 10.5534C4.93039 10.2842 5.09184 10.078 5.27875 9.92988C5.40178 9.83238 5.53645 9.75936 5.67242 9.70435C5.62399 9.7178 5.5747 9.73158 5.52429 9.74568C5.44519 9.7678 5.36332 9.7907 5.27769 9.8143L4.7898 11.0655ZM4.7898 11.0655C4.63585 10.7754 4.4704 10.5029 4.31838 10.2526C4.27919 10.188 4.24088 10.125 4.2039 10.0634C3.95227 9.6448 3.74531 9.2732 3.60888 8.87235M4.7898 11.0655L3.60888 8.87235M6.22233 9.56154C6.26842 9.55487 6.31254 9.54954 6.35411 9.54518C6.36419 9.54412 6.37506 9.54294 6.38666 9.54168C6.58286 9.52033 6.98957 9.47608 7.37375 9.62125C7.38827 9.62668 7.40255 9.6323 7.4166 9.63811C7.4167 9.57732 7.42012 9.51391 7.42839 9.44879C7.4885 8.97526 7.76785 8.64509 8.12415 8.37048L8.12554 8.36941C8.15521 8.34665 8.18201 8.32625 8.20669 8.30748C8.27372 8.25646 8.32504 8.2174 8.37544 8.17552C8.43962 8.12219 8.46996 8.09 8.48494 8.07088C8.48769 8.06736 8.4896 8.06471 8.49087 8.06284C8.49155 8.05553 8.49207 8.03973 8.48894 8.01275L6.22233 9.56154ZM6.22233 9.56154C6.34725 9.53271 6.47346 9.50691 6.60627 9.48449L6.60748 9.48428C6.65043 9.47696 6.67886 9.47346 6.71041 9.46959C6.71333 9.46923 6.71628 9.46887 6.71927 9.4685C6.72032 9.46837 6.72181 9.4682 6.72371 9.46798C6.74941 9.46505 6.84986 9.45359 6.95283 9.41721C7.09465 9.36709 7.19243 9.2918 7.25182 9.24034C7.28831 9.20871 7.33142 9.1666 7.36074 9.13795C7.3662 9.13262 7.37119 9.12775 7.37556 9.1235L7.37667 9.12242C7.50408 8.99819 7.6004 8.85597 7.65428 8.77642C7.65627 8.77347 7.65821 8.77062 7.66008 8.76785C7.72928 8.66579 7.75139 8.63526 7.76916 8.61643L7.76917 8.61645L7.77272 8.61264C7.97191 8.39867 8.1427 8.16305 8.24416 7.86383C8.34293 7.57253 8.35401 7.28412 8.34237 7.00643L6.22233 9.56154ZM9.73293 20.7342C9.74371 20.7761 9.75373 20.8121 9.76401 20.8445C9.7707 20.8656 9.77672 20.8826 9.78185 20.8959C9.7821 20.8961 9.78236 20.8962 9.78262 20.8964C9.79771 20.9047 9.81695 20.9154 9.84491 20.9313C9.87001 20.9456 9.90945 20.9685 9.94965 20.9955C9.96243 21.0042 9.98768 21.0212 10.0189 21.0463C10.0528 21.0568 10.0789 21.0644 10.1048 21.0709C10.126 21.0762 10.1355 21.0775 10.1355 21.0775C10.1355 21.0775 10.1247 21.0761 10.1061 21.0765C10.096 21.0767 10.0798 21.0776 10.0592 21.0806C10.0868 21.1055 10.1165 21.1354 10.1451 21.1702C10.1937 21.2291 10.3494 21.4452 10.3245 21.7306C10.4473 21.5753 10.4582 21.2748 10.467 21.0283C10.4707 20.9275 10.474 20.8358 10.4845 20.7666C10.6013 20.0027 10.984 19.2556 11.5004 18.6838C11.7114 18.4504 11.9548 18.2482 12.1982 18.046C12.543 17.7596 12.8878 17.4732 13.1403 17.0983M9.73293 20.7342C9.73568 20.7072 9.73897 20.6803 9.74295 20.6541L9.74307 20.6533C9.88452 19.7283 10.3404 18.8492 10.9437 18.1812L10.9441 18.1808C11.1948 17.9036 11.4881 17.6604 11.7314 17.4586C11.7788 17.4193 11.8243 17.3815 11.8673 17.3454C12.1534 17.1047 12.3656 16.906 12.5183 16.6793M9.73293 20.7342C9.7285 20.7777 9.72549 20.8213 9.7233 20.8617M9.73293 20.7342C9.73011 20.7232 9.72723 20.7118 9.72428 20.7C9.72033 20.6842 9.71524 20.6633 9.70966 20.6404C9.69974 20.5997 9.68826 20.5527 9.67891 20.5164C9.67873 20.5157 9.67856 20.515 9.67838 20.5143L8.95219 20.7018L9.7233 20.8617M12.5183 16.6793C12.5182 16.6794 12.5182 16.6795 12.5181 16.6795L13.1403 17.0983M12.5183 16.6793L13.1403 17.0983M9.7233 20.8617C9.72132 20.8984 9.72002 20.9325 9.71895 20.9617C9.70062 20.9579 9.68146 20.9542 9.66172 20.951L9.64428 21.0572L9.64408 21.0584L9.54995 21.6316C9.54077 21.6243 9.52936 21.6165 9.51632 21.6083C9.49312 21.5937 9.46473 21.5779 9.43448 21.561C9.41188 21.5484 9.38824 21.5352 9.36495 21.5216L9.35188 21.3002L9.35186 21.2999L9.3324 20.9704C9.30647 20.9779 9.24916 20.9962 9.18159 21.0359C9.15167 21.0535 9.11012 21.081 9.06567 21.1211L9.7233 20.8617ZM9.7233 20.8617C9.7184 20.8586 9.71627 20.857 9.71641 20.8569C9.71656 20.8569 9.71902 20.8585 9.7233 20.8617ZM3.60888 8.87235C3.60931 8.8733 3.60974 8.87426 3.61018 8.87521C3.70525 9.08557 3.86114 9.38005 4.13065 9.59411C4.44971 9.84753 4.8536 9.93129 5.27725 9.81442L3.60888 8.87235ZM7.19106 4.79792C7.17361 5.16129 7.35214 5.45086 7.53437 5.64967L7.53441 5.64972C7.96712 6.12172 8.55311 6.11521 8.92269 6.03882C9.3027 5.96027 9.65183 5.7773 9.88645 5.61163L7.19106 4.79792ZM7.19106 4.79792L7.15948 4.83331C7.16031 4.93605 7.17387 5.03854 7.20003 5.13843C7.24305 5.30265 7.31924 5.45637 7.42395 5.59013L7.4254 5.59199L7.4254 5.59199C7.45048 5.62424 7.48757 5.66175 7.55473 5.71875C7.56603 5.72834 7.58501 5.74394 7.6083 5.76308C7.66832 5.8124 7.75698 5.88527 7.81673 5.93956C8.04391 6.14599 8.32024 6.47476 8.34235 7.00589L7.19106 4.79792ZM7.46963 14.333C7.46994 14.3354 7.47025 14.3378 7.47056 14.3402C7.48486 14.4495 7.49213 14.5051 7.49125 14.5496L7.49123 14.5506C7.49124 14.5505 7.49124 14.5505 7.49122 14.5507C7.49116 14.5522 7.4908 14.5603 7.48925 14.5782C7.48748 14.5987 7.48494 14.6234 7.48141 14.6563C7.48073 14.6626 7.48002 14.6692 7.47927 14.6762C7.4729 14.7352 7.46429 14.815 7.45872 14.8951C7.45257 14.9835 7.448 15.0984 7.45794 15.2175C7.46688 15.3247 7.49236 15.5067 7.59386 15.6867L7.46963 14.333ZM7.46963 14.333C7.46913 14.4652 7.46285 14.5871 7.45733 14.6942L7.45713 14.6981C7.43101 15.205 7.42057 15.4523 7.51235 15.6631L7.46963 14.333ZM9.44398 5.94647L9.44411 5.94639C9.70033 5.77937 10.0399 5.68702 10.2542 5.62904C10.3089 5.61425 10.3607 5.60049 10.41 5.58739C10.5412 5.5525 10.6546 5.52236 10.7564 5.49042C10.6808 5.39354 10.5995 5.2962 10.5156 5.21087C10.4735 5.16816 10.436 5.13382 10.4035 5.10712C10.3805 5.13132 10.3578 5.15682 10.329 5.18925C10.3057 5.21544 10.2783 5.24614 10.2436 5.28432C10.1632 5.3727 10.0414 5.50222 9.88688 5.61132L9.44398 5.94647ZM9.44398 5.94647C9.43827 5.95019 9.43235 5.95405 9.42622 5.95804C9.32364 6.02485 9.1645 6.1285 9.01443 6.24902C8.86708 6.36736 8.65288 6.55986 8.51868 6.82161L9.44398 5.94647ZM9.68757 21.3477C9.68684 21.35 9.68688 21.3494 9.68795 21.3464L9.68757 21.3477ZM9.17931 17.3834C9.18096 17.3928 9.1839 17.4097 9.1881 17.4365C9.19005 17.449 9.19228 17.4636 9.19475 17.4797C9.2027 17.5317 9.21307 17.5994 9.22411 17.6623C9.2383 17.743 9.25985 17.8539 9.29299 17.9592C9.30939 18.0114 9.33602 18.0864 9.37861 18.1649C9.41286 18.228 9.50438 18.3834 9.68992 18.4934L9.69032 18.4937C10.0813 18.7251 10.4468 18.556 10.576 18.4792C10.7174 18.3951 10.824 18.2844 10.8817 18.2214C10.9442 18.1531 11.0022 18.0807 11.0398 18.0337L11.0446 18.0277C11.0834 17.9792 11.0958 17.9648 11.0956 17.9646C11.0956 17.9645 11.0955 17.9646 11.0953 17.9648C11.2079 17.854 11.3285 17.7598 11.4831 17.6391C11.5633 17.5765 11.6526 17.5069 11.7546 17.424C12.0131 17.2141 12.3429 16.9245 12.5613 16.5349L12.5614 16.5348C12.7604 16.1797 12.9021 15.739 12.7602 15.2764C12.6206 14.8216 12.2675 14.5474 11.9597 14.377L11.9569 14.3755C11.343 14.0391 10.7949 13.7282 10.3059 13.3362L10.3047 13.3353C10.292 13.3252 10.2749 13.3101 10.2536 13.2914C10.1153 13.1696 9.79962 12.8916 9.37359 12.8029L9.17931 17.3834ZM9.75716 17.2272C9.75715 17.2271 9.75797 17.2263 9.75958 17.2249C9.75796 17.2265 9.75716 17.2272 9.75716 17.2272ZM7.85259 14.0911C7.85322 14.0914 7.8543 14.0921 7.85582 14.0929C7.8511 14.0903 7.8494 14.0893 7.85259 14.0911ZM8.15371 16.1934C8.16005 16.1971 8.16673 16.2009 8.17366 16.2048C8.08715 16.1454 8.00634 16.0936 7.93907 16.0506C7.9185 16.0374 7.89919 16.025 7.88137 16.0135C7.88925 16.0197 7.89669 16.0254 7.90361 16.0307C7.99143 16.0975 8.08358 16.153 8.15371 16.1934ZM8.64784 16.5935C8.64734 16.593 8.64683 16.5925 8.64633 16.592C8.64582 16.5915 8.64531 16.5909 8.6448 16.5904L8.10937 17.1156L8.64784 16.5935ZM7.46784 13.509C7.46761 13.5064 7.46739 13.5037 7.46719 13.5009C7.46741 13.5038 7.46763 13.5065 7.46784 13.509ZM8.5777 12.778C8.57917 12.7788 8.58039 12.7795 8.58128 12.78L8.5807 12.7797L8.5777 12.778ZM7.52933 10.5271C7.52926 10.5271 7.52942 10.5253 7.53002 10.5219C7.5297 10.5255 7.5294 10.5272 7.52933 10.5271ZM8.14439 10.1858C8.14442 10.1859 8.14262 10.1852 8.13891 10.1834C8.1425 10.1848 8.14436 10.1857 8.14439 10.1858ZM3.36704 8.34769C3.36703 8.34768 3.36709 8.34785 3.36721 8.34819C3.36718 8.34811 3.36715 8.34803 3.36713 8.34795C3.36707 8.34779 3.36704 8.3477 3.36704 8.34769Z" stroke="#A5A29A" stroke-width="1.5"/>
<path d="M10.6408 2.8621C10.7581 2.8448 10.8759 2.82975 10.994 2.81698L10.9944 2.81693C11.0958 2.8059 11.1974 2.79657 11.2991 2.78894C11.3152 2.87382 11.3323 2.95111 11.3461 3.01355C11.3536 3.04755 11.3601 3.07714 11.365 3.10115C11.4024 3.28531 11.3984 3.34849 11.3934 3.37146C11.3922 3.37241 11.3905 3.37361 11.3883 3.37496C11.3814 3.37905 11.3719 3.38295 11.3607 3.38502C11.3497 3.38706 11.34 3.38682 11.3323 3.38543L11.3322 3.38542C11.2899 3.37775 11.2424 3.35956 11.1491 3.28621C11.0976 3.24574 11.0461 3.19987 10.9708 3.13285L10.9691 3.13136C10.8993 3.06926 10.8091 2.98912 10.7082 2.91121C10.6858 2.89379 10.6633 2.87744 10.6408 2.8621Z" stroke="#A5A29A" stroke-width="1.5"/>
<path d="M16.9516 4.86291C16.9516 4.86292 16.9513 4.86307 16.9506 4.86333L16.9516 4.86291ZM16.5569 4.84561C16.557 4.84558 16.5584 4.84609 16.5609 4.84726C16.5581 4.84624 16.5568 4.84565 16.5569 4.84561ZM16.9219 5.14153L17.5183 4.97474C17.65 5.44656 17.2356 5.62913 16.8274 5.62913C16.5553 5.62913 15.9822 5.57436 16.0211 5.18615L16.9219 5.14153Z" stroke="#A5A29A" stroke-width="1.5"/>
<path d="M20.1944 7.34682C20.2906 7.21278 20.4208 7.01386 20.3771 6.83945C20.3521 6.73848 20.2694 6.63344 20.19 6.53259C20.1413 6.47076 20.0939 6.4105 20.0617 6.35371M20.1944 7.34682L16.5015 7.69372C16.1717 7.49577 15.9736 6.83801 16.3217 6.56415C16.4198 6.48571 16.5457 6.46084 16.6675 6.43682C16.7008 6.43023 16.7339 6.42371 16.7659 6.41616C17.0366 6.35226 17.1871 6.23455 17.3207 5.98807C17.4547 5.74001 17.6548 5.55323 17.8585 5.36315C17.9428 5.28447 18.0277 5.20522 18.1087 5.12083M20.1944 7.34682L20.1166 7.29063C20.1164 7.28875 20.1163 7.28683 20.1161 7.28488L20.1155 7.27897C20.1109 7.23006 20.1033 7.1479 20.0868 7.06187C20.0779 7.01559 20.0666 6.96851 20.0522 6.92094C20.0522 6.92065 20.0521 6.92036 20.052 6.92007C20.009 6.77796 19.9386 6.63161 19.8237 6.48973L20.0617 6.35371M20.1944 7.34682L20.1167 7.29106C20.1217 7.34433 20.1245 7.37243 20.1291 7.40028C20.128 7.39365 20.1174 7.33662 20.0688 7.26284C20.0662 7.25888 20.0635 7.25492 20.0608 7.25097L19.7564 7.03261C19.7289 7.02429 19.7027 7.01857 19.6781 7.0148C19.6764 7.01453 19.6747 7.01428 19.673 7.01404C19.6641 7.01276 19.6554 7.01173 19.647 7.01093C19.6477 7.01391 19.6484 7.01692 19.6491 7.01995L19.823 6.48889L20.0617 6.35371M20.0617 6.35371C20.0009 6.24726 19.9427 6.13653 19.884 6.02487C19.7043 5.68293 19.5201 5.33225 19.241 5.06894C18.8847 4.73262 18.4467 4.77154 18.1087 5.12083M18.1087 5.12083L18.6477 5.64237C18.6479 5.64221 18.648 5.64204 18.6482 5.64188C18.6717 5.61767 18.6906 5.60322 18.7034 5.59496C18.7096 5.59958 18.7172 5.60586 18.7261 5.61431L18.7263 5.61445C18.8224 5.70513 18.9131 5.82738 19.0125 5.99424C18.9051 5.97007 18.7946 5.95766 18.6829 5.95781M18.1087 5.12083L18.239 6.03532C18.3686 5.98743 18.516 5.95777 18.6829 5.95781M18.6829 5.95781C18.6825 5.95781 18.6821 5.95781 18.6817 5.95781L18.6833 6.70781L18.6841 5.95781C18.6837 5.95781 18.6833 5.95781 18.6829 5.95781Z" stroke="#A5A29A" stroke-width="1.5"/>
</svg>
