<svg width="24" height="24" viewBox="0 0 24 24" fill="none" xmlns="http://www.w3.org/2000/svg">
<path fill-rule="evenodd" clip-rule="evenodd" d="M15.5004 2.75C15.5004 2.33579 15.1646 2 14.7504 2C14.3362 2 14.0004 2.33579 14.0004 2.75V3.94766H10.6252C10.211 3.94766 9.87523 4.28344 9.87523 4.69766C9.87523 5.11187 10.211 5.44766 10.6252 5.44766H14.0004V6.64531C14.0004 7.05953 14.3362 7.39531 14.7504 7.39531C15.1646 7.39531 15.5004 7.05953 15.5004 6.64531V4.69766V2.75ZM19.5013 9.79063H4.5V6.64537C4.5 5.94056 5.02712 5.44772 5.58339 5.44772H6.66676V6.64531C6.66676 7.05953 7.00255 7.39531 7.41676 7.39531C7.83097 7.39531 8.16676 7.05953 8.16676 6.64531V4.70428L8.16679 4.69772L8.16676 4.69115V2.75C8.16676 2.33579 7.83097 2 7.41676 2C7.00255 2 6.66676 2.33579 6.66676 2.75V3.94772H5.58339C4.11455 3.94772 3 5.19886 3 6.64537V10.5406V10.5407V19.3051C3 20.7516 4.11456 22.0027 5.58339 22.0027H18.4172C19.886 22.0027 21.0005 20.7516 21.0005 19.3051V10.5755C21.0011 10.564 21.0013 10.5524 21.0013 10.5407V6.64537C21.0013 5.1986 19.8863 3.94772 18.4173 3.94772H17.9588C17.5446 3.94772 17.2088 4.2835 17.2088 4.69772C17.2088 5.11193 17.5446 5.44772 17.9588 5.44772H18.4173C18.9742 5.44772 19.5013 5.94082 19.5013 6.64537V9.79063ZM4.5 19.3051V11.2906H19.5005V19.3051C19.5005 20.0099 18.9734 20.5027 18.4172 20.5027H5.58339C5.02712 20.5027 4.5 20.0099 4.5 19.3051Z" fill="#A5A29A"/>
</svg>
