<svg width="32" height="32" viewBox="0 0 32 32" fill="none" xmlns="http://www.w3.org/2000/svg">
<rect x="0.5" y="0.5" width="31" height="31" rx="3.5" fill="#EEEEED"/>
<path d="M14.3333 10V10.6667H11V12H11.6667V20.6667C11.6667 21.0203 11.8071 21.3594 12.0572 21.6095C12.3072 21.8595 12.6464 22 13 22H19.6667C20.0203 22 20.3594 21.8595 20.6095 21.6095C20.8595 21.3594 21 21.0203 21 20.6667V12H21.6667V10.6667H18.3333V10H14.3333ZM13 12H19.6667V20.6667H13V12ZM14.3333 13.3333V19.3333H15.6667V13.3333H14.3333ZM17 13.3333V19.3333H18.3333V13.3333H17Z" fill="#1F1F1F"/>
<rect x="0.5" y="0.5" width="31" height="31" rx="3.5" stroke="#EEEEED"/>
</svg>
