<svg width="24" height="24" viewBox="0 0 24 24" fill="none" xmlns="http://www.w3.org/2000/svg">
<mask id="path-1-inside-1_437_7453" fill="white">
<path fill-rule="evenodd" clip-rule="evenodd" d="M11.9559 7.00003C13.5881 7.00003 14.9118 5.65687 14.9118 4.00003C14.9118 2.34319 13.5881 1.00003 11.9559 1.00003C10.3236 1.00003 9 2.34319 9 4.00003C9 5.65687 10.3236 7.00003 11.9559 7.00003ZM11.9559 15C13.5881 15 14.9118 13.6566 14.9118 12C14.9118 10.3434 13.5881 9.00003 11.9559 9.00003C10.3236 9.00003 9 10.3434 9 12C9 13.6566 10.3236 15 11.9559 15ZM14.9118 20C14.9118 21.6566 13.5881 23 11.9559 23C10.3236 23 9 21.6566 9 20C9 18.3434 10.3236 17 11.9559 17C13.5881 17 14.9118 18.3434 14.9118 20Z"/>
</mask>
<path fill-rule="evenodd" clip-rule="evenodd" d="M11.9559 7.00003C13.5881 7.00003 14.9118 5.65687 14.9118 4.00003C14.9118 2.34319 13.5881 1.00003 11.9559 1.00003C10.3236 1.00003 9 2.34319 9 4.00003C9 5.65687 10.3236 7.00003 11.9559 7.00003ZM11.9559 15C13.5881 15 14.9118 13.6566 14.9118 12C14.9118 10.3434 13.5881 9.00003 11.9559 9.00003C10.3236 9.00003 9 10.3434 9 12C9 13.6566 10.3236 15 11.9559 15ZM14.9118 20C14.9118 21.6566 13.5881 23 11.9559 23C10.3236 23 9 21.6566 9 20C9 18.3434 10.3236 17 11.9559 17C13.5881 17 14.9118 18.3434 14.9118 20Z" fill="#A5A29A"/>
<path d="M13.9118 4.00003C13.9118 5.11855 13.022 6.00003 11.9559 6.00003V8.00003C14.1543 8.00003 15.9118 6.19519 15.9118 4.00003H13.9118ZM11.9559 2.00003C13.022 2.00003 13.9118 2.88151 13.9118 4.00003H15.9118C15.9118 1.80487 14.1543 3.05176e-05 11.9559 3.05176e-05V2.00003ZM10 4.00003C10 2.88151 10.8898 2.00003 11.9559 2.00003V3.05176e-05C9.7575 3.05176e-05 8 1.80487 8 4.00003H10ZM11.9559 6.00003C10.8898 6.00003 10 5.11855 10 4.00003H8C8 6.19519 9.7575 8.00003 11.9559 8.00003V6.00003ZM13.9118 12C13.9118 13.1184 13.0219 14 11.9559 14V16C14.1543 16 15.9118 14.1949 15.9118 12H13.9118ZM11.9559 10C13.0219 10 13.9118 10.8817 13.9118 12H15.9118C15.9118 9.80516 14.1543 8.00003 11.9559 8.00003V10ZM10 12C10 10.8817 10.8898 10 11.9559 10V8.00003C9.75744 8.00003 8 9.80516 8 12H10ZM11.9559 14C10.8898 14 10 13.1184 10 12H8C8 14.1949 9.75744 16 11.9559 16V14ZM11.9559 24C14.1543 24 15.9118 22.1949 15.9118 20H13.9118C13.9118 21.1184 13.0219 22 11.9559 22V24ZM8 20C8 22.1949 9.75744 24 11.9559 24V22C10.8898 22 10 21.1184 10 20H8ZM11.9559 16C9.75744 16 8 17.8052 8 20H10C10 18.8817 10.8898 18 11.9559 18V16ZM15.9118 20C15.9118 17.8052 14.1543 16 11.9559 16V18C13.0219 18 13.9118 18.8817 13.9118 20H15.9118Z" fill="#A5A29A" mask="url(#path-1-inside-1_437_7453)"/>
</svg>
