<svg width="24" height="24" viewBox="0 0 24 24" fill="none" xmlns="http://www.w3.org/2000/svg">
<path d="M4 15.5556V8.44444C4 5.98985 5.98985 4 8.44444 4H15.5556C18.0101 4 20 5.98985 20 8.44444V15.5556C20 18.0101 18.0101 20 15.5556 20H8.44444C5.98985 20 4 18.0101 4 15.5556Z" stroke="#1F1F1F" stroke-width="1.5"/>
<path d="M16 14.2222C16 14.2222 14.6667 15.9999 12 15.9999C9.33333 15.9999 8 14.2222 8 14.2222" stroke="#1F1F1F" stroke-width="1.5" stroke-linecap="round" stroke-linejoin="round"/>
<path d="M8.88878 10.2221C8.64332 10.2221 8.44434 10.0232 8.44434 9.7777C8.44434 9.53224 8.64332 9.33325 8.88878 9.33325C9.13424 9.33325 9.33322 9.53224 9.33322 9.7777C9.33322 10.0232 9.13424 10.2221 8.88878 10.2221Z" fill="#1F1F1F" stroke="#1F1F1F" stroke-width="1.5" stroke-linecap="round" stroke-linejoin="round"/>
<path d="M15.1105 10.2221C14.865 10.2221 14.666 10.0232 14.666 9.7777C14.666 9.53224 14.865 9.33325 15.1105 9.33325C15.3559 9.33325 15.5549 9.53224 15.5549 9.7777C15.5549 10.0232 15.3559 10.2221 15.1105 10.2221Z" fill="#1F1F1F" stroke="#1F1F1F" stroke-width="1.5" stroke-linecap="round" stroke-linejoin="round"/>
</svg>
