<svg width="16" height="16" viewBox="0 0 16 16" fill="none" xmlns="http://www.w3.org/2000/svg">
<path d="M1.6919 1.68197C1.47889 1.8999 1.47889 2.25324 1.6919 2.47117L13.3076 14.3551C13.5206 14.573 13.866 14.573 14.079 14.3551C14.292 14.1371 14.292 13.7838 14.079 13.5659L2.46329 1.68197C2.25028 1.46404 1.90492 1.46404 1.6919 1.68197Z" fill="#A5A29A"/>
<path d="M0 7.94971C0 7.47677 0.926117 6.08997 2.41741 4.84099L3.17364 5.65042C3.12895 5.68728 3.0847 5.72436 3.04088 5.76165C2.37862 6.32541 1.8517 6.90878 1.49975 7.38636C1.32294 7.62628 1.20252 7.82297 1.13178 7.96307C1.11984 7.98673 1.11028 8.00686 1.10268 8.02364L1.10405 8.02956C1.11671 8.08346 1.13918 8.1558 1.17638 8.24654C1.25153 8.42988 1.37419 8.6578 1.55198 8.91871C1.90776 9.4408 2.44241 10.0337 3.11901 10.5921C4.48342 11.7182 6.2945 12.6001 8.18182 12.6001C8.6394 12.6001 9.08765 12.5454 9.52241 12.4459L10.3814 13.3654C9.68735 13.5869 8.94997 13.7162 8.18182 13.7162C3.76354 13.7162 0 9.62386 0 7.94971Z" fill="#A5A29A"/>
<path d="M5.09091 8.32175C5.09091 8.12846 5.10786 7.93922 5.14032 7.7555L8.59727 11.4557C8.46138 11.4744 8.3227 11.484 8.18182 11.484C6.47476 11.484 5.09091 10.0682 5.09091 8.32175Z" fill="#A5A29A"/>
<path d="M7.43686 5.25192L11.1457 9.22179C11.2284 8.93653 11.2727 8.63444 11.2727 8.32175C11.2727 6.57527 9.88888 5.15947 8.18182 5.15947C7.92498 5.15947 7.67545 5.19152 7.43686 5.25192Z" fill="#A5A29A"/>
<path d="M13.0293 10.5512C12.9137 10.6547 12.7945 10.7562 12.672 10.8554L13.4287 11.6654C15.0201 10.3518 16 8.74864 16 7.94971C16 6.6476 12.4183 2.55524 8 2.55524C7.0852 2.55524 6.20625 2.74663 5.38754 3.0584L6.21983 3.94926C6.79532 3.77277 7.39244 3.67134 8 3.67134C9.88481 3.67134 11.6512 4.55107 12.975 5.63544C13.6315 6.17314 14.1482 6.73668 14.4905 7.21601C14.662 7.45615 14.7779 7.65855 14.8468 7.81131C14.8839 7.89367 14.8997 7.94478 14.9062 7.96803C14.9004 8.00176 14.8832 8.08045 14.8326 8.20962C14.7632 8.38704 14.6495 8.61139 14.4851 8.87028C14.1561 9.38801 13.6609 9.98559 13.0293 10.5512Z" fill="#A5A29A"/>
</svg>
