<svg width="342" height="160" viewBox="0 0 342 160" fill="none" xmlns="http://www.w3.org/2000/svg">
<path d="M189.826 70.9952C189.826 70.9952 189.826 70.9664 189.826 70.9184V70.7072C189.826 70.5152 189.826 70.2432 189.826 69.8976C189.826 69.1872 189.826 68.1632 189.8 66.8768L189.848 66.9248L174.28 66.9536C174.315 66.9184 174.2 67.0336 174.36 66.8768V68.9632C174.36 69.648 174.36 70.3264 174.36 70.9888L174.283 70.9088L185.378 70.944L188.651 70.9664H189.538H189.768C189.796 70.9637 189.824 70.9637 189.851 70.9664H189.781H189.557H188.69L185.4 71.04L174.251 71.0752H174.174V70.9984C174.174 70.336 174.174 69.6576 174.174 68.9728V66.88L174.254 66.8L189.822 66.8288H189.88V66.88C189.88 68.1792 189.861 69.2128 189.854 69.9296C189.854 70.272 189.854 70.5376 189.854 70.7296C189.854 70.8128 189.854 70.88 189.854 70.9312C189.848 70.9537 189.838 70.9752 189.826 70.9952Z" fill="#EEEEED"/>
<path d="M219.771 27.9168C219.768 27.8924 219.768 27.8677 219.771 27.8432C219.771 27.7888 219.771 27.7184 219.771 27.632C219.771 27.4368 219.771 27.168 219.771 26.8192C219.771 26.1088 219.755 25.088 219.746 23.7984L219.794 23.8464L204.226 23.8784C204.261 23.8432 204.146 23.9584 204.302 23.7984V27.9168L204.222 27.84L215.317 27.8752L218.594 27.8976H219.48H219.71H219.794C219.769 27.9006 219.744 27.9006 219.72 27.8976H219.499H218.629L215.371 27.92L204.222 27.9552H204.146V23.8048C204.302 23.648 204.187 23.76 204.226 23.7248L219.794 23.7568H219.842V23.8048C219.842 25.1072 219.819 26.1376 219.813 26.8544C219.813 27.1968 219.813 27.4656 219.813 27.6544C219.813 27.7376 219.813 27.8048 219.813 27.8592C219.801 27.8796 219.787 27.8989 219.771 27.9168Z" fill="#EEEEED"/>
<path d="M277.506 89.6C277.503 89.5756 277.503 89.5509 277.506 89.5264V89.3152C277.506 89.1232 277.506 88.8512 277.506 88.5056C277.506 87.7952 277.506 86.7712 277.48 85.4816L277.528 85.5296L261.96 85.5616L262.04 85.4816V89.6L261.963 89.5232L273.058 89.5584L276.331 89.5808H277.218H277.448H277.531C277.531 89.5808 277.509 89.5808 277.458 89.5808H277.237H276.37L273.112 89.6032L261.963 89.6384H261.883V85.4976L261.963 85.4208L277.531 85.4496H277.56V85.4976C277.56 86.8 277.541 87.8304 277.534 88.5504C277.534 88.8928 277.534 89.1584 277.534 89.3504V89.552C277.526 89.5687 277.516 89.5847 277.506 89.6Z" fill="#EEEEED"/>
<path d="M279.618 85.4944C279.613 85.469 279.613 85.443 279.618 85.4176C279.618 85.3568 279.618 85.2864 279.618 85.2C279.618 84.9952 279.618 84.72 279.618 84.3744C279.618 83.6512 279.602 82.6304 279.589 81.376L279.646 81.4336L270.293 81.456C270.219 81.5264 270.389 81.36 270.37 81.376V83.4944C270.37 84.1856 270.37 84.8512 270.37 85.4912L270.293 85.4176L276.987 85.4528L278.936 85.4752H279.461H279.65C279.593 85.4796 279.536 85.4796 279.48 85.4752H278.968L277.048 85.4976L270.306 85.5328H270.2V85.456C270.2 84.816 270.2 84.1504 270.2 83.4592V81.3408C270.181 81.36 270.35 81.1904 270.28 81.264L279.634 81.2832H279.691V81.3376C279.691 82.6176 279.669 83.6384 279.662 84.368C279.662 84.7104 279.662 84.9824 279.662 85.184C279.653 85.2883 279.639 85.3919 279.618 85.4944Z" fill="#EEEEED"/>
<path d="M132.456 135.878V135.504C132.456 135.258 132.456 134.896 132.456 134.422C132.456 133.462 132.475 132.07 132.488 130.262C132.501 128.454 132.523 126.262 132.546 123.706C132.558 122.426 132.571 121.063 132.584 119.619C132.584 118.173 132.715 116.634 132.418 115.053C132.12 113.397 131.449 111.831 130.456 110.474C130.325 110.298 130.2 110.118 130.062 109.946C129.925 109.773 129.768 109.626 129.621 109.45C129.32 109.116 128.999 108.801 128.661 108.506C128.498 108.349 128.306 108.224 128.126 108.08C127.947 107.936 127.771 107.789 127.57 107.674C127.182 107.415 126.778 107.182 126.36 106.976C125.505 106.546 124.6 106.223 123.666 106.016L122.942 105.898L122.581 105.837L122.213 105.814L121.47 105.766C121.221 105.766 120.971 105.782 120.722 105.792C118.653 105.886 116.65 106.55 114.936 107.712C113.132 108.934 111.718 110.649 110.862 112.653C110.433 113.687 110.151 114.776 110.024 115.888C109.928 117.008 109.954 118.163 109.931 119.318C109.88 123.949 109.826 128.742 109.771 133.654C109.771 134.309 109.764 134.962 109.749 135.613L109.669 135.53L113.096 135.568L113.016 135.648C113.057 131.936 113.098 128.309 113.141 124.768C113.16 123.006 113.18 121.268 113.202 119.555C113.202 118.702 113.211 117.854 113.23 117.011C113.249 116.17 113.389 115.336 113.646 114.534C114.172 112.975 115.161 111.614 116.482 110.634C116.638 110.51 116.802 110.396 116.971 110.291L117.483 109.971C117.831 109.787 118.191 109.629 118.562 109.498C118.928 109.364 119.303 109.257 119.685 109.178C119.874 109.136 120.066 109.12 120.254 109.088L120.539 109.05H120.827C121.579 109.008 122.333 109.071 123.067 109.238C123.783 109.41 124.473 109.674 125.122 110.022C126.966 111.046 128.342 112.745 128.962 114.762C129.142 115.387 129.25 116.031 129.282 116.682C129.282 116.842 129.282 117.002 129.298 117.158C129.314 117.315 129.298 117.478 129.298 117.629C129.298 117.949 129.298 118.25 129.298 118.557C129.298 119.168 129.298 119.77 129.275 120.358C129.243 122.714 129.218 124.877 129.192 126.829C129.138 130.73 129.096 133.782 129.067 135.811L129.045 135.789L131.63 135.83H132.27H132.478H131.64L129.042 135.814H129.019V135.792C129.019 133.763 129.064 130.71 129.099 126.81C129.118 124.858 129.141 122.691 129.163 120.336C129.163 119.747 129.163 119.146 129.182 118.534C129.182 118.214 129.182 117.92 129.182 117.606C129.182 117.453 129.182 117.286 129.182 117.139L129.163 116.669C129.116 115.357 128.726 114.081 128.034 112.966C127.311 111.773 126.289 110.79 125.067 110.115C124.43 109.774 123.751 109.516 123.048 109.347C122.323 109.185 121.579 109.124 120.837 109.168H120.555L120.277 109.21C120.088 109.238 119.899 109.254 119.714 109.296C118.962 109.456 118.235 109.718 117.554 110.074L117.051 110.374C116.885 110.472 116.725 110.579 116.571 110.694C115.273 111.66 114.303 113 113.79 114.534C113.538 115.321 113.403 116.14 113.387 116.966C113.387 117.807 113.378 118.655 113.358 119.51C113.339 121.217 113.32 122.955 113.301 124.723C113.262 128.243 113.221 131.882 113.179 135.603V135.683H113.099L109.669 135.645H109.589V135.565C109.589 134.925 109.596 134.272 109.611 133.606C109.669 128.698 109.723 123.904 109.778 119.27C109.8 118.112 109.778 116.97 109.87 115.824C110.001 114.697 110.289 113.594 110.725 112.547C111.171 111.546 111.748 110.609 112.44 109.76C113.141 108.933 113.949 108.202 114.843 107.587C116.58 106.409 118.609 105.736 120.706 105.642C120.958 105.642 121.211 105.613 121.464 105.619L122.325 105.67L122.798 105.725L123.515 105.843L123.835 105.914C124.724 106.122 125.583 106.437 126.395 106.854C126.819 107.062 127.229 107.299 127.621 107.562C127.822 107.68 127.995 107.84 128.181 107.974C128.366 108.109 128.555 108.246 128.725 108.403C129.064 108.704 129.384 109.024 129.685 109.363L130.133 109.866C130.27 110.042 130.395 110.224 130.526 110.403C131.528 111.776 132.204 113.36 132.501 115.034C132.798 116.634 132.648 118.182 132.658 119.629C132.667 121.075 132.619 122.451 132.603 123.731C132.568 126.291 132.536 128.493 132.51 130.294C132.485 132.096 132.466 133.494 132.45 134.435C132.45 134.902 132.45 135.264 132.43 135.507C132.411 135.75 132.456 135.878 132.456 135.878Z" fill="#EEEEED"/>
<path d="M105.764 123.431L136.802 123.783C137.119 123.787 137.422 123.916 137.644 124.143C137.866 124.37 137.989 124.676 137.985 124.993L137.713 148.982C137.709 149.271 137.592 149.546 137.385 149.748C137.179 149.949 136.901 150.061 136.612 150.058L105.478 149.704L105.777 123.431L105.764 123.431Z" fill="#EEEEED"/>
<path d="M105.764 123.364L133.06 123.637C133.405 123.64 133.734 123.78 133.975 124.026C134.216 124.272 134.35 124.604 134.346 124.949L134.113 148.309C134.109 148.733 133.936 149.138 133.633 149.435C133.33 149.733 132.921 149.897 132.497 149.893L105.546 149.623C105.19 149.62 104.849 149.475 104.6 149.22C104.35 148.966 104.212 148.622 104.216 148.266L104.452 124.65C104.455 124.305 104.596 123.976 104.842 123.735C105.088 123.494 105.42 123.36 105.764 123.364Z" fill="#EEEEED"/>
<path d="M123.272 134.448C123.278 133.957 123.185 133.47 122.998 133.016C122.812 132.562 122.537 132.149 122.188 131.804C121.839 131.458 121.425 131.186 120.969 131.004C120.513 130.821 120.025 130.733 119.534 130.742C118.59 130.771 117.692 131.158 117.025 131.826C116.357 132.494 115.969 133.392 115.941 134.336C115.926 135.137 116.175 135.92 116.649 136.565C117.123 137.211 117.796 137.682 118.565 137.907L116.117 142.938L122.437 143.126L120.568 137.92C121.335 137.714 122.013 137.263 122.501 136.637C122.989 136.01 123.26 135.242 123.272 134.448Z" fill="#EEEEED"/>
<path d="M133.938 147.549C133.893 147.549 133.938 142.976 134.018 137.338C134.098 131.699 134.213 127.123 134.258 127.123C134.302 127.123 134.258 131.696 134.178 137.338C134.098 142.979 133.982 147.552 133.938 147.549Z" fill="#FBFBFA"/>
<path d="M127.269 124.48C127.269 124.525 123.246 124.57 118.283 124.579C113.32 124.589 109.294 124.56 109.294 124.515C109.294 124.47 113.317 124.429 118.283 124.419C123.25 124.41 127.269 124.429 127.269 124.48Z" fill="white"/>
<path d="M115.8 136.339C115.737 136.271 115.686 136.193 115.65 136.109C115.535 135.886 115.443 135.652 115.374 135.411C115.145 134.608 115.167 133.753 115.435 132.962C115.704 132.171 116.207 131.48 116.878 130.982C117.078 130.832 117.292 130.702 117.518 130.595C117.598 130.551 117.685 130.521 117.774 130.506C117.774 130.531 117.426 130.682 116.946 131.072C116.315 131.575 115.842 132.249 115.583 133.013C115.324 133.777 115.289 134.599 115.483 135.382C115.64 136 115.826 136.32 115.8 136.339Z" fill="white"/>
<path d="M117.24 138.093C117.218 138.131 117.003 138.038 116.76 137.888C116.517 137.738 116.341 137.584 116.363 137.546C116.386 137.507 116.603 137.6 116.846 137.75C117.09 137.901 117.24 138.054 117.24 138.093Z" fill="white"/>
<path d="M120.286 106.614C120.082 106.653 119.876 106.68 119.669 106.694C119.11 106.769 118.558 106.888 118.018 107.05C116.223 107.57 114.613 108.592 113.377 109.994C112.141 111.396 111.33 113.12 111.038 114.966C110.942 115.522 110.894 116.085 110.894 116.65C110.894 117.046 110.894 117.27 110.894 117.27C110.877 117.219 110.869 117.165 110.869 117.11C110.869 117.005 110.837 116.851 110.834 116.65C110.811 116.08 110.843 115.51 110.93 114.947C111.197 113.07 112.007 111.312 113.262 109.891C114.516 108.469 116.16 107.446 117.989 106.947C118.536 106.787 119.098 106.679 119.666 106.627C119.864 106.605 120.021 106.608 120.126 106.605C120.18 106.603 120.234 106.606 120.286 106.614Z" fill="white"/>
<path d="M110.725 120.102C110.652 119.788 110.632 119.463 110.667 119.142C110.645 118.819 110.679 118.494 110.766 118.182C110.863 118.82 110.849 119.47 110.725 120.102Z" fill="white"/>
<path d="M130.446 30.9664H114.878V35.0848H130.446V30.9664Z" fill="#FBFBFA"/>
<path d="M123.864 39.424C123.864 39.424 123.864 39.3984 123.864 39.3504V39.1392C123.864 38.944 123.864 38.672 123.864 38.3264C123.864 37.616 123.864 36.5952 123.838 35.3056L123.886 35.3536L108.318 35.3856C108.354 35.3504 108.238 35.4624 108.398 35.3056V37.392C108.398 38.0789 108.398 38.7541 108.398 39.4176L108.322 39.3408L119.416 39.376L122.69 39.3984H123.576H123.806C123.834 39.3957 123.862 39.3957 123.89 39.3984H123.819H123.595H122.728L119.47 39.4208L108.322 39.456H108.245V39.3792C108.245 38.7157 108.245 38.0405 108.245 37.3536V35.2672L108.325 35.1872L123.893 35.2192H123.941V35.2672C123.941 36.5664 123.922 37.6 123.915 38.3168C123.915 38.6592 123.915 38.9248 123.915 39.1168C123.915 39.2 123.915 39.2672 123.915 39.3184C123.915 39.3696 123.867 39.424 123.864 39.424Z" fill="#EEEEED"/>
<path d="M275.211 20.2144H259.643V24.3328H275.211V20.2144Z" fill="#FBFBFA"/>
<path d="M268.629 28.672C268.626 28.6475 268.626 28.6229 268.629 28.5984V28.3872C268.629 28.192 268.629 27.9232 268.629 27.5744C268.629 26.864 268.629 25.8432 268.603 24.5536L268.651 24.6016L253.083 24.6336C253.118 24.5984 253.003 24.7104 253.163 24.5536V25.0752C253.163 25.2512 253.163 25.4272 253.163 25.6V28.672L253.086 28.5952L264.181 28.6304L267.454 28.6528H268.341H268.571H268.654H268.581H268.36H267.493L264.235 28.6752L253.086 28.7104H253.006V24.56L253.086 24.48L268.654 24.512H268.702V24.56C268.702 25.8592 268.683 26.8928 268.677 27.6096C268.677 27.952 268.677 28.2176 268.677 28.4096C268.677 28.4928 268.677 28.56 268.677 28.6144C268.677 28.6688 268.632 28.672 268.629 28.672Z" fill="#EEEEED"/>
<path d="M186.427 102.09H170.859V106.208H186.427V102.09Z" fill="#FBFBFA"/>
<path d="M179.845 110.547C179.843 110.522 179.843 110.496 179.845 110.47V110.259C179.845 110.067 179.845 109.795 179.845 109.45C179.845 108.739 179.829 107.718 179.819 106.429L179.867 106.477L164.299 106.509C164.334 106.474 164.219 106.586 164.376 106.429V110.541L164.299 110.464L175.394 110.499L178.667 110.522H179.554H179.784H179.867H179.794H179.573H178.706L175.448 110.544L164.28 110.624H164.2V106.435L164.28 106.355L179.848 106.387H179.896V106.435C179.896 107.734 179.877 108.768 179.87 109.485C179.87 109.827 179.87 110.093 179.87 110.285C179.87 110.368 179.87 110.435 179.87 110.486C179.863 110.507 179.855 110.527 179.845 110.547Z" fill="#EEEEED"/>
<path d="M84.3632 24.5152C84.3604 24.4908 84.3604 24.4661 84.3632 24.4416C84.3632 24.3872 84.3632 24.3168 84.3632 24.2304C84.3632 24.0352 84.3632 23.7664 84.3632 23.4176C84.3632 22.7072 84.3632 21.6864 84.3376 20.3968L84.3856 20.4448L68.7952 20.48C68.8304 20.4448 68.7152 20.56 68.872 20.4V24.5152L68.7952 24.4384L79.8896 24.4736L83.1632 24.496H84.0496H84.28H84.3632C84.3388 24.499 84.314 24.499 84.2896 24.496H84.0688H83.1984L79.944 24.5184L68.7952 24.5536H68.7152V20.4032L68.7952 20.3232L84.3632 20.3552H84.4112V20.4032C84.4112 21.7056 84.392 22.736 84.3856 23.4528C84.3856 23.7952 84.3856 24.064 84.3856 24.2528C84.3856 24.336 84.3856 24.4032 84.3856 24.4576C84.3797 24.4774 84.3722 24.4966 84.3632 24.5152Z" fill="#EEEEED"/>
<path d="M239.611 143.274C239.611 143.274 239.611 143.248 239.611 143.2V142.989C239.611 142.794 239.611 142.525 239.611 142.176C239.611 141.466 239.611 140.445 239.586 139.155L239.634 139.203L224.066 139.235L224.146 139.155V141.242C224.146 141.931 224.146 142.606 224.146 143.267L224.069 143.19L235.163 143.226L238.437 143.248H239.323H239.557H239.637C239.637 143.248 239.614 143.248 239.566 143.248H239.342H238.475L235.218 143.27L224.069 143.306H223.992V143.229C223.992 142.565 223.992 141.89 223.992 141.203V139.117L224.072 139.037L239.64 139.069H239.688V139.117C239.688 140.416 239.669 141.45 239.662 142.166C239.662 142.509 239.662 142.774 239.662 142.966C239.662 143.05 239.662 143.117 239.662 143.171C239.662 143.226 239.614 143.277 239.611 143.274Z" fill="#EEEEED"/>
<path d="M177.195 18.6016C177.195 18.6016 177.195 18.5728 177.195 18.5248V18.3136C177.195 18.1216 177.195 17.8496 177.195 17.504C177.195 16.7936 177.195 15.7696 177.17 14.4832L177.218 14.5312L161.65 14.56L161.73 14.4832V16.576C161.73 17.2651 161.73 17.9403 161.73 18.6016L161.653 18.5248L172.747 18.56L176.021 18.5792H176.907H177.141C177.167 18.5766 177.194 18.5766 177.221 18.5792H177.15H176.926H176.059L172.802 18.6016L161.653 18.6368H161.576V18.56C161.576 17.8976 161.576 17.2224 161.576 16.5344V14.4896L161.656 14.4096L177.224 14.4416H177.272V14.4896C177.272 15.7888 177.253 16.8224 177.246 17.5392C177.246 17.8816 177.246 18.1472 177.246 18.3392V18.5408C177.232 18.5635 177.215 18.584 177.195 18.6016Z" fill="#EEEEED"/>
<path d="M179.32 14.4832C179.318 14.4566 179.318 14.4298 179.32 14.4032C179.32 14.3456 179.32 14.272 179.32 14.1856C179.32 13.984 179.32 13.7088 179.32 13.36C179.32 12.6368 179.301 11.6192 179.288 10.3648L179.346 10.4192L169.992 10.4416L170.069 10.3648V12.48C170.069 13.168 170.069 13.8368 170.069 14.4768L169.995 14.4L176.686 14.4352L178.635 14.4576H179.16H179.349C179.292 14.4622 179.236 14.4622 179.179 14.4576H178.667L176.747 14.4768L170.005 14.512H169.928V14.4384C169.928 13.7984 169.928 13.1296 169.928 12.4416V10.3712C169.909 10.3712 170.078 10.2208 170.008 10.2912L179.362 10.3136H179.419V10.3712C179.419 11.6512 179.394 12.6688 179.387 13.4016C179.387 13.744 179.387 14.0128 179.387 14.2144C179.387 14.416 179.32 14.4864 179.32 14.4832Z" fill="#EEEEED"/>
<path d="M78.9552 116.8C78.9538 116.775 78.9538 116.751 78.9552 116.726C78.9552 116.672 78.9552 116.602 78.9552 116.515C78.9552 116.32 78.9552 116.051 78.9552 115.706C78.9552 114.995 78.9552 113.971 78.9296 112.682L78.9776 112.73L63.4096 112.762L63.4896 112.682V114.771C63.4896 115.458 63.4896 116.133 63.4896 116.797L63.4128 116.72L74.5072 116.755L77.7808 116.778H78.6672H78.9008H78.9808C78.9808 116.778 78.9584 116.778 78.9104 116.778H78.6864H77.8192L74.5616 116.8L63.4128 116.835H63.336V116.8C63.336 116.138 63.336 115.462 63.336 114.774V112.685C63.496 112.528 63.3808 112.643 63.416 112.608L78.984 112.637H79.032V112.685C79.032 113.987 79.0128 115.018 79.0064 115.738C79.0064 116.08 79.0064 116.346 79.0064 116.538V116.739C78.9584 116.8 78.9584 116.8 78.9552 116.8Z" fill="#EEEEED"/>
<path d="M81.08 112.688C81.0775 112.662 81.0775 112.637 81.08 112.611C81.08 112.55 81.08 112.48 81.08 112.394C81.08 112.189 81.08 111.914 81.08 111.568C81.08 110.845 81.0608 109.824 81.048 108.57L81.1056 108.627L71.752 108.65C71.6816 108.72 71.848 108.554 71.8288 108.57V110.688C71.8288 111.379 71.8288 112.045 71.8288 112.685L71.7552 112.611L78.4464 112.646L80.3952 112.669H80.92H81.1088C81.0523 112.673 80.9956 112.673 80.9392 112.669H80.4272L78.5072 112.691L71.7648 112.726H71.688V112.65C71.688 112.01 71.688 111.344 71.688 110.653V108.534L71.768 108.454L81.08 108.512H81.1376V108.57C81.1376 109.85 81.112 110.87 81.1056 111.6C81.1056 111.942 81.1056 112.214 81.1056 112.416C81.1056 112.618 81.08 112.694 81.08 112.688Z" fill="#EEEEED"/>
<path d="M127.979 82.9408C127.976 82.9164 127.976 82.8917 127.979 82.8672V82.656C127.979 82.4608 127.979 82.192 127.979 81.8464C127.979 81.1328 127.963 80.112 127.954 78.8224L128.002 78.8704L112.434 78.9024C112.469 78.8672 112.354 78.9824 112.51 78.8224V82.9344L112.434 82.8576L123.528 82.8928L126.802 82.9152H127.688H127.918H128.002H127.928H127.707H126.837L123.582 82.9344L112.434 82.9696H112.354V78.7776L112.434 78.6976L128.002 78.7296H128.05V78.7776C128.05 80.08 128.03 81.1104 128.024 81.8304C128.024 82.1696 128.024 82.4384 128.024 82.6272V82.832C128.015 82.8703 128 82.907 127.979 82.9408Z" fill="#EEEEED"/>
<path d="M130.091 78.8224C130.087 78.797 130.087 78.771 130.091 78.7456C130.091 78.6848 130.091 78.6144 130.091 78.5248L130.075 77.6992C130.075 76.9792 130.075 75.9584 130.046 74.704L130.104 74.7616L120.747 74.784L120.827 74.704V76.8224C120.827 77.5104 120.827 78.1792 120.827 78.8192L120.75 78.7456L127.442 78.7808L129.394 78.8H129.918H130.107C130.05 78.8042 129.992 78.8042 129.934 78.8H129.426L127.506 78.8224L120.763 78.8576H120.69V78.7808C120.69 78.1408 120.69 77.472 120.69 76.784V74.6656C120.69 74.6816 120.843 74.5152 120.77 74.5856L130.126 74.608H130.184V74.6656C130.184 75.9456 130.162 76.9664 130.155 77.696C130.155 78.0384 130.155 78.3104 130.139 78.5088C130.123 78.7072 130.094 78.8256 130.091 78.8224Z" fill="#EEEEED"/>
<path d="M273.195 150.045C273.195 150.09 227.579 150.128 171.326 150.128C115.074 150.128 69.4448 150.08 69.4448 150.045C69.4448 150.01 115.051 149.962 171.326 149.962C227.602 149.962 273.195 150 273.195 150.045Z" fill="#263238"/>
<path d="M269.56 40.64H196.92V120H269.56V40.64Z" fill="white"/>
<path d="M269.682 133.834C269.682 133.178 269.65 95.9392 269.605 40.608L269.682 40.6816H197.042L197.125 40.5984C197.125 75.1808 197.125 107.29 197.125 133.824L197.054 133.757L269.694 133.824L197.054 133.894H196.987V133.824C196.987 107.29 196.987 75.1808 196.971 40.5984V40.5152H197.064H269.704H269.778V40.592C269.71 95.9392 269.682 133.178 269.682 133.834Z" fill="#263238"/>
<path d="M262.184 76.176H204.76C204.504 76.176 204.296 76.3837 204.296 76.64V85.792C204.296 86.0483 204.504 86.256 204.76 86.256H262.184C262.44 86.256 262.648 86.0483 262.648 85.792V76.64C262.648 76.3837 262.44 76.176 262.184 76.176Z" fill="#EEEEED"/>
<path d="M213.444 82.4023V83H210.761V78.7725H213.444V79.3701H211.417V80.5654H213.336V81.1338H211.417V82.4023H213.444ZM214.32 83V79.8096H214.927V80.3223H214.974C215.114 79.9619 215.437 79.748 215.861 79.748C216.298 79.748 216.6 79.9736 216.74 80.3223H216.79C216.951 79.9736 217.317 79.748 217.76 79.748C218.404 79.748 218.779 80.1377 218.779 80.8027V83H218.15V80.9668C218.15 80.5361 217.944 80.3252 217.531 80.3252C217.124 80.3252 216.858 80.6182 216.858 80.9932V83H216.239V80.9053C216.239 80.5449 215.999 80.3252 215.624 80.3252C215.24 80.3252 214.95 80.6387 214.95 81.0488V83H214.32ZM220.707 82.5225C221.182 82.5225 221.533 82.2207 221.533 81.8252V81.5586L220.754 81.6084C220.315 81.6377 220.115 81.7871 220.115 82.0684C220.115 82.3555 220.364 82.5225 220.707 82.5225ZM220.546 83.0527C219.931 83.0527 219.483 82.6807 219.483 82.0977C219.483 81.5234 219.91 81.1924 220.669 81.1455L221.533 81.0957V80.8203C221.533 80.4834 221.311 80.293 220.88 80.293C220.528 80.293 220.285 80.4219 220.215 80.6475H219.606C219.67 80.0996 220.186 79.748 220.909 79.748C221.709 79.748 222.16 80.1465 222.16 80.8203V83H221.554V82.5518H221.504C221.314 82.8711 220.965 83.0527 220.546 83.0527ZM223.068 83V79.8096H223.695V83H223.068ZM223.382 79.25C223.148 79.25 222.975 79.083 222.975 78.8662C222.975 78.6465 223.148 78.4795 223.382 78.4795C223.616 78.4795 223.789 78.6465 223.789 78.8662C223.789 79.083 223.616 79.25 223.382 79.25ZM224.65 83V78.5645H225.28V83H224.65Z" fill="#263238"/>
<path d="M261.899 96.32H204.478C204.222 96.32 204.014 96.5277 204.014 96.784V105.936C204.014 106.192 204.222 106.4 204.478 106.4H261.899C262.155 106.4 262.363 106.192 262.363 105.936V96.784C262.363 96.5277 262.155 96.32 261.899 96.32Z" fill="#FFD712"/>
<path d="M225.973 101.437C225.972 101.272 226.004 101.108 226.069 100.956C226.134 100.804 226.23 100.667 226.35 100.553C226.47 100.44 226.612 100.352 226.767 100.296C226.923 100.24 227.088 100.217 227.253 100.227C227.442 100.218 227.631 100.253 227.805 100.329C227.979 100.405 228.133 100.52 228.254 100.666L227.835 101.046C227.771 100.961 227.688 100.891 227.593 100.843C227.497 100.796 227.392 100.771 227.285 100.771C227.116 100.783 226.958 100.858 226.842 100.982C226.727 101.106 226.662 101.269 226.662 101.438C226.662 101.608 226.727 101.771 226.842 101.895C226.958 102.019 227.116 102.094 227.285 102.106C227.392 102.105 227.497 102.08 227.592 102.032C227.688 101.985 227.771 101.915 227.835 101.83L228.254 102.211C228.132 102.356 227.978 102.471 227.805 102.547C227.631 102.623 227.442 102.658 227.253 102.65C227.088 102.66 226.922 102.637 226.766 102.58C226.611 102.524 226.469 102.436 226.348 102.322C226.228 102.208 226.133 102.071 226.068 101.919C226.004 101.766 225.971 101.602 225.973 101.437Z" fill="white"/>
<path d="M230.44 101.571V102.605H229.8V101.674C229.8 101.414 229.685 101.306 229.502 101.306C229.32 101.306 229.144 101.43 229.144 101.731V102.605H228.504V100.131H229.144V100.966C229.292 100.833 229.486 100.762 229.685 100.768C229.79 100.76 229.896 100.775 229.995 100.814C230.094 100.852 230.182 100.912 230.255 100.989C230.327 101.066 230.382 101.158 230.414 101.259C230.446 101.36 230.455 101.466 230.44 101.571Z" fill="white"/>
<path d="M232.53 101.6V102.605H231.941V102.371C231.886 102.462 231.807 102.534 231.712 102.581C231.617 102.627 231.511 102.646 231.406 102.634C230.974 102.634 230.734 102.39 230.734 102.077C230.734 101.763 230.978 101.539 231.538 101.539H231.896C231.896 101.354 231.762 101.251 231.512 101.251C231.337 101.252 231.166 101.307 231.022 101.408L230.811 100.979C231.052 100.836 231.328 100.763 231.608 100.768C232.194 100.771 232.53 101.027 232.53 101.6ZM231.89 102.026V101.869H231.618C231.413 101.869 231.339 101.939 231.339 102.051C231.339 102.163 231.429 102.234 231.576 102.234C231.645 102.238 231.713 102.22 231.77 102.183C231.828 102.145 231.872 102.09 231.896 102.026H231.89Z" fill="white"/>
<path d="M234.85 101.571V102.605H234.21V101.674C234.21 101.414 234.098 101.306 233.915 101.306C233.733 101.306 233.554 101.43 233.554 101.731V102.605H232.914V100.8H233.515V100.995C233.59 100.92 233.68 100.861 233.778 100.822C233.877 100.783 233.982 100.765 234.088 100.768C234.194 100.759 234.301 100.774 234.4 100.811C234.5 100.849 234.589 100.909 234.663 100.986C234.736 101.063 234.791 101.156 234.823 101.257C234.855 101.359 234.864 101.466 234.85 101.571Z" fill="white"/>
<path d="M237.214 100.8V102.275C237.214 102.957 236.827 103.28 236.155 103.28C235.84 103.291 235.528 103.209 235.259 103.043L235.49 102.602C235.668 102.727 235.88 102.794 236.098 102.794C236.437 102.794 236.581 102.64 236.581 102.358V102.298C236.513 102.37 236.43 102.427 236.337 102.464C236.245 102.5 236.146 102.516 236.046 102.509C235.816 102.509 235.594 102.417 235.431 102.254C235.268 102.091 235.176 101.869 235.176 101.638C235.176 101.408 235.268 101.186 235.431 101.023C235.594 100.86 235.816 100.768 236.046 100.768C236.154 100.76 236.262 100.779 236.361 100.822C236.459 100.866 236.546 100.933 236.613 101.018V100.8H237.214ZM236.574 101.638C236.579 101.56 236.561 101.481 236.521 101.413C236.481 101.345 236.421 101.291 236.35 101.257C236.279 101.223 236.199 101.212 236.121 101.224C236.043 101.236 235.97 101.271 235.913 101.325C235.855 101.379 235.815 101.449 235.798 101.526C235.78 101.603 235.786 101.683 235.815 101.757C235.844 101.83 235.895 101.893 235.96 101.938C236.025 101.982 236.102 102.006 236.181 102.006C236.233 102.014 236.287 102.011 236.338 101.996C236.389 101.981 236.436 101.955 236.476 101.92C236.516 101.885 236.548 101.841 236.569 101.793C236.59 101.744 236.601 101.692 236.6 101.638H236.574Z" fill="white"/>
<path d="M239.454 101.862H238.142C238.172 101.954 238.232 102.033 238.313 102.086C238.395 102.138 238.491 102.161 238.587 102.15C238.741 102.155 238.891 102.099 239.003 101.994L239.323 102.339C239.225 102.443 239.104 102.523 238.971 102.574C238.837 102.624 238.694 102.645 238.552 102.634C237.912 102.634 237.493 102.237 237.493 101.696C237.493 101.569 237.52 101.443 237.571 101.326C237.622 101.209 237.697 101.104 237.79 101.017C237.883 100.93 237.993 100.863 238.113 100.82C238.233 100.778 238.361 100.76 238.488 100.768C238.614 100.76 238.741 100.778 238.86 100.822C238.978 100.866 239.086 100.935 239.177 101.023C239.267 101.111 239.338 101.218 239.385 101.335C239.432 101.453 239.453 101.579 239.448 101.706C239.48 101.75 239.458 101.811 239.454 101.862ZM238.133 101.526H238.872C238.858 101.439 238.813 101.359 238.745 101.301C238.677 101.243 238.591 101.212 238.502 101.212C238.413 101.212 238.327 101.243 238.26 101.301C238.192 101.359 238.147 101.439 238.133 101.526Z" fill="white"/>
<path d="M227.762 61.8816H227.227V62.8H226.248V59.3408H227.829C228.773 59.3408 229.368 59.8304 229.368 60.6208C229.377 60.8496 229.317 61.0757 229.196 61.2701C229.075 61.4645 228.899 61.6184 228.69 61.712L229.435 62.8H228.389L227.762 61.8816ZM227.762 60.112H227.218V61.12H227.762C228.165 61.12 228.37 60.9344 228.37 60.6176C228.37 60.3008 228.174 60.112 227.771 60.112H227.762Z" fill="#263238"/>
<path d="M232.584 61.6992H230.638C230.68 61.8329 230.766 61.9484 230.883 62.0264C230.999 62.1044 231.139 62.1402 231.278 62.128C231.392 62.1322 231.505 62.1136 231.611 62.0735C231.717 62.0334 231.814 61.9725 231.896 61.8944L232.389 62.4096C232.242 62.5611 232.064 62.6785 231.868 62.7537C231.671 62.8289 231.46 62.86 231.25 62.8448C230.29 62.8448 229.678 62.256 229.678 61.456C229.678 61.2669 229.717 61.0799 229.792 60.9064C229.868 60.733 229.978 60.5768 230.116 60.4475C230.254 60.3182 230.417 60.2186 230.595 60.1549C230.773 60.0911 230.962 60.0645 231.15 60.0768C231.338 60.0641 231.526 60.091 231.703 60.1557C231.88 60.2204 232.041 60.3215 232.176 60.4524C232.311 60.5833 232.417 60.7412 232.488 60.9157C232.558 61.0902 232.591 61.2776 232.584 61.4656C232.6 61.536 232.59 61.6224 232.584 61.6992ZM230.622 61.2032H231.72C231.698 61.0737 231.631 60.9563 231.53 60.8716C231.43 60.7869 231.303 60.7404 231.171 60.7404C231.04 60.7404 230.913 60.7869 230.812 60.8716C230.712 60.9563 230.645 61.0737 230.622 61.2032Z" fill="#263238"/>
<path d="M232.821 62.5664L233.102 61.9264C233.388 62.0869 233.709 62.1717 234.037 62.1728C234.357 62.1728 234.456 62.1024 234.456 61.9904C234.456 61.6288 232.875 62.0384 232.875 60.9664C232.875 60.464 233.339 60.0768 234.181 60.0768C234.546 60.0698 234.907 60.1476 235.237 60.304L234.955 60.944C234.719 60.8137 234.454 60.7465 234.184 60.7488C233.864 60.7488 233.755 60.8352 233.755 60.9344C233.755 61.3056 235.333 60.9056 235.333 61.968C235.333 62.4608 234.878 62.848 234.008 62.848C233.595 62.8551 233.187 62.7583 232.821 62.5664Z" fill="#263238"/>
<path d="M238.459 61.6992H236.514C236.556 61.8326 236.642 61.9477 236.759 62.0256C236.875 62.1035 237.014 62.1396 237.154 62.128C237.267 62.1322 237.38 62.1136 237.486 62.0735C237.592 62.0334 237.689 61.9725 237.771 61.8944L238.267 62.4096C238.12 62.561 237.941 62.6783 237.744 62.7535C237.547 62.8287 237.335 62.8598 237.125 62.8448C236.165 62.8448 235.554 62.256 235.554 61.456C235.554 61.2669 235.592 61.0799 235.668 60.9064C235.743 60.733 235.853 60.5768 235.991 60.4475C236.129 60.3182 236.292 60.2186 236.47 60.1549C236.648 60.0911 236.837 60.0645 237.026 60.0768C237.213 60.0641 237.402 60.091 237.578 60.1557C237.755 60.2204 237.916 60.3215 238.051 60.4524C238.186 60.5833 238.292 60.7412 238.363 60.9157C238.433 61.0902 238.466 61.2776 238.459 61.4656C238.475 61.536 238.466 61.6224 238.459 61.6992ZM236.498 61.2032H237.595C237.578 61.072 237.513 60.952 237.411 60.8671C237.31 60.7823 237.18 60.7389 237.048 60.7456C236.916 60.7403 236.787 60.7841 236.685 60.8686C236.583 60.9532 236.516 61.0724 236.498 61.2032Z" fill="#263238"/>
<path d="M240.76 62.6912C240.564 62.7982 240.343 62.8512 240.12 62.8448C239.432 62.8448 239.032 62.5248 239.032 61.8208V60.9216H238.642V60.2208H239.032V59.52H239.97V60.2176H240.584V60.9184H239.97V61.808C239.962 61.8483 239.964 61.8898 239.975 61.9293C239.986 61.9688 240.006 62.0053 240.033 62.036C240.06 62.0668 240.094 62.0911 240.132 62.107C240.169 62.1229 240.21 62.1301 240.251 62.128C240.353 62.1294 240.454 62.1005 240.539 62.0448L240.76 62.6912Z" fill="#263238"/>
<path d="M216.088 67.1072V68.3488H215.109V67.0912L213.79 64.8896H214.821L215.643 66.2624L216.462 64.8896H217.422L216.088 67.1072Z" fill="#263238"/>
<path d="M217.15 67.0048C217.15 66.1984 217.79 65.6256 218.661 65.6256C219.531 65.6256 220.174 66.1984 220.174 67.0048C220.174 67.8112 219.534 68.3936 218.661 68.3936C217.787 68.3936 217.15 67.8144 217.15 67.0048ZM219.224 67.0048C219.232 66.9258 219.224 66.8459 219.2 66.7703C219.175 66.6947 219.135 66.6251 219.082 66.566C219.029 66.5069 218.964 66.4597 218.891 66.4273C218.819 66.395 218.74 66.3783 218.661 66.3783C218.581 66.3783 218.503 66.395 218.43 66.4273C218.358 66.4597 218.293 66.5069 218.24 66.566C218.186 66.6251 218.146 66.6947 218.122 66.7703C218.097 66.8459 218.089 66.9258 218.098 67.0048C218.089 67.0838 218.097 67.1637 218.122 67.2393C218.146 67.3149 218.186 67.3845 218.24 67.4436C218.293 67.5027 218.358 67.5499 218.43 67.5823C218.503 67.6146 218.581 67.6313 218.661 67.6313C218.74 67.6313 218.819 67.6146 218.891 67.5823C218.964 67.5499 219.029 67.5027 219.082 67.4436C219.135 67.3845 219.175 67.3149 219.2 67.2393C219.224 67.1637 219.232 67.0838 219.224 67.0048Z" fill="#263238"/>
<path d="M223.426 65.6704V68.3488H222.52V68.0608C222.417 68.167 222.293 68.2503 222.156 68.3054C222.018 68.3606 221.871 68.3862 221.723 68.3808C221.083 68.3808 220.587 68.0032 220.587 67.1552V65.6576H221.525V67.0016C221.525 67.4176 221.688 67.5776 221.97 67.5776C222.251 67.5776 222.475 67.3952 222.475 66.9376V65.6576L223.426 65.6704Z" fill="#263238"/>
<path d="M225.822 65.6256V66.4704C225.752 66.4609 225.682 66.4555 225.611 66.4544C225.523 66.4453 225.434 66.4564 225.35 66.4868C225.267 66.5173 225.192 66.5662 225.13 66.63C225.069 66.6938 225.022 66.7708 224.995 66.8551C224.967 66.9394 224.959 67.0289 224.971 67.1168V68.3488H224.034V65.6704H224.926V65.9904C225.038 65.865 225.177 65.7669 225.332 65.7036C225.487 65.6404 225.655 65.6137 225.822 65.6256Z" fill="#263238"/>
<path d="M230.821 66.1696C230.821 66.9536 230.226 67.4496 229.282 67.4496H228.68V68.3552H227.701V64.8896H229.282C230.226 64.8896 230.821 65.3792 230.821 66.1696ZM229.832 66.1696C229.832 65.8496 229.627 65.6608 229.224 65.6608H228.68V66.672H229.24C229.627 66.672 229.832 66.4864 229.832 66.1696Z" fill="#263238"/>
<path d="M233.736 66.8608V68.3488H232.862V68.0032C232.781 68.1374 232.663 68.2455 232.523 68.3147C232.382 68.3839 232.225 68.4113 232.069 68.3936C231.429 68.3936 231.07 68.032 231.07 67.568C231.07 67.104 231.432 66.768 232.264 66.768H232.795C232.795 66.496 232.6 66.3424 232.229 66.3424C231.969 66.3422 231.715 66.4227 231.502 66.5728L231.182 65.9328C231.539 65.7197 231.948 65.609 232.363 65.6128C233.237 65.6256 233.736 66.0096 233.736 66.8608ZM232.795 67.5008V67.2672H232.392C232.091 67.2672 231.982 67.376 231.982 67.5392C231.982 67.7024 232.11 67.8112 232.331 67.8112C232.433 67.8165 232.535 67.7877 232.619 67.7291C232.703 67.6706 232.765 67.5858 232.795 67.488V67.5008Z" fill="#263238"/>
<path d="M234.117 68.1152L234.398 67.4752C234.683 67.6387 235.005 67.7247 235.333 67.7248C235.653 67.7248 235.752 67.6544 235.752 67.5424C235.752 67.1808 234.171 67.5904 234.171 66.5184C234.171 66.0128 234.635 65.6288 235.474 65.6288C235.839 65.6214 236.202 65.6992 236.533 65.856L236.251 66.496C236.015 66.3651 235.75 66.2968 235.48 66.2976C235.16 66.2976 235.051 66.3872 235.051 66.4864C235.051 66.8576 236.626 66.4576 236.626 67.52C236.626 68.0128 236.171 68.4 235.301 68.4C234.888 68.4063 234.481 68.3083 234.117 68.1152Z" fill="#263238"/>
<path d="M236.821 68.1152L237.102 67.4752C237.386 67.6383 237.707 67.7243 238.034 67.7248C238.354 67.7248 238.456 67.6544 238.456 67.5424C238.456 67.1808 236.875 67.5904 236.875 66.5184C236.875 66.0128 237.339 65.6288 238.178 65.6288C238.543 65.6218 238.906 65.6995 239.237 65.856L238.955 66.496C238.719 66.3659 238.454 66.2977 238.184 66.2976C237.864 66.2976 237.752 66.3872 237.752 66.4864C237.752 66.8576 239.33 66.4576 239.33 67.52C239.33 68.0128 238.875 68.4 238.005 68.4C237.592 68.4066 237.185 68.3086 236.821 68.1152Z" fill="#263238"/>
<path d="M244.123 65.6704L243.163 68.3488H242.254L241.755 66.88L241.234 68.3392H240.325L239.365 65.6608H240.254L240.802 67.28L241.368 65.6608H242.171L242.725 67.296L243.291 65.6608L244.123 65.6704Z" fill="#263238"/>
<path d="M244.168 67.0048C244.168 66.1984 244.808 65.6256 245.682 65.6256C246.555 65.6256 247.192 66.1984 247.192 67.0048C247.192 67.8112 246.552 68.3936 245.682 68.3936C244.811 68.3936 244.168 67.8144 244.168 67.0048ZM246.245 67.0048C246.231 66.8969 246.186 66.7954 246.115 66.7123C246.045 66.6293 245.952 66.5683 245.848 66.5366C245.744 66.5049 245.633 66.5038 245.528 66.5335C245.424 66.5633 245.33 66.6225 245.258 66.7042C245.186 66.7859 245.139 66.8866 245.123 66.9942C245.107 67.1018 245.122 67.2118 245.167 67.311C245.211 67.4102 245.284 67.4944 245.375 67.5536C245.466 67.6128 245.573 67.6445 245.682 67.6448C245.762 67.6456 245.843 67.6289 245.916 67.5959C245.99 67.5629 246.056 67.5144 246.11 67.4537C246.163 67.393 246.203 67.3214 246.226 67.244C246.249 67.1665 246.256 67.0849 246.245 67.0048Z" fill="#263238"/>
<path d="M249.422 65.6256V66.4704C249.351 66.4608 249.28 66.4554 249.208 66.4544C249.12 66.4447 249.03 66.4553 248.947 66.4855C248.863 66.5157 248.787 66.5647 248.726 66.6286C248.664 66.6926 248.617 66.7698 248.59 66.8544C248.563 66.9391 248.555 67.0288 248.568 67.1168V68.3488H247.627V65.6704H248.523V65.9904C248.635 65.8642 248.774 65.7655 248.93 65.7022C249.086 65.6389 249.255 65.6127 249.422 65.6256Z" fill="#263238"/>
<path d="M252.629 64.6816V68.3488H251.736V68.08C251.638 68.1902 251.516 68.2763 251.38 68.3318C251.243 68.3873 251.096 68.4106 250.949 68.4C250.593 68.3829 250.258 68.2296 250.012 67.9719C249.767 67.7143 249.63 67.372 249.63 67.016C249.63 66.66 249.767 66.3177 250.012 66.0601C250.258 65.8024 250.593 65.6491 250.949 65.632C251.085 65.6242 251.221 65.6447 251.349 65.692C251.476 65.7394 251.593 65.8127 251.691 65.9072V64.688L252.629 64.6816ZM251.704 67.0048C251.69 66.8966 251.645 66.7949 251.574 66.7117C251.503 66.6286 251.41 66.5676 251.306 66.5361C251.201 66.5046 251.09 66.504 250.985 66.5342C250.881 66.5645 250.787 66.6243 250.715 66.7066C250.643 66.7889 250.597 66.8902 250.582 66.9982C250.566 67.1061 250.582 67.2163 250.628 67.3154C250.674 67.4144 250.747 67.4982 250.839 67.5567C250.931 67.6151 251.038 67.6457 251.147 67.6448C251.228 67.6452 251.307 67.6282 251.381 67.5949C251.454 67.5617 251.519 67.5131 251.572 67.4524C251.625 67.3916 251.664 67.3202 251.687 67.243C251.71 67.1657 251.716 67.0845 251.704 67.0048Z" fill="#263238"/>
<path d="M243.054 44.1056L240.526 43.5808L243.726 28.1856C243.845 27.3784 243.668 26.5554 243.227 25.8688C239.198 20.2912 232.645 22.5568 231.64 27.376L228.76 41.136L226.232 40.608L229.461 25.1136C229.627 24.312 229.97 23.5576 230.464 22.905C230.958 22.2524 231.592 21.7181 232.318 21.3408C240.459 17.1456 247.291 23.6672 245.899 30.352L243.054 44.1056Z" fill="#EEEEED"/>
<path d="M243.054 44.1056C243.054 44.1056 243.07 44.0096 243.109 43.8304C243.147 43.6512 243.198 43.3792 243.269 43.0304L243.909 39.968C244.184 38.64 244.517 37.0176 244.904 35.1328L245.544 32.1184C245.742 31.0496 246.072 29.9296 246.085 28.72C246.104 27.4537 245.835 26.1996 245.298 25.0528C245.227 24.9056 245.16 24.752 245.086 24.6048L244.83 24.1728C244.656 23.8834 244.465 23.6045 244.258 23.3376C244.155 23.1968 244.034 23.0752 243.922 22.944C243.81 22.8128 243.701 22.6784 243.57 22.5632C243.321 22.3153 243.056 22.0843 242.776 21.872C242.208 21.4277 241.587 21.0568 240.926 20.768L240.411 20.576L240.12 20.48L239.851 20.4096L239.31 20.2688C239.125 20.2272 238.939 20.208 238.754 20.176C237.21 19.9462 235.633 20.1477 234.197 20.7584C233.057 21.2429 232.036 21.9708 231.207 22.8911C230.378 23.8115 229.76 24.9021 229.397 26.0864C229.163 26.9024 229.013 27.7568 228.83 28.608C228.12 32.0224 227.381 35.5584 226.629 39.168C226.526 39.6512 226.427 40.128 226.328 40.6112L226.28 40.5376L228.808 41.0656L228.738 41.1136C229.307 38.3776 229.867 35.6992 230.408 33.1136C230.679 31.8144 230.947 30.5344 231.211 29.2736L231.602 27.3984C231.739 26.779 231.963 26.1822 232.267 25.6256C232.884 24.5515 233.812 23.69 234.93 23.1552C235.067 23.0944 235.198 23.0208 235.342 22.9728L235.765 22.8256C236.048 22.7405 236.337 22.6753 236.629 22.6304C236.919 22.5863 237.212 22.5628 237.506 22.56C237.65 22.56 237.797 22.56 237.941 22.5792H238.155L238.37 22.6144C238.933 22.6912 239.482 22.8474 240.002 23.0784C240.503 23.3095 240.973 23.6042 241.4 23.9552C242.216 24.6439 242.837 25.5342 243.202 26.5376C243.554 27.4767 243.656 28.4911 243.499 29.4816L243.442 29.8368C243.419 29.952 243.394 30.0672 243.371 30.1824L243.227 30.8672C243.131 31.3184 243.038 31.76 242.949 32.1952C242.584 33.9296 242.248 35.5264 241.947 36.9632C241.339 39.8432 240.866 42.0832 240.552 43.584L240.536 43.5616L242.456 43.968L242.923 44.0704L243.077 44.1056L242.926 44.0768L242.462 43.9872L240.542 43.5968V43.5776L241.906 36.9536C242.203 35.5136 242.546 33.9168 242.894 32.1792C242.984 31.7472 243.077 31.3024 243.17 30.8512C243.214 30.6272 243.262 30.3968 243.31 30.1696C243.336 30.0544 243.358 29.9392 243.384 29.8208C243.41 29.7024 243.419 29.5872 243.438 29.472C243.592 28.4961 243.489 27.4972 243.141 26.5728C242.78 25.5859 242.166 24.711 241.362 24.0352C240.94 23.6902 240.475 23.4008 239.979 23.1744C239.469 22.9497 238.931 22.7968 238.379 22.72L238.168 22.688H237.954C237.813 22.688 237.672 22.6688 237.528 22.688C236.949 22.6945 236.374 22.7829 235.819 22.9504L235.403 23.0976C235.265 23.1494 235.131 23.2093 235 23.2768C233.903 23.8015 232.991 24.6489 232.389 25.7056C232.093 26.2509 231.877 26.8361 231.749 27.4432C231.621 28.064 231.491 28.6891 231.358 29.3184C231.096 30.5792 230.829 31.8592 230.558 33.1584L228.891 41.1584V41.2192H228.83L226.302 40.6912H226.245V40.6304C226.344 40.1536 226.443 39.6704 226.546 39.1872C227.301 35.568 228.037 32.032 228.75 28.6272C228.933 27.7728 229.07 26.9248 229.32 26.0928C229.58 25.2795 229.951 24.5063 230.424 23.7952C231.36 22.4201 232.674 21.3445 234.206 20.6976C235.661 20.0809 237.258 19.8782 238.821 20.112C239.01 20.144 239.198 20.1664 239.384 20.2048L240.024 20.3712L240.366 20.48L240.878 20.672L241.115 20.7712C241.741 21.0549 242.331 21.4127 242.872 21.8368C243.152 22.0541 243.42 22.2881 243.672 22.5376C243.773 22.6475 243.869 22.7617 243.96 22.88C244.072 23.0144 244.197 23.136 244.296 23.2768C244.507 23.5477 244.701 23.8309 244.878 24.1248L245.134 24.56C245.211 24.7104 245.275 24.88 245.349 25.0144C245.888 26.1751 246.157 27.4434 246.133 28.7232C246.133 29.9456 245.784 31.0688 245.582 32.1408C245.381 33.2128 245.144 34.2208 244.942 35.1648C244.546 37.0496 244.2 38.6848 243.922 40C243.643 41.3152 243.422 42.352 243.282 43.0496L243.112 43.84C243.077 44.0192 243.054 44.1056 243.054 44.1056Z" fill="#263238"/>
<path d="M225.141 31.0232L247.725 35.7289C248.036 35.7936 248.308 35.9792 248.482 36.2447C248.656 36.5102 248.717 36.8339 248.652 37.1446L245.084 54.2681C245.026 54.5506 244.857 54.7981 244.616 54.9562C244.374 55.1144 244.08 55.1701 243.797 55.1113L221.107 50.3834L225.141 31.0232Z" fill="#455A64"/>
<g opacity="0.3">
<path d="M225.153 31.0414L247.618 35.7223C247.96 35.7936 248.26 35.998 248.452 36.2905C248.643 36.5829 248.711 36.9396 248.639 37.2819L245.121 54.1672C245.056 54.4813 244.868 54.7565 244.6 54.9323C244.331 55.1081 244.004 55.1701 243.69 55.1047L221.119 50.4016L225.153 31.0414Z" fill="#1F1F1F"/>
</g>
<path d="M225.334 31.064L244.813 35.1228C245.15 35.1931 245.446 35.3945 245.635 35.6827C245.823 35.9709 245.89 36.3224 245.82 36.6597L242.375 53.191C242.289 53.6065 242.041 53.9705 241.686 54.203C241.331 54.4356 240.898 54.5176 240.482 54.431L221.354 50.4453C221.181 50.4093 221.017 50.3396 220.871 50.2403C220.726 50.1409 220.601 50.0137 220.504 49.8661C220.407 49.7185 220.341 49.5532 220.308 49.3798C220.275 49.2064 220.276 49.0282 220.312 48.8554L223.809 32.0735C223.879 31.7383 224.078 31.4442 224.364 31.2552C224.649 31.0662 224.998 30.9975 225.334 31.064Z" fill="#455A64"/>
<g opacity="0.3">
<path d="M236.475 41.7152C236.551 41.3534 236.553 40.98 236.481 40.6174C236.41 40.2547 236.266 39.91 236.059 39.6039C235.852 39.2977 235.586 39.0362 235.276 38.8349C234.966 38.6336 234.618 38.4966 234.254 38.432C233.552 38.3163 232.832 38.4726 232.241 38.8692C231.65 39.2658 231.233 39.8727 231.074 40.5664C230.947 41.1564 231.019 41.7714 231.276 42.3171C231.533 42.8629 231.962 43.309 232.498 43.5872L229.954 46.9504L234.597 48.0064L233.957 43.8944C234.557 43.8563 235.128 43.6225 235.583 43.229C236.038 42.8354 236.351 42.3037 236.475 41.7152Z" fill="#1F1F1F"/>
</g>
<path d="M242.453 52.944C242.421 52.944 243.112 49.5648 243.995 45.4112C244.878 41.2576 245.624 37.8912 245.656 37.8976C245.688 37.904 244.997 41.28 244.114 45.44C243.23 49.6 242.485 52.9504 242.453 52.944Z" fill="#263238"/>
<path d="M240.878 34.9248C240.878 34.9568 237.893 34.4032 234.226 33.6896C230.558 32.976 227.586 32.3712 227.592 32.3392C227.598 32.3072 230.578 32.8576 234.248 33.5712C237.918 34.2848 240.885 34.88 240.878 34.9248Z" fill="white"/>
<path d="M230.68 42.0256C230.68 42.0256 230.642 41.9616 230.603 41.8336C230.548 41.6535 230.514 41.4678 230.501 41.28C230.45 40.6529 230.59 40.0252 230.901 39.4784C231.217 38.9351 231.689 38.4984 232.254 38.224C232.425 38.1425 232.603 38.0782 232.786 38.032C232.852 38.0114 232.921 38.0016 232.99 38.0032C232.99 38.0256 232.706 38.0832 232.293 38.3008C231.756 38.5836 231.31 39.0133 231.008 39.5396C230.706 40.066 230.56 40.6674 230.587 41.2736C230.603 41.7408 230.702 42.0192 230.68 42.0256Z" fill="white"/>
<path d="M231.48 43.52C231.458 43.5456 231.31 43.4464 231.16 43.2992C231.01 43.152 230.894 43.0144 230.917 42.9792C230.939 42.944 231.086 43.056 231.237 43.2C231.387 43.344 231.502 43.52 231.48 43.52Z" fill="white"/>
<path d="M238.312 20.7168C238.312 20.7168 238.146 20.7168 237.845 20.6848C237.418 20.6581 236.99 20.6656 236.565 20.7072C235.164 20.8338 233.829 21.3554 232.713 22.2114C231.598 23.0674 230.749 24.2225 230.264 25.5424C230.116 25.94 229.999 26.3487 229.915 26.7648C229.858 27.0592 229.832 27.2256 229.822 27.2256C229.818 27.1852 229.818 27.1444 229.822 27.104C229.822 27.024 229.822 26.9056 229.864 26.7552C229.932 26.3324 230.039 25.9168 230.184 25.5136C230.655 24.1646 231.509 22.9827 232.643 22.1134C233.777 21.244 235.14 20.7252 236.565 20.6208C236.991 20.5865 237.42 20.5929 237.845 20.64C237.995 20.64 238.11 20.6784 238.19 20.688C238.232 20.6918 238.273 20.7015 238.312 20.7168Z" fill="white"/>
<path d="M229.288 29.2928C229.28 29.0502 229.312 28.808 229.384 28.576C229.416 28.3366 229.487 28.1041 229.595 27.888C229.605 28.1294 229.574 28.3708 229.502 28.6016C229.471 28.8425 229.398 29.0763 229.288 29.2928Z" fill="white"/>
<path d="M70.3344 132.352L64.584 140.16L74.2672 147.366C74.9072 146.406 71.2688 140.813 71.2688 140.813L75.16 135.962L70.3344 132.352Z" fill="#455A64"/>
<path d="M68.6 138.17C68.4861 138.128 68.3609 138.13 68.2486 138.176C68.1363 138.221 68.0449 138.307 67.992 138.416C67.947 138.529 67.9468 138.655 67.9914 138.768C68.036 138.881 68.1221 138.972 68.232 139.024C68.3526 139.066 68.4847 139.063 68.6029 139.014C68.721 138.965 68.8169 138.874 68.872 138.758C68.9073 138.636 68.8937 138.504 68.8341 138.391C68.7744 138.279 68.6733 138.193 68.552 138.154" fill="white"/>
<path d="M64.5712 140.179L65.1824 139.341L74.2288 146.624C74.2288 146.624 74.5168 147.136 74.2288 147.402L64.5712 140.179Z" fill="#263238"/>
<path d="M71.48 140.883C71.4448 140.931 71.192 140.778 70.84 140.755C70.488 140.733 70.2224 140.842 70.2 140.79C70.1776 140.739 70.4464 140.518 70.8624 140.55C71.2784 140.582 71.5056 140.848 71.48 140.883Z" fill="#263238"/>
<path d="M72.168 142.061C72.1424 142.115 71.88 142.042 71.5696 142.122C71.2592 142.202 71.0576 142.381 71.0096 142.342C70.9616 142.304 71.1344 142.022 71.5216 141.923C71.9088 141.824 72.2 142.016 72.168 142.061Z" fill="#263238"/>
<path d="M71.8384 143.706C71.7872 143.683 71.8992 143.386 72.2128 143.229C72.5264 143.072 72.824 143.123 72.8144 143.178C72.8048 143.232 72.5648 143.267 72.312 143.411C72.0592 143.555 71.8896 143.734 71.8384 143.706Z" fill="#263238"/>
<path d="M72.2288 139.68C72.1744 139.709 72.008 139.482 71.7264 139.302C71.4448 139.123 71.176 139.05 71.1792 138.982C71.1824 138.915 71.4992 138.902 71.8384 139.12C72.1776 139.338 72.28 139.661 72.2288 139.68Z" fill="#263238"/>
<path d="M93.7456 99.6672C93.9184 100.646 94.1936 108.976 94.3696 113.37C94.5456 117.763 94.1072 119.923 93.6048 120.909C93.1024 121.894 74.1552 135.856 72.712 139.2L67.912 135.331C67.912 135.331 74.952 122.694 77.9536 120.397C80.9552 118.099 86.7312 115.99 86.7312 115.99L85.0896 91.9296L92.9584 91.5008L93.7456 99.6672Z" fill="#263238"/>
<path d="M76.136 140.074L76.0528 149.76L88.12 149.926C88.0656 148.774 81.8544 146.371 81.8544 146.371L82.1744 140.16L76.136 140.074Z" fill="#455A64"/>
<path d="M78.1296 145.811C78.0132 145.845 77.9132 145.92 77.8489 146.023C77.7845 146.126 77.7603 146.249 77.7808 146.368C77.8105 146.486 77.8839 146.588 77.9862 146.653C78.0885 146.718 78.2119 146.742 78.3312 146.72C78.4542 146.683 78.5593 146.603 78.6266 146.494C78.6939 146.384 78.7186 146.254 78.696 146.128C78.6531 146.008 78.5653 145.91 78.4513 145.854C78.3372 145.798 78.2058 145.788 78.0848 145.827" fill="white"/>
<path d="M76.0496 149.795V148.755L87.6496 149.357C87.6496 149.357 88.1808 149.603 88.1136 149.981L76.0496 149.795Z" fill="#263238"/>
<path d="M82.04 146.326C82.04 146.387 81.7424 146.41 81.4512 146.595C81.16 146.781 81 147.024 80.9456 147.002C80.8912 146.979 80.984 146.637 81.3424 146.419C81.7008 146.202 82.0656 146.272 82.04 146.326Z" fill="#263238"/>
<path d="M83.32 146.88C83.32 146.938 83.0736 147.034 82.872 147.28C82.6704 147.526 82.6064 147.792 82.552 147.786C82.4976 147.779 82.4592 147.45 82.7184 147.146C82.9776 146.842 83.32 146.813 83.32 146.88Z" fill="#263238"/>
<path d="M84.008 148.394C83.9536 148.394 83.8768 148.109 84.0304 147.789C84.184 147.469 84.4656 147.344 84.488 147.392C84.5104 147.44 84.3408 147.613 84.216 147.878C84.0912 148.144 84.0656 148.387 84.008 148.394Z" fill="#263238"/>
<path d="M81.9632 144.902C81.9376 144.957 81.6688 144.87 81.3232 144.902C80.9776 144.934 80.728 145.021 80.6832 144.97C80.6384 144.918 80.904 144.714 81.2976 144.698C81.6912 144.682 81.992 144.858 81.9632 144.902Z" fill="#263238"/>
<path d="M94.616 90.5056C94.616 91.072 95.5344 105.411 90.8464 115.786C90.8464 115.786 89.224 119.03 88.9264 120.448C88.6288 121.866 82.5648 145.379 82.5648 145.379L75.5568 145.123C75.5568 145.123 74.4368 133.344 75.5568 126.525C76.6768 119.706 78.7568 120.506 78.7568 116.102C78.7568 111.699 77.7104 102.57 77.7104 102.57C77.7104 102.57 76.1808 100.077 75.6592 95.2416C75.2336 91.3152 77.0832 87.1072 77.0832 87.1072L78.9104 83.872L94.3696 83.0624L94.616 90.5056Z" fill="#263238"/>
<path d="M94.616 90.5056C94.616 90.5056 94.616 90.3392 94.616 90.016C94.616 89.6928 94.5968 89.2128 94.584 88.5824C94.5552 87.3184 94.5072 85.456 94.4496 83.0496V83.0144H94.4112L78.952 83.8016H78.92L78.9008 83.8304C78.3344 84.8352 77.7104 85.9328 77.0704 87.0656C76.5944 88.2139 76.2228 89.4027 75.96 90.6176C75.6697 91.8968 75.5396 93.2071 75.5728 94.5184C75.6702 95.8877 75.8843 97.2463 76.2128 98.5792C76.5297 99.9787 77.0278 101.331 77.6944 102.602V102.57C77.96 104.957 78.2064 107.43 78.4144 109.978C78.5168 111.258 78.6064 112.538 78.6704 113.853C78.7024 114.493 78.728 115.165 78.7312 115.827C78.7312 116.147 78.7312 116.49 78.712 116.819C78.6892 117.15 78.6486 117.479 78.5904 117.805C78.4594 118.462 78.2273 119.094 77.9024 119.68C77.5824 120.278 77.2624 120.87 76.9424 121.494C76.3629 122.761 75.9405 124.093 75.6848 125.462C75.128 128.214 75.016 131.075 74.984 133.958C74.984 137.763 75.1632 141.501 75.4768 145.114V145.19H75.5504L82.5584 145.446H82.6256L82.6416 145.379C84.6736 137.504 86.568 130.144 88.2384 123.526L88.8432 121.078C88.9488 120.672 89.016 120.269 89.1408 119.885C89.2656 119.501 89.4064 119.12 89.5536 118.749C89.8544 118.006 90.1936 117.286 90.5136 116.586L90.7632 116.064C90.8519 115.894 90.9309 115.718 91 115.539C91.144 115.184 91.288 114.835 91.432 114.486C92.4272 111.906 93.1678 109.234 93.6432 106.509C94.3285 102.627 94.6818 98.6938 94.6992 94.752C94.7184 91.9936 94.6064 90.496 94.6064 90.496C94.6064 90.496 94.6064 90.5888 94.6064 90.7712C94.6064 90.9536 94.6064 91.232 94.6256 91.5904C94.6448 92.3104 94.6576 93.3728 94.6256 94.752C94.596 98.6905 94.2396 102.62 93.56 106.499C93.0736 109.215 92.3234 111.878 91.32 114.448L90.8912 115.494C90.8208 115.674 90.7408 115.843 90.6544 116.016C90.568 116.189 90.4848 116.365 90.4016 116.541C90.0816 117.242 89.7424 117.962 89.4416 118.707C89.2912 119.082 89.1472 119.462 89.0224 119.853C88.8976 120.243 88.824 120.656 88.7216 121.053C88.52 121.859 88.3184 122.672 88.1104 123.501C86.4112 130.112 84.52 137.472 82.4944 145.347L82.5776 145.286L75.5696 145.027L75.6528 145.104C75.3328 141.498 75.1472 137.763 75.16 133.965C75.192 131.085 75.304 128.237 75.8576 125.504C76.1125 124.148 76.5305 122.827 77.1024 121.571C77.3904 120.954 77.7424 120.368 78.0624 119.76C78.3852 119.158 78.614 118.511 78.7408 117.84C78.8015 117.507 78.8432 117.17 78.8656 116.832C78.8656 116.512 78.8976 116.16 78.8848 115.83C78.8848 115.165 78.856 114.502 78.824 113.846C78.76 112.534 78.6672 111.242 78.5616 109.968C78.3483 107.408 78.1061 104.937 77.8352 102.554V102.534C77.1683 101.28 76.6681 99.9439 76.3472 98.56C76.0206 97.2365 75.8065 95.8876 75.7072 94.528C75.6727 93.2288 75.7996 91.9304 76.0848 90.6624C76.3427 89.4596 76.7056 88.2817 77.1696 87.1424L78.9936 83.904L78.9424 83.936L94.4016 83.1008L94.36 83.0656C94.4368 85.4688 94.4944 87.3312 94.5328 88.5952C94.5552 89.2352 94.5712 89.7024 94.584 90.0288C94.5968 90.3552 94.616 90.5056 94.616 90.5056Z" fill="#455A64"/>
<path d="M89.5888 61.1424C89.5888 61.1424 85.4288 60.4064 85.816 65.76C86.0592 68.96 87 74.4512 87.5216 77.9552C87.7008 79.168 88.0976 81.3376 89.7008 82.6112L101.189 90.56L104.814 86.224L94.5552 76.4544L92.9552 66.7904L89.5888 61.1424Z" fill="#455A64"/>
<path d="M90.0784 41.8464C90.7378 42.3774 91.2595 43.0594 91.5993 43.8348C91.9391 44.6102 92.087 45.4561 92.0304 46.3008C91.9664 47.12 91.7392 48.0512 92.2736 48.6752C92.808 49.2992 93.832 49.2768 94.3376 49.9104C94.9296 50.6592 94.4336 51.7728 94.6576 52.704C94.7718 53.139 95.037 53.5191 95.4057 53.7765C95.7745 54.0338 96.2228 54.1516 96.6704 54.1088C95.6202 54.9682 94.3536 55.5218 93.0096 55.7088L91.96 54.4C92.3504 54.8608 92.2448 55.5936 91.8704 56.064C91.4637 56.5018 90.9392 56.813 90.36 56.96C88.9814 57.3841 87.5236 57.4844 86.0999 57.2529C84.6763 57.0215 83.3252 56.4646 82.152 55.6256" fill="#263238"/>
<path d="M74.7088 49.0688C74.9136 48.4288 75.2592 47.8624 75.3968 47.2192C75.6912 45.8336 75.016 44.272 75.688 43.024C76.168 42.1376 77.1856 41.7024 78.152 41.4048C79.1184 41.1072 80.1488 40.8576 80.8688 40.1504C81.3936 39.632 81.6944 38.9152 82.2192 38.3968C82.968 37.6544 84.0752 37.4016 85.1248 37.3376C86.2086 37.2329 87.3011 37.4103 88.296 37.8528C88.79 38.0782 89.2241 38.4166 89.5632 38.8408C89.9023 39.2649 90.1369 39.7629 90.248 40.2944C90.3312 40.8128 90.2672 41.36 90.4336 41.8624C90.6128 42.4128 91.0448 42.8416 91.3136 43.3568C91.5828 43.9101 91.6607 44.5371 91.535 45.1394C91.4093 45.7418 91.0872 46.2853 90.6192 46.6848L83.2016 56.2656C81.6432 56.8544 77.8672 56.144 76.664 54.9856C75.4608 53.8272 74.1936 50.6528 74.7088 49.0688Z" fill="#263238"/>
<path d="M90.424 45.4688C90.104 43.2928 88.4624 40.7232 86.3024 41.12L79.6336 43.36C78.9936 43.4816 79.448 44.5536 79.512 45.216L80.9616 60.256C80.9616 60.256 80.0592 60.896 79.7392 60.7744C79.721 60.768 79.7012 60.7675 79.6827 60.7729C79.6641 60.7783 79.6477 60.7893 79.6358 60.8045C79.6238 60.8196 79.6169 60.8381 79.6159 60.8574C79.6149 60.8766 79.62 60.8958 79.6304 60.912C80.44 62.08 84.2128 67.1584 88.12 65.6C88.9904 65.2512 88.0272 62.5088 88.12 61.4944L88.0048 58.8992C87.9184 57.5744 87.8768 57.0304 87.8768 57.0432C87.8768 57.056 90.6352 56.3648 90.9328 52.6752C91.0832 50.848 90.7632 47.8848 90.424 45.4688Z" fill="#FFBF9D"/>
<path d="M89.96 48.816C89.9699 48.9378 89.9321 49.0587 89.8544 49.1531C89.7768 49.2474 89.6654 49.3079 89.544 49.3216C89.4849 49.3311 89.4244 49.3286 89.3662 49.3144C89.308 49.3001 89.2533 49.2743 89.2053 49.2385C89.1572 49.2027 89.1169 49.1576 89.0866 49.1059C89.0562 49.0542 89.0366 48.997 89.0288 48.9376C89.0189 48.8158 89.0568 48.6949 89.1344 48.6006C89.2121 48.5062 89.3234 48.4457 89.4448 48.432C89.504 48.4225 89.5644 48.425 89.6226 48.4393C89.6808 48.4535 89.7355 48.4793 89.7835 48.5151C89.8316 48.5509 89.872 48.596 89.9023 48.6477C89.9326 48.6994 89.9522 48.7566 89.96 48.816Z" fill="#263238"/>
<path d="M85.416 49.1008C85.4268 49.2223 85.3897 49.3432 85.3125 49.4376C85.2354 49.5321 85.1244 49.5927 85.0032 49.6064C84.9441 49.6155 84.8838 49.6127 84.8258 49.5982C84.7678 49.5837 84.7132 49.5579 84.6653 49.5222C84.6173 49.4864 84.577 49.4415 84.5466 49.3901C84.5161 49.3386 84.4962 49.2816 84.488 49.2224C84.4781 49.1006 84.516 48.9797 84.5936 48.8854C84.6712 48.791 84.7826 48.7305 84.904 48.7168C84.963 48.7073 85.0232 48.7098 85.0812 48.7241C85.1392 48.7384 85.1937 48.7643 85.2415 48.8001C85.2893 48.836 85.3294 48.8811 85.3594 48.9327C85.3893 48.9844 85.4086 49.0415 85.416 49.1008Z" fill="#263238"/>
<path d="M90.1264 47.2736C90.0752 47.36 89.64 47.0848 89.096 47.1648C88.552 47.2448 88.2032 47.616 88.136 47.5488C88.0688 47.4816 88.136 47.3696 88.2928 47.2C88.4897 46.979 88.7589 46.8353 89.0521 46.7949C89.3453 46.7544 89.6434 46.8198 89.8928 46.9792C90.072 47.104 90.152 47.2352 90.1264 47.2736Z" fill="#263238"/>
<path d="M85.24 47.68C85.176 47.76 84.7504 47.4496 84.1648 47.4752C83.5792 47.5008 83.1632 47.8304 83.096 47.7568C83.0288 47.6832 83.1248 47.584 83.3072 47.4368C83.5466 47.2392 83.8449 47.1266 84.1552 47.1168C84.464 47.1047 84.7681 47.1959 85.0192 47.376C85.2016 47.5072 85.2688 47.6416 85.24 47.68Z" fill="#263238"/>
<path d="M87.0736 51.1264C87.332 51.0209 87.6031 50.9499 87.88 50.9152C88.0048 50.8928 88.1264 50.8576 88.1392 50.768C88.1409 50.6342 88.1006 50.5033 88.024 50.3936C87.88 50.0928 87.7296 49.776 87.5696 49.4336C86.9296 48.08 86.4656 46.9664 86.52 46.9408C86.5744 46.9152 87.1344 47.9904 87.768 49.3408C87.9216 49.6768 88.0688 49.9808 88.2064 50.3008C88.3 50.4493 88.3374 50.6263 88.312 50.8C88.2973 50.8468 88.2721 50.8896 88.2383 50.9251C88.2044 50.9607 88.1628 50.9879 88.1168 51.0048C88.0474 51.0285 87.9754 51.0436 87.9024 51.0496C87.6301 51.1079 87.3519 51.1337 87.0736 51.1264Z" fill="#263238"/>
<path d="M87.8768 57.0496C86.1632 57.2069 84.4395 56.8857 82.8976 56.1216C82.8976 56.1216 84.3216 58.5856 87.9408 57.9648L87.8768 57.0496Z" fill="#FF9A6C"/>
<path d="M85.5408 52.592C85.5979 52.4655 85.6859 52.3555 85.7968 52.272C85.9325 52.2075 86.0865 52.1928 86.232 52.2304C86.4481 52.262 86.6481 52.3631 86.8016 52.5184C86.8769 52.5968 86.93 52.6939 86.9553 52.7996C86.9806 52.9054 86.9773 53.016 86.9456 53.12C86.888 53.3312 86.5744 53.44 86.36 53.4848C86.1379 53.5172 85.9114 53.4708 85.72 53.3536C85.6367 53.3157 85.564 53.2579 85.5082 53.1854C85.4525 53.1129 85.4153 53.0278 85.4 52.9376C85.4142 52.8116 85.4629 52.692 85.5408 52.592Z" fill="#FF9A6C"/>
<path d="M85.6432 51.8848C85.7232 51.8848 85.768 52.4192 86.264 52.7712C86.76 53.1232 87.336 53.0176 87.3456 53.0912C87.3552 53.1648 87.2272 53.2064 86.9808 53.232C86.6611 53.2613 86.3413 53.1763 86.0784 52.992C85.8247 52.8169 85.65 52.5491 85.592 52.2464C85.56 52.0256 85.6048 51.8848 85.6432 51.8848Z" fill="#263238"/>
<path d="M85.1952 45.712C85.1536 45.8496 84.648 45.824 84.0624 45.9424C83.4768 46.0608 83.0128 46.2624 82.9264 46.1376C82.888 46.0832 82.9584 45.9488 83.1408 45.8016C83.3851 45.6196 83.668 45.496 83.9676 45.4406C84.2672 45.3851 84.5755 45.3991 84.8688 45.4816C85.0928 45.5456 85.2112 45.6448 85.1952 45.712Z" fill="#263238"/>
<path d="M89.816 45.44C89.7232 45.5616 89.32 45.4752 88.856 45.5072C88.392 45.5392 87.9824 45.6512 87.88 45.5392C87.8352 45.4848 87.88 45.3632 88.056 45.2416C88.2874 45.0891 88.5566 45.0038 88.8336 44.9952C89.1089 44.9754 89.3841 45.0342 89.6272 45.1648C89.7936 45.2608 89.8576 45.376 89.816 45.44Z" fill="#263238"/>
<path d="M78.1584 43.8848C78.4784 43.3664 79.0992 43.1008 79.6752 42.88C82.1628 41.9195 84.756 41.2588 87.4 40.912C87.72 41.4528 87.4256 42.192 86.9296 42.5856C86.4336 42.9792 85.7936 43.136 85.2016 43.3568C84.6096 43.5776 83.9984 43.9232 83.752 44.5088C83.5056 45.0944 83.7136 45.8656 83.4832 46.4992C83.0896 47.5936 81.5632 47.9456 81.1824 49.0368C80.888 49.8656 81.368 50.7456 81.5024 51.616C81.5638 52.0577 81.5304 52.5075 81.4042 52.9353C81.278 53.3631 81.0621 53.759 80.7707 54.0967C80.4794 54.4344 80.1193 54.7061 79.7147 54.8935C79.31 55.081 78.87 55.1801 78.424 55.184C78.2448 52.0501 78.0645 48.9184 77.8832 45.7888C77.8288 45.136 77.8032 44.432 78.1584 43.8848Z" fill="#263238"/>
<path d="M71.848 51.7984C72.344 51.3536 72.9648 50.9696 73.16 50.336C73.448 49.4112 72.7056 48.3264 73.1856 47.4848C73.6208 46.7168 74.904 46.7584 75.3104 45.9744C75.6304 45.36 75.2624 44.8192 75.3808 44.2816C75.4992 43.744 76.2672 43.2736 76.8112 43.3376L81.08 49.536C81.4768 51.616 81.8768 52.736 81.432 53.9392C81.1378 54.587 80.9157 55.2652 80.7696 55.9616C80.6736 56.6656 80.856 57.4624 81.4288 57.8816C78.8688 58.0832 76.4752 56.7456 74.2608 55.4496L71.928 54.08C71.6726 53.9578 71.4524 53.7728 71.288 53.5424C70.9392 52.9728 71.3552 52.24 71.848 51.7984Z" fill="#263238"/>
<path d="M74.2064 54.8192C74.2957 54.8479 74.3881 54.8662 74.4816 54.8736C74.7485 54.8991 75.0179 54.8796 75.2784 54.816C75.6942 54.7164 76.0769 54.5102 76.3888 54.2176C76.8007 53.8212 77.0592 53.2918 77.1184 52.7232C77.1569 52.3935 77.1286 52.0594 77.0352 51.7408C76.9204 51.4013 76.7612 51.0785 76.5616 50.7808C76.35 50.4786 76.1849 50.1464 76.072 49.7952C76.012 49.6157 75.9932 49.4249 76.0171 49.2371C76.0409 49.0493 76.1067 48.8693 76.2096 48.7104C76.44 48.3904 76.872 48.3232 77.2752 48.1632C77.493 48.0849 77.6824 47.9434 77.8192 47.7568C77.9452 47.5572 78.0066 47.3237 77.9952 47.088C77.9398 46.6362 77.8424 46.1905 77.704 45.7568C77.6549 45.5463 77.6549 45.3273 77.704 45.1168C77.7603 44.9045 77.8909 44.7195 78.072 44.5952C78.4614 44.3707 78.9025 44.2516 79.352 44.2496C79.8172 44.2342 80.2708 44.101 80.6704 43.8624C81.0592 43.6254 81.3749 43.2854 81.5824 42.88C81.7527 42.4908 81.8607 42.0772 81.9024 41.6544C81.9468 41.263 82.0304 40.8771 82.152 40.5024C82.2868 40.1617 82.4917 39.8531 82.7536 39.5968C83.2366 39.1385 83.8601 38.8566 84.5232 38.7968C85.0761 38.7495 85.631 38.8605 86.1232 39.1168C86.4934 39.3062 86.8271 39.5597 87.1088 39.8656C87.3442 40.1326 87.5482 40.4257 87.7168 40.7392C87.7168 40.7392 87.7168 40.7168 87.6944 40.672C87.6681 40.6085 87.6382 40.5465 87.6048 40.4864C87.4826 40.2541 87.3333 40.0371 87.16 39.84C86.8785 39.5218 86.5426 39.2564 86.168 39.056C85.6706 38.7826 85.1055 38.6572 84.5392 38.6944C83.8443 38.7453 83.1879 39.0334 82.68 39.5104C82.4002 39.7807 82.1819 40.1081 82.04 40.4704C81.9131 40.852 81.8252 41.2455 81.7776 41.6448C81.7332 42.0537 81.6252 42.4532 81.4576 42.8288C81.2625 43.2065 80.9682 43.524 80.6064 43.7472C80.2251 43.9709 79.7938 44.0952 79.352 44.1088C78.8705 44.1078 78.3975 44.236 77.9824 44.48C77.7747 44.6213 77.6248 44.8325 77.56 45.0752C77.5039 45.3119 77.5039 45.5585 77.56 45.7952C77.6955 46.2207 77.7919 46.6577 77.848 47.1008C77.8612 47.3066 77.8097 47.5113 77.7008 47.6864C77.5772 47.8488 77.4094 47.9721 77.2176 48.0416C77.0288 48.1216 76.824 48.176 76.6256 48.2592C76.419 48.3372 76.2368 48.4686 76.0976 48.64C75.9846 48.8167 75.9122 49.0163 75.8856 49.2243C75.859 49.4324 75.879 49.6438 75.944 49.8432C76.0638 50.2057 76.2363 50.5486 76.456 50.8608C76.6509 51.1437 76.807 51.4516 76.92 51.776C77.0107 52.0786 77.0411 52.3961 77.0096 52.7104C76.9571 53.2577 76.7149 53.7694 76.3248 54.1568C76.0262 54.4459 75.6581 54.6531 75.256 54.7584C74.9136 54.8478 74.5568 54.8685 74.2064 54.8192Z" fill="#455A64"/>
<path d="M70.7952 50.4128C70.7533 50.4756 70.725 50.5464 70.712 50.6208C70.6694 50.8403 70.7081 51.0677 70.8208 51.2608C70.8989 51.3986 71.0085 51.516 71.1408 51.6032C71.3056 51.7029 71.4953 51.754 71.688 51.7504C71.9221 51.7453 72.1503 51.676 72.3478 51.5502C72.5452 51.4244 72.7044 51.2468 72.808 51.0368C72.9297 50.7958 72.9922 50.5292 72.9904 50.2592C72.9827 49.969 72.9219 49.6827 72.8112 49.4144C72.6096 48.8608 72.2384 48.32 72.232 47.6736C72.2199 47.5144 72.24 47.3545 72.2911 47.2033C72.3423 47.0521 72.4234 46.9127 72.5296 46.7936C72.789 46.5794 73.1224 46.4759 73.4576 46.5056C73.8306 46.5329 74.2054 46.4939 74.5648 46.3904C74.7531 46.3137 74.9122 46.1793 75.0192 46.0064C75.1222 45.8346 75.1866 45.6424 75.208 45.4432C75.2264 45.0611 75.1952 44.6781 75.1152 44.304C75.0579 43.9529 75.0787 43.5934 75.176 43.2512C75.3574 42.598 75.7822 42.0391 76.3632 41.6896C76.9146 41.4087 77.5268 41.268 78.1456 41.28C78.6955 41.2813 79.2421 41.1948 79.7648 41.024C80.1898 40.8681 80.5793 40.6287 80.9104 40.32C81.164 40.0857 81.3798 39.8137 81.5504 39.5136C81.7005 39.2647 81.8035 38.9902 81.8544 38.704C81.7591 38.9742 81.6403 39.2355 81.4992 39.4848C81.096 40.1576 80.4751 40.6725 79.7392 40.944C79.2209 41.1026 78.6812 41.1803 78.1392 41.1744C77.5024 41.1565 76.8712 41.2972 76.3024 41.584C75.6915 41.9422 75.2405 42.5203 75.0416 43.2C74.9392 43.5609 74.9163 43.9398 74.9744 44.3104C75.0493 44.6723 75.0804 45.0419 75.0672 45.4112C75.0596 45.5868 75.004 45.7569 74.9064 45.9031C74.8088 46.0492 74.6729 46.1658 74.5136 46.24C74.1716 46.3371 73.8152 46.3728 73.4608 46.3456C73.0896 46.3131 72.7206 46.4281 72.4336 46.6656C72.3164 46.7991 72.2276 46.955 72.1725 47.1239C72.1175 47.2928 72.0975 47.4711 72.1136 47.648C72.1277 47.9802 72.2071 48.3064 72.3472 48.608C72.472 48.896 72.6096 49.1648 72.7152 49.4336C72.8226 49.6884 72.8833 49.9605 72.8944 50.2368C72.8988 50.4892 72.844 50.739 72.7344 50.9664C72.6415 51.1626 72.4967 51.3295 72.3156 51.4491C72.1345 51.5687 71.9241 51.6364 71.7072 51.6448C71.5293 51.6512 71.3531 51.608 71.1984 51.52C71.0659 51.4427 70.9557 51.3325 70.8784 51.2C70.7662 51.0219 70.7198 50.8103 70.7472 50.6016C70.7632 50.4864 70.8048 50.416 70.7952 50.4128Z" fill="#263238"/>
<path d="M97.7488 51.9392C97.8249 52.1556 97.8249 52.3916 97.7488 52.608C97.7066 52.7323 97.6369 52.8454 97.5449 52.939C97.4529 53.0326 97.3411 53.1043 97.2176 53.1488C97.0529 53.1973 96.878 53.1991 96.7125 53.1539C96.5469 53.1087 96.3971 53.0183 96.28 52.8928C96.1456 52.7451 96.0674 52.5548 96.0592 52.3552C96.053 52.1376 96.0867 51.9207 96.1584 51.7152C96.2928 51.2832 96.5712 50.8128 96.5296 50.2464C96.5094 49.9592 96.4295 49.6794 96.2951 49.4249C96.1606 49.1703 95.9746 48.9466 95.7488 48.768C95.5124 48.5787 95.2419 48.4364 94.952 48.3488C94.6558 48.2667 94.3505 48.2226 94.0432 48.2176C93.7454 48.2151 93.4486 48.1841 93.1568 48.1248C92.8844 48.0686 92.6407 47.9179 92.4688 47.6992C92.3166 47.4748 92.2312 47.2118 92.2224 46.9408C92.2082 46.6767 92.2297 46.4119 92.2864 46.1536C92.4269 45.6663 92.5043 45.163 92.5168 44.656C92.491 44.2059 92.3317 43.7736 92.0592 43.4144C91.8287 43.1294 91.5465 42.8905 91.2272 42.7104C90.9939 42.5724 90.7705 42.4184 90.5584 42.2496C90.3845 42.1007 90.2429 41.9177 90.1424 41.712C90.1424 41.712 90.1424 41.712 90.1424 41.7568C90.155 41.8001 90.1722 41.8419 90.1936 41.8816C90.2734 42.0371 90.382 42.1761 90.5136 42.2912C90.721 42.4718 90.9425 42.6355 91.176 42.7808C91.4813 42.9624 91.7503 43.1989 91.9696 43.4784C92.2232 43.8227 92.3681 44.2351 92.3856 44.6624C92.3666 45.1579 92.286 45.6492 92.1456 46.1248C92.0837 46.3954 92.0589 46.6731 92.072 46.9504C92.0839 47.249 92.1793 47.5384 92.3472 47.7856C92.538 48.0325 92.8101 48.2037 93.1152 48.2688C93.4154 48.3304 93.7208 48.3636 94.0272 48.368C94.3234 48.3719 94.6179 48.4127 94.904 48.4896C95.1755 48.574 95.4293 48.7074 95.6528 48.8832C95.8631 49.049 96.0368 49.2566 96.1629 49.4929C96.2891 49.7291 96.3649 49.989 96.3856 50.256C96.4304 50.7712 96.1744 51.216 96.0336 51.68C95.9596 51.9026 95.9271 52.1369 95.9376 52.3712C95.9515 52.5948 96.0432 52.8065 96.1968 52.9696C96.3282 53.1073 96.4958 53.2052 96.6803 53.2522C96.8647 53.2992 97.0587 53.2933 97.24 53.2352C97.3724 53.1838 97.4914 53.103 97.5879 52.9987C97.6844 52.8945 97.7558 52.7696 97.7968 52.6336C97.8548 52.4668 97.8637 52.2869 97.8224 52.1152C97.8085 52.0526 97.7836 51.993 97.7488 51.9392Z" fill="#263238"/>
<path d="M94.6896 77.0048V73.4656C95.0864 71.4784 94.8976 69.1232 93.9728 67.3088C93.3019 66.1393 92.5602 65.0119 91.752 63.9328L88.232 59.36C86.2928 60.7712 83.256 59.7504 80.6512 58.8032C80.6512 58.8032 78.0912 60.2272 76.8816 61.5648C75.624 62.9728 79.9248 80.5888 79.9248 80.5888C77.976 84.4864 75.4608 87.9488 75.08 91.5008L95.432 92.2848L94.568 82.9536L94.6896 77.0048Z" fill="#455A64"/>
<path d="M94.408 83.0528C94.3878 82.9205 94.3824 82.7863 94.392 82.6528C94.392 82.3616 94.392 82.0128 94.392 81.568C94.408 80.608 94.4272 79.3696 94.4496 77.9904C94.472 76.6112 94.5136 75.328 94.5584 74.4128C94.5808 73.9552 94.6032 73.584 94.6224 73.328C94.6246 73.1953 94.6418 73.0633 94.6736 72.9344C94.6866 73.0664 94.6866 73.1993 94.6736 73.3312C94.6736 73.6224 94.6736 73.9712 94.6736 74.416C94.6576 75.376 94.6352 76.6144 94.6128 77.9936C94.5904 79.3728 94.552 80.656 94.5072 81.5712C94.4848 82.0288 94.4624 82.4 94.44 82.656C94.445 82.7891 94.4343 82.9223 94.408 83.0528Z" fill="#263238"/>
<path d="M103.704 86.272C103.704 86.272 105.688 86.3808 106.904 87.1488C108.12 87.9168 110.104 89.1136 110.92 90.5952C111.294 91.2768 110.229 91.4208 109.701 91.0272C109.173 90.6336 108.37 89.8848 107.97 89.7952L107.57 89.7024C107.935 90.5289 108.342 91.3364 108.789 92.1216C109.202 92.7616 109.56 93.824 108.318 93.872C108.318 93.872 107.483 94.96 106.638 94.1536C106.638 94.1536 105.979 95.1424 104.917 93.7728C104.917 93.7728 104.296 94.5568 104.04 94.256C103.784 93.9552 102.936 93.4816 102.69 92.5024C102.32 91.3626 101.893 90.2422 101.41 89.1456L103.704 86.272Z" fill="#FFBF9D"/>
<path d="M148.123 58.7712C148.344 58.7712 157.429 57.8112 157.429 57.8112C157.429 57.8112 158.2 54.1184 158.158 53.1584C158.117 52.1984 157.47 45.8464 157.47 45.8464L160.872 44.2464C160.872 44.2464 165.419 59.5808 164.427 60.8544C163.435 62.128 161.57 63.2704 161.41 63.2768C161.25 63.2832 152.606 67.1168 146.594 65.1232C140.581 63.1296 148.123 58.7712 148.123 58.7712Z" fill="#FFBF9D"/>
<path d="M140.162 67.0496C141.499 68.3776 143.803 69.4816 147.65 68.5216C155.253 66.6208 160.952 65.0016 163.218 63.7856C165.483 62.5696 164.6 57.136 164.792 56.8896C165.365 56.1472 164.734 54.5536 163.918 54.304C161.592 53.6 157.544 53.8784 157.339 54.0896C156.146 55.344 157.234 56.8672 157.234 56.8672L147.208 58.1824C145.975 58.1246 144.74 58.203 143.525 58.416" fill="#455A64"/>
<path d="M143.525 58.416L143.765 58.3648C143.925 58.336 144.162 58.2944 144.475 58.256C145.382 58.1418 146.298 58.1032 147.211 58.1408L157.234 56.7968L157.186 56.9088C156.856 56.4244 156.695 55.8457 156.725 55.2608C156.752 54.9583 156.851 54.6666 157.013 54.4096C157.094 54.2805 157.186 54.1585 157.288 54.0448C157.328 54.0151 157.372 53.9914 157.419 53.9744L157.534 53.9456C157.611 53.9264 157.685 53.92 157.758 53.904C159 53.7608 160.253 53.7351 161.499 53.8272C162.154 53.8671 162.804 53.9569 163.445 54.096C163.605 54.1312 163.765 54.1792 163.931 54.2208C164.102 54.2752 164.258 54.3671 164.389 54.4896C164.643 54.7314 164.837 55.0295 164.955 55.36C165.082 55.691 165.127 56.0478 165.086 56.4C165.057 56.5833 164.988 56.758 164.885 56.912C164.856 56.944 164.859 57.0304 164.856 57.1136V57.3696C164.878 58.0576 164.91 58.7584 164.891 59.4624C164.896 60.4618 164.733 61.4549 164.408 62.4C164.241 62.8735 163.954 63.2957 163.576 63.6256C163.38 63.7788 163.165 63.9057 162.936 64.0032C162.725 64.1152 162.501 64.2016 162.296 64.304C161.419 64.6784 160.539 64.9856 159.672 65.264C158.805 65.5424 157.954 65.8112 157.112 66.0576C153.765 67.0176 150.712 67.7952 148.171 68.432C147.564 68.5925 146.949 68.7196 146.328 68.8128C145.772 68.8903 145.21 68.9203 144.648 68.9024C143.746 68.8831 142.856 68.6897 142.027 68.3328C141.507 68.1034 141.023 67.8018 140.587 67.4368C140.434 67.3128 140.29 67.1769 140.158 67.0304C140.158 67.0304 140.306 67.1712 140.61 67.4112C141.051 67.763 141.537 68.0536 142.056 68.2752C142.88 68.6152 143.76 68.7965 144.651 68.8096C145.207 68.8229 145.762 68.7887 146.312 68.7072C146.929 68.6099 147.54 68.4796 148.142 68.3168C150.702 67.6768 153.73 66.8896 157.067 65.9104C157.902 65.664 158.754 65.4016 159.627 65.1136C160.501 64.8256 161.368 64.5216 162.235 64.1536C162.446 64.0544 162.667 63.968 162.875 63.856C163.089 63.7619 163.29 63.6415 163.474 63.4976C163.831 63.1872 164.101 62.7891 164.258 62.3424C164.573 61.4098 164.73 60.4309 164.722 59.4464C164.741 58.7456 164.722 58.0512 164.686 57.36V57.0976C164.686 57.0528 164.686 57.008 164.686 56.96C164.684 56.9345 164.684 56.9087 164.686 56.8832C164.694 56.8634 164.702 56.8442 164.712 56.8256L164.728 56.8C164.818 56.6688 164.877 56.5189 164.901 56.3616C164.938 56.0362 164.895 55.7066 164.776 55.4016C164.669 55.096 164.491 54.8198 164.258 54.5952C164.144 54.4889 164.009 54.4091 163.861 54.3616C163.701 54.32 163.541 54.2752 163.384 54.2368C162.752 54.0997 162.11 54.0109 161.464 53.9712C160.23 53.8769 158.991 53.9005 157.762 54.0416C157.688 54.0416 157.614 54.0608 157.544 54.08L157.442 54.1024C157.419 54.1111 157.398 54.1218 157.378 54.1344C157.281 54.2395 157.194 54.353 157.118 54.4736C156.966 54.709 156.874 54.9782 156.85 55.2576C156.822 55.8076 156.972 56.3519 157.278 56.8096L157.342 56.9088H157.23L147.202 58.1888C146.293 58.1427 145.383 58.1684 144.478 58.2656C144.158 58.2976 143.925 58.3328 143.765 58.3552C143.605 58.3776 143.525 58.416 143.525 58.416Z" fill="#263238"/>
<path d="M116.38 68.8377L112.297 61.5009L189.535 18.5104C190.425 18.0151 191.475 17.8936 192.455 18.1726C193.434 18.4516 194.263 19.1082 194.758 19.9981L195.108 20.6272C195.603 21.5171 195.725 22.5673 195.446 23.5468C195.167 24.5262 194.51 25.3547 193.62 25.85L116.382 68.8405L116.38 68.8377Z" fill="#FFD712"/>
<path d="M181.148 30.0359L171.691 13.0442C171.645 12.962 171.616 12.8715 171.605 12.778C171.594 12.6845 171.602 12.5898 171.628 12.4992C171.654 12.4087 171.697 12.3241 171.755 12.2504C171.814 12.1766 171.886 12.1151 171.969 12.0693L176.308 9.65395C176.39 9.60817 176.481 9.57903 176.574 9.56821C176.668 9.55739 176.763 9.5651 176.853 9.59089C176.944 9.61668 177.028 9.66005 177.102 9.71851C177.176 9.77698 177.237 9.84941 177.283 9.93166L186.741 26.9234L181.148 30.0359Z" fill="#FFD712"/>
<path d="M162.543 22.1237L169.436 34.5075C169.715 35.0078 170.346 35.1877 170.846 34.9092L174.627 32.8051C175.127 32.5266 175.307 31.8953 175.028 31.3949L168.135 19.0111C167.857 18.5108 167.226 18.331 166.725 18.6094L162.945 20.7135C162.445 20.992 162.265 21.6234 162.543 22.1237Z" fill="#FFD712"/>
<path d="M168.629 21.4005L172.896 29.0673L181.581 24.2335L177.314 16.5667L168.629 21.4005Z" fill="#FFD712"/>
<path d="M188.405 19.1552C188.427 19.1936 173.269 27.6736 154.555 38.0928C135.842 48.512 120.635 56.928 120.635 56.8864C120.635 56.8448 135.768 48.368 154.488 37.9456C173.208 27.5232 188.382 19.1136 188.405 19.1552Z" fill="#263238"/>
<path d="M85.0992 83.0112C90.7952 93.2512 102.805 97.4112 111.925 92.3392C121.045 87.2672 123.829 74.8512 118.133 64.624C112.437 54.3968 100.43 50.224 91.3072 55.296C82.184 60.368 79.4064 72.784 85.0992 83.0112ZM113.192 67.376C117.182 74.544 115.234 83.2384 108.84 86.7936C102.446 90.3488 94.0336 87.4336 90.0432 80.2592C86.0528 73.0848 88.0016 64.3968 94.392 60.8384C100.782 57.28 109.202 60.208 113.192 67.376Z" fill="#FFD712"/>
<path d="M125.298 54.1756L129.513 61.7474C130.073 62.7542 131.344 63.1162 132.35 62.5558L132.692 62.3659C133.698 61.8055 134.06 60.535 133.5 59.5282L129.285 51.9564C128.725 50.9496 127.455 50.5877 126.448 51.1481L126.107 51.3379C125.1 51.8983 124.738 53.1688 125.298 54.1756Z" fill="#FFD712"/>
<path d="M133.392 49.6704L137.606 57.2422C138.167 58.249 139.437 58.6109 140.444 58.0505L140.785 57.8607C141.792 57.3003 142.154 56.0298 141.594 55.0229L137.379 47.4512C136.819 46.4444 135.548 46.0824 134.541 46.6428L134.2 46.8327C133.194 47.3931 132.832 48.6636 133.392 49.6704Z" fill="#FFD712"/>
<path d="M129.195 51.84C129.237 51.8176 130.213 53.536 131.381 55.68C132.549 57.824 133.461 59.5712 133.419 59.5936C133.378 59.616 132.402 57.9008 131.234 55.7536C130.066 53.6064 129.154 51.84 129.195 51.84Z" fill="#263238"/>
<path d="M125.48 54.48C125.522 54.4576 126.475 56.0992 127.614 58.1408C128.754 60.1824 129.64 61.8624 129.602 61.8848C129.563 61.9072 128.606 60.2656 127.48 58.24C126.354 56.2144 125.442 54.5024 125.48 54.48Z" fill="#263238"/>
<path d="M137.339 47.3824C137.381 47.36 138.376 49.0688 139.563 51.2C140.75 53.3312 141.678 55.0816 141.637 55.104C141.595 55.1264 140.603 53.4144 139.416 51.2832C138.229 49.152 137.301 47.4048 137.339 47.3824Z" fill="#263238"/>
<path d="M133.432 49.7408C133.47 49.7184 134.446 51.4176 135.605 53.536C136.763 55.6544 137.675 57.376 137.634 57.4112C137.592 57.4464 136.622 55.7344 135.461 53.616C134.299 51.4976 133.39 49.7632 133.432 49.7408Z" fill="#263238"/>
<path d="M156.642 38.1984C157.014 38.2423 157.39 38.1459 157.695 37.928C158.001 37.7102 158.214 37.3865 158.294 37.0199C158.374 36.6533 158.314 36.2701 158.127 35.945C157.94 35.6198 157.639 35.3759 157.282 35.2608C157.512 35.0245 157.663 34.7215 157.712 34.3948C157.761 34.0682 157.706 33.7343 157.555 33.4406C157.404 33.1468 157.164 32.908 156.87 32.758C156.576 32.608 156.242 32.5544 155.915 32.6048C155.902 32.2799 155.804 31.964 155.633 31.6878C155.461 31.4116 155.221 31.1845 154.936 31.0286C154.65 30.8727 154.329 30.7933 154.004 30.7981C153.679 30.8029 153.361 30.8917 153.08 31.056C152.714 30.7568 152.259 30.5886 151.786 30.5782C151.313 30.5677 150.851 30.7156 150.472 30.9984C150.154 30.9376 149.824 30.9811 149.533 31.1223C149.241 31.2634 149.003 31.4949 148.853 31.7822C148.703 32.0695 148.65 32.3975 148.701 32.7174C148.752 33.0374 148.906 33.3323 149.138 33.5584" fill="#263238"/>
<path d="M150.149 32.4896H150.469C152.082 32.491 153.636 33.0999 154.821 34.1951C156.006 35.2904 156.735 36.7916 156.862 38.4C157.102 41.5008 157.326 44.928 157.301 46.592C157.24 50.048 153.803 50.56 153.803 50.56L154.082 54.7008L145.72 54.4288L145.026 39.4208C144.731 35.84 146.565 32.688 150.149 32.4896Z" fill="#FFBF9D"/>
<path d="M153.832 50.56C152.232 50.5556 150.668 50.0925 149.323 49.2256C149.323 49.2256 150.43 51.8336 153.867 51.5328L153.832 50.56Z" fill="#FF9A6C"/>
<path d="M154.971 41.648C154.972 41.7762 154.923 41.8997 154.833 41.9918C154.744 42.084 154.623 42.1375 154.494 42.1408C154.432 42.1451 154.369 42.137 154.31 42.117C154.251 42.0969 154.196 42.0653 154.149 42.0239C154.102 41.9826 154.063 41.9323 154.036 41.876C154.008 41.8197 153.992 41.7585 153.989 41.696C153.989 41.5677 154.038 41.4444 154.127 41.3519C154.216 41.2594 154.337 41.205 154.466 41.2C154.528 41.1957 154.591 41.2039 154.651 41.2241C154.71 41.2444 154.765 41.2763 154.812 41.318C154.859 41.3597 154.898 41.4104 154.925 41.467C154.952 41.5237 154.968 41.5852 154.971 41.648Z" fill="#263238"/>
<path d="M156.117 40.0928C156.056 40.1568 155.682 39.8816 155.157 39.8816C154.632 39.8816 154.238 40.144 154.181 40.08C154.123 40.016 154.216 39.936 154.386 39.8112C154.615 39.6535 154.888 39.5707 155.166 39.5744C155.442 39.5732 155.71 39.6608 155.931 39.824C156.091 39.9488 156.146 40.0672 156.117 40.0928Z" fill="#263238"/>
<path d="M150.2 41.4176C150.203 41.5478 150.154 41.6737 150.064 41.7678C149.974 41.8619 149.85 41.9166 149.72 41.92C149.658 41.9243 149.595 41.9162 149.535 41.8962C149.476 41.8761 149.421 41.8445 149.374 41.8031C149.327 41.7618 149.289 41.7115 149.262 41.6552C149.234 41.5989 149.218 41.5377 149.214 41.4752C149.213 41.3467 149.263 41.2229 149.352 41.1302C149.441 41.0376 149.563 40.9834 149.691 40.9792C149.753 40.9744 149.816 40.982 149.875 41.0014C149.935 41.0209 149.989 41.0519 150.037 41.0926C150.084 41.1334 150.123 41.183 150.151 41.2388C150.179 41.2946 150.196 41.3553 150.2 41.4176Z" fill="#263238"/>
<path d="M150.914 40.176C150.853 40.24 150.478 39.9648 149.954 39.9648C149.429 39.9648 149.035 40.2272 148.978 40.1632C148.92 40.0992 149.013 40.0192 149.182 39.8944C149.412 39.7367 149.685 39.6539 149.963 39.6576C150.238 39.6564 150.507 39.744 150.728 39.9072C150.888 40.032 150.942 40.1472 150.914 40.176Z" fill="#263238"/>
<path d="M152.821 44.1088C153.1 44.021 153.389 43.9694 153.682 43.9552C153.816 43.9552 153.944 43.9168 153.97 43.824C153.981 43.6847 153.95 43.5452 153.88 43.424L153.483 42.3936C152.933 40.9248 152.523 39.7184 152.594 39.6992C152.664 39.68 153.147 40.848 153.698 42.3136C153.829 42.6752 153.957 43.0208 154.078 43.3504C154.161 43.5144 154.185 43.7021 154.146 43.8816C154.126 43.929 154.095 43.9712 154.056 44.005C154.017 44.0389 153.971 44.0634 153.922 44.0768C153.848 44.0987 153.771 44.1095 153.694 44.1088C153.404 44.1451 153.111 44.1451 152.821 44.1088Z" fill="#263238"/>
<path d="M151.378 38.1408C151.307 38.2752 150.856 38.1408 150.296 38.1088C149.736 38.0768 149.269 38.1824 149.218 38.0416C149.195 37.9744 149.294 37.856 149.496 37.7472C149.756 37.6187 150.045 37.5592 150.334 37.5744C150.622 37.5846 150.901 37.6707 151.144 37.824C151.326 37.9488 151.41 38.08 151.378 38.1408Z" fill="#263238"/>
<path d="M156.149 37.9136C156.037 38.032 155.598 37.9136 155.074 37.9136C154.549 37.9136 154.114 37.9936 154.002 37.8656C153.957 37.8048 154.027 37.6832 154.222 37.5712C154.491 37.4303 154.793 37.3629 155.096 37.376C155.398 37.3801 155.693 37.4652 155.95 37.6224C156.136 37.7312 156.197 37.8528 156.149 37.9136Z" fill="#263238"/>
<path d="M156.536 36.832C156.536 36.832 155.634 34.672 154.594 34.1664C153.336 33.552 152.792 34.9312 151.592 34.592C150.392 34.2528 149.192 33.6672 147.963 34.592C146.619 35.6032 147.246 36.3168 147.157 37.8464C146.805 44.0416 145.666 45.7888 145.355 42.8704C145.32 42.5504 144.434 42.2944 144.306 40.9504C144.139 39.2 144.078 37.072 144.475 35.8304C144.795 34.784 145.406 34.0608 146.478 33.2704C148.174 32.016 150.498 31.9904 152.075 32.16C153.653 32.3296 156.686 34.1312 156.536 36.832Z" fill="#263238"/>
<path d="M145.573 42.7744C145.569 42.648 145.54 42.5236 145.487 42.4088C145.434 42.294 145.358 42.1911 145.264 42.1064C145.17 42.0218 145.06 41.957 144.941 41.9162C144.821 41.8753 144.694 41.8592 144.568 41.8688C143.928 41.9296 143.208 42.2912 143.246 43.6192C143.314 45.9744 145.666 45.4208 145.669 45.3504C145.672 45.28 145.611 43.76 145.573 42.7744Z" fill="#FFBF9D"/>
<path d="M145.128 44.48C145.128 44.48 145.09 44.512 145.019 44.544C144.924 44.5879 144.815 44.5936 144.715 44.56C144.56 44.4681 144.432 44.3362 144.345 44.1781C144.257 44.0199 144.214 43.8413 144.219 43.6608C144.207 43.4598 144.24 43.2587 144.315 43.072C144.336 42.9982 144.374 42.9305 144.426 42.8747C144.478 42.819 144.544 42.7769 144.616 42.752C144.663 42.7377 144.713 42.7405 144.758 42.7598C144.804 42.7791 144.84 42.8138 144.862 42.8576C144.894 42.9216 144.882 42.9696 144.894 42.9728C144.907 42.976 144.942 42.9312 144.92 42.8352C144.907 42.7768 144.873 42.7254 144.824 42.6912C144.792 42.6674 144.755 42.6504 144.716 42.641C144.677 42.6317 144.636 42.6303 144.597 42.6368C144.5 42.6585 144.411 42.7046 144.338 42.7708C144.264 42.8369 144.209 42.9208 144.178 43.0144C144.082 43.2206 144.04 43.447 144.053 43.6736C144.082 44.1472 144.338 44.5856 144.693 44.6752C144.756 44.6919 144.823 44.694 144.887 44.6812C144.951 44.6685 145.012 44.6412 145.064 44.6016C145.128 44.5376 145.138 44.48 145.128 44.48Z" fill="#FF9A6C"/>
<path d="M145.634 38.2112C145.922 38.446 146.264 38.6055 146.629 38.6752C146.812 38.7039 147 38.6653 147.157 38.5665C147.314 38.4677 147.43 38.3153 147.483 38.1376C147.512 37.9744 147.483 37.7824 147.579 37.6576C147.675 37.5328 147.947 37.5552 148.142 37.5776C148.827 37.6512 149.63 36.896 149.806 36.2304C149.895 36.3581 150.03 36.447 150.182 36.4791C150.334 36.5112 150.493 36.4841 150.626 36.4032C150.843 36.2702 151.036 36.1002 151.195 35.9008C151.288 35.7739 151.41 35.6712 151.551 35.6015C151.692 35.5319 151.848 35.4973 152.005 35.5008C152.171 35.558 152.342 35.5956 152.517 35.6128C152.837 35.5872 152.978 35.2256 153.026 34.9184C153.074 34.6112 153.112 34.256 153.374 34.0896C153.644 33.9841 153.941 33.9762 154.216 34.0672C154.501 34.112 154.856 34.0448 154.942 33.7664C154.954 33.692 154.951 33.616 154.933 33.5429C154.915 33.4698 154.882 33.4011 154.837 33.3408C154.646 33.0554 154.365 32.8426 154.039 32.7369C153.712 32.6312 153.36 32.6388 153.038 32.7584C152.925 32.3646 152.697 32.0134 152.384 31.7495C152.07 31.4857 151.685 31.3212 151.278 31.2769C150.87 31.2326 150.459 31.3106 150.096 31.5009C149.733 31.6913 149.435 31.9853 149.24 32.3456C148.991 32.1174 148.69 31.9528 148.363 31.8658C148.037 31.7789 147.694 31.7723 147.364 31.8465C147.035 31.9206 146.728 32.0734 146.47 32.2919C146.212 32.5103 146.011 32.7878 145.883 33.1008C145.595 33.024 145.291 33.0335 145.008 33.1283C144.725 33.2231 144.477 33.399 144.293 33.634C144.11 33.869 144 34.1527 143.976 34.45C143.953 34.7472 144.017 35.0448 144.162 35.3056C143.942 35.4139 143.754 35.5761 143.615 35.7771C143.475 35.978 143.389 36.2111 143.365 36.4544C143.365 36.9408 143.829 37.4144 144.299 37.2992C144.202 37.4909 144.181 37.7126 144.242 37.9189C144.303 38.1252 144.44 38.3004 144.626 38.4085C144.812 38.5166 145.032 38.5494 145.242 38.5002C145.451 38.4511 145.634 38.3236 145.752 38.144" fill="#263238"/>
<path d="M153.211 33.4496C153.211 33.4496 153.211 33.4496 153.211 33.4944C153.211 33.5392 153.211 33.5648 153.195 33.6192C153.162 33.7789 153.104 33.9323 153.022 34.0736C152.892 34.295 152.714 34.4843 152.501 34.6272C152.219 34.8196 151.882 34.915 151.541 34.8992L151.579 34.848C151.648 35.0593 151.631 35.2894 151.531 35.488C151.425 35.6985 151.29 35.8926 151.128 36.064C151.05 36.164 150.96 36.2552 150.862 36.336C150.688 36.4505 150.479 36.4995 150.272 36.4744C150.066 36.4492 149.874 36.3514 149.733 36.1984L149.819 36.1728C149.786 36.4173 149.702 36.6522 149.573 36.8622C149.443 37.0722 149.271 37.2527 149.067 37.392C148.843 37.5584 148.572 37.6471 148.293 37.6448C148.031 37.6305 147.774 37.5732 147.531 37.4752L147.595 37.4464C147.472 37.7314 147.279 37.981 147.035 38.1728C146.924 38.2683 146.792 38.3377 146.651 38.3759C146.509 38.4141 146.36 38.4201 146.216 38.3936C145.968 38.3398 145.742 38.2148 145.565 38.034C145.387 37.8532 145.267 37.6245 145.218 37.376L145.272 37.4016C145.023 37.5306 144.738 37.5712 144.462 37.5168C144.257 37.4777 144.065 37.3911 143.899 37.264C143.796 37.1833 143.708 37.0859 143.637 36.976C143.611 36.9378 143.591 36.8957 143.579 36.8512C143.669 36.9984 143.785 37.1275 143.922 37.232C144.085 37.3499 144.273 37.4278 144.472 37.4592C144.733 37.5087 145.004 37.4657 145.237 37.3376L145.282 37.312V37.3632C145.33 37.5945 145.445 37.8066 145.612 37.9737C145.779 38.1408 145.991 38.2555 146.222 38.304C146.354 38.327 146.49 38.3203 146.619 38.2843C146.748 38.2484 146.867 38.184 146.968 38.096C147.197 37.9137 147.378 37.6773 147.493 37.408L147.512 37.3664H147.557C147.788 37.4596 148.034 37.5136 148.283 37.5264C148.541 37.5285 148.793 37.4465 149 37.2928C149.192 37.1612 149.354 36.991 149.476 36.7933C149.599 36.5955 149.678 36.3743 149.71 36.144V36.032L149.784 36.1184C149.867 36.2103 149.972 36.2805 150.088 36.3229C150.205 36.3653 150.33 36.3786 150.453 36.3616C150.567 36.3463 150.677 36.3047 150.773 36.24C150.865 36.1655 150.949 36.0807 151.022 35.9872C151.181 35.8239 151.314 35.6385 151.419 35.4368C151.466 35.347 151.495 35.2486 151.504 35.1475C151.513 35.0465 151.501 34.9446 151.47 34.848L151.451 34.7904H151.512C151.839 34.8107 152.163 34.7242 152.437 34.544C152.647 34.4088 152.824 34.2284 152.955 34.016C153.073 33.8438 153.16 33.652 153.211 33.4496Z" fill="#455A64"/>
<path d="M152.814 45.8656C152.795 45.7792 152.222 45.92 151.691 45.5296C151.16 45.1392 151.074 44.512 150.994 44.528C150.914 44.544 150.914 44.6944 150.971 44.9536C151.05 45.2918 151.246 45.5911 151.525 45.7984C151.791 45.9967 152.124 46.0839 152.453 46.0416C152.699 46.0032 152.827 45.904 152.814 45.8656Z" fill="#263238"/>
<path d="M170.562 135.398L172.834 143.139C172.834 143.139 181.474 143.427 182.027 144.819L167.16 149.76L163.122 137.84L170.562 135.398Z" fill="#455A64"/>
<path d="M168.027 144.026C167.899 144.117 167.809 144.252 167.774 144.406C167.739 144.559 167.762 144.72 167.838 144.858C167.924 144.989 168.058 145.083 168.211 145.119C168.364 145.155 168.525 145.132 168.661 145.053C168.797 144.956 168.892 144.812 168.928 144.649C168.964 144.486 168.938 144.315 168.856 144.17C168.752 144.041 168.602 143.958 168.438 143.938C168.274 143.918 168.108 143.962 167.976 144.061" fill="#EEEEED"/>
<path d="M181.189 144.259C181.189 144.259 181.947 144.326 182.027 144.819L167.16 149.76L166.802 148.541L181.176 144.253" fill="#263238"/>
<path d="M173.048 142.982C173.07 143.056 172.728 143.21 172.44 143.562C172.152 143.914 172.072 144.282 171.995 144.275C171.918 144.269 171.89 143.814 172.235 143.395C172.581 142.976 173.042 142.912 173.048 142.982Z" fill="white"/>
<path d="M174.821 143.107C174.862 143.174 174.59 143.402 174.443 143.789C174.296 144.176 174.338 144.528 174.264 144.547C174.19 144.566 174.008 144.173 174.197 143.693C174.386 143.213 174.798 143.04 174.821 143.107Z" fill="white"/>
<path d="M176.328 144.678C176.267 144.717 176.046 144.387 176.101 143.93C176.155 143.472 176.44 143.197 176.491 143.248C176.542 143.299 176.402 143.568 176.363 143.958C176.325 144.349 176.398 144.64 176.328 144.678Z" fill="white"/>
<path d="M172.334 141.277C172.334 141.354 171.96 141.363 171.56 141.526C171.16 141.69 170.882 141.926 170.824 141.878C170.766 141.83 170.987 141.469 171.464 141.28C171.941 141.091 172.354 141.206 172.334 141.277Z" fill="white"/>
<path d="M135.893 135.466L132.658 142.858C132.658 142.858 139.086 148.618 138.622 150.051L124.062 144.291L128.629 132.566L135.893 135.466Z" fill="#455A64"/>
<path d="M128.405 140.448C128.248 140.436 128.093 140.481 127.967 140.576C127.842 140.671 127.757 140.809 127.726 140.963C127.709 141.119 127.751 141.277 127.845 141.403C127.939 141.529 128.077 141.614 128.232 141.642C128.398 141.654 128.563 141.605 128.695 141.503C128.828 141.402 128.918 141.255 128.949 141.091C128.949 140.771 128.658 140.406 128.344 140.451" fill="#EEEEED"/>
<path d="M138.338 149.085C138.338 149.085 138.875 149.626 138.622 150.045L124.062 144.285L124.571 143.123L138.331 149.075" fill="#263238"/>
<path d="M132.92 142.877C132.891 142.947 132.523 142.838 132.082 142.928C131.64 143.018 131.336 143.248 131.282 143.19C131.227 143.133 131.496 142.768 132.03 142.669C132.565 142.57 132.965 142.816 132.92 142.877Z" fill="white"/>
<path d="M134.2 144.112C134.2 144.186 133.835 144.186 133.474 144.39C133.112 144.595 132.92 144.886 132.834 144.858C132.747 144.829 132.878 144.406 133.33 144.16C133.781 143.914 134.226 144.045 134.2 144.112Z" fill="white"/>
<path d="M134.347 146.282C134.277 146.282 134.318 145.878 134.667 145.562C135.016 145.245 135.397 145.219 135.403 145.29C135.41 145.36 135.122 145.488 134.85 145.754C134.578 146.019 134.421 146.304 134.347 146.282Z" fill="white"/>
<path d="M133.474 141.12C133.419 141.171 133.131 140.947 132.718 140.8C132.306 140.653 131.944 140.672 131.931 140.598C131.918 140.525 132.318 140.387 132.802 140.547C133.285 140.707 133.531 141.069 133.474 141.12Z" fill="white"/>
<path d="M141.342 94.8576L136.242 115.549C136.242 115.549 127.042 131.037 125.483 138.787L133.899 142.096C133.899 142.096 140.021 127.168 141.816 124.429C142.624 123.201 143.552 122.057 144.587 121.014C145.26 120.347 145.743 119.512 145.986 118.595L149.848 103.834L141.342 94.8576Z" fill="#263238"/>
<path d="M139.17 91.5488C139.17 91.5488 139.88 97.0912 145.214 99.5488L156.453 117.853C156.453 117.853 157.333 123.805 159.013 128.819C160.693 133.834 164.088 143.498 164.088 143.498L173.333 140.042L167.442 119.901L166.482 112.915L157.31 89.5552L149.432 84.832L139.17 91.5488Z" fill="#263238"/>
<path d="M139.17 91.5488L139.339 91.4336L139.848 91.0944L141.845 89.776L149.416 84.8L149.442 84.784L149.467 84.8L157.352 89.5136V89.5328L166.542 112.87V112.886C166.846 115.094 167.182 117.459 167.502 119.872C169.102 125.312 170.798 131.133 172.552 137.13C172.836 138.096 173.117 139.056 173.397 140.01L173.419 140.083L173.346 140.109L164.101 143.565L164.021 143.594L163.995 143.514C162.395 138.87 160.846 134.4 159.384 130.16C159.016 129.101 158.654 128.051 158.354 127.002C158.053 125.952 157.781 124.909 157.534 123.878C157.048 121.818 156.658 119.805 156.35 117.853V117.878L145.176 99.568L145.195 99.584C143.844 98.9521 142.643 98.0376 141.675 96.9024C140.966 96.069 140.383 95.1352 139.947 94.1312C139.677 93.5114 139.463 92.8689 139.307 92.2112C139.253 91.9936 139.221 91.824 139.202 91.7088C139.182 91.5936 139.179 91.536 139.179 91.536C139.179 91.536 139.179 91.5936 139.214 91.7056C139.25 91.8176 139.269 91.9872 139.33 92.208C139.495 92.8572 139.715 93.491 139.989 94.1024C140.43 95.0961 141.015 96.02 141.723 96.8448C142.695 97.9682 143.895 98.8715 145.243 99.4944L156.504 117.786V117.802C156.824 119.747 157.208 121.757 157.694 123.814C157.941 124.842 158.21 125.882 158.514 126.928C158.818 127.974 159.176 129.018 159.544 130.077C161.013 134.317 162.558 138.787 164.165 143.427L164.059 143.379L173.304 139.923L173.253 140.022C172.975 139.069 172.694 138.109 172.408 137.142L167.365 119.882C167.045 117.469 166.706 115.104 166.405 112.896V112.915L157.25 89.5552L157.275 89.584L149.403 84.8512H149.451L141.88 89.8048L139.864 91.104L139.346 91.44L139.17 91.5488Z" fill="#455A64"/>
<path d="M144.12 52.0064C144.12 52.0064 141.426 54.08 140.117 56.3968C138.549 59.1712 138.379 63.2832 138.331 69.6704C138.283 75.5776 139.166 77.2192 138.827 79.4464C138.158 83.7952 137.662 98.3904 137.662 98.3904C137.662 98.3904 146.302 95.072 147.979 93.5904L149.666 92.1248L160.478 95.6992L158.296 82.4128L156.798 65.8528L154.878 57.0688L154.558 53.6224L145.272 49.8912L144.12 52.0064Z" fill="#455A64"/>
<path d="M154.21 53.44C154.322 53.4624 153.944 54.2208 153.278 55.3344L153.25 55.3792L153.198 55.36C152.261 54.9952 151.019 54.5376 149.662 54.0416C148.133 53.4848 146.75 52.9664 145.762 52.5632C145.266 52.3616 144.869 52.192 144.597 52.0672C144.452 52.0113 144.313 51.9428 144.181 51.8624C144.333 51.8963 144.481 51.9456 144.622 52.0096L145.803 52.4544L149.72 53.8848C151.077 54.3808 152.315 54.8448 153.24 55.2416L153.163 55.2672C153.861 54.176 154.274 53.456 154.21 53.44Z" fill="#263238"/>
<path d="M165.384 46.5408C165.384 46.5408 164.699 45.4752 164.053 44.4928C163.406 43.5104 162.427 43.0272 162.27 42.5152C162.114 42.0032 161.253 39.7216 161.115 39.1552C160.996 38.6067 160.94 38.0462 160.949 37.4848C160.949 37.4848 161.656 37.184 161.995 38.1952C162.2 38.8032 162.853 40.8672 162.994 40.9696C163.134 41.072 163.314 40.9216 163.314 40.9216C163.023 40.1488 162.772 39.3616 162.562 38.5632C162.53 38.1888 162.661 35.7056 162.661 35.7056C162.836 35.6702 163.019 35.6989 163.175 35.7863C163.331 35.8738 163.451 36.0143 163.512 36.1824C163.848 36.8224 163.861 38.4224 163.861 38.4224L164.37 40.208L164.19 38.4416L164.446 35.1936C164.695 35.229 164.927 35.3402 165.11 35.512C165.293 35.6837 165.419 35.9078 165.47 36.1536C165.685 37.0304 165.4 38.2528 165.544 38.512C165.688 38.7712 165.845 40.3392 165.845 40.3392C165.845 40.3392 166.021 36.5312 166.427 36.4224C166.834 36.3136 167.166 36.7168 167.109 37.4848C167.051 38.2528 167.035 39.8784 167.246 40.5952C167.458 41.312 169.624 44.1152 169.448 45.344C169.34 46.0864 169.273 46.8342 169.246 47.584H165.534L165.384 46.5408Z" fill="#FFBF9D"/>
<path d="M152.363 56.1312C152.571 56.2112 161.438 58.4064 161.438 58.4064C161.438 58.4064 163.419 55.2064 163.71 54.2784C164.002 53.3504 165.56 47.168 165.56 47.168L169.307 46.816C169.307 46.816 168.347 62.7808 166.99 63.6416C165.634 64.5024 163.47 64.9376 163.33 64.8896C163.189 64.8416 153.746 65.4976 148.77 61.5776C143.794 57.6576 152.363 56.1312 152.363 56.1312Z" fill="#FFBF9D"/>
<g opacity="0.3">
<path d="M146.008 64.5824C146.96 65.6596 148.229 66.406 149.634 66.7136C151.986 67.232 156.994 68.1504 156.994 68.1504L156.75 65.6928L145.87 64.528" fill="#1F1F1F"/>
</g>
<path d="M142.059 61.2032C142.866 62.9056 144.658 64.7232 148.597 65.136C156.395 65.9424 162.299 66.3712 164.85 65.9872C167.4 65.6032 168.414 60.2048 168.69 60.0384C169.483 59.5392 169.432 57.824 168.747 57.312C166.802 55.856 162.901 54.752 162.638 54.8704C161.086 55.6416 161.592 57.4464 161.592 57.4464L151.704 55.264C150.565 54.7903 149.377 54.4447 148.162 54.2336" fill="#455A64"/>
<path d="M148.162 54.2336C148.162 54.2336 148.245 54.2336 148.405 54.2656C148.565 54.2976 148.805 54.336 149.112 54.4032C150.004 54.6055 150.877 54.8817 151.723 55.2288L161.605 57.3792L161.522 57.4688C161.375 56.9017 161.42 56.3021 161.65 55.7632C161.776 55.4873 161.967 55.2458 162.206 55.0592C162.328 54.9646 162.457 54.8811 162.594 54.8096C162.64 54.7957 162.689 54.7881 162.738 54.7872H162.856C162.936 54.7872 163.006 54.8128 163.083 54.8256C164.299 55.1132 165.485 55.515 166.626 56.0256C167.227 56.2874 167.807 56.5933 168.363 56.9408C168.501 57.0304 168.638 57.1296 168.776 57.2256C168.918 57.3337 169.034 57.4727 169.115 57.632C169.271 57.9462 169.352 58.2924 169.352 58.6432C169.36 58.9983 169.281 59.3499 169.122 59.6672C169.033 59.8309 168.908 59.9721 168.757 60.08C168.718 60.0992 168.693 60.1824 168.661 60.2592L168.578 60.4992C168.366 61.1392 168.155 61.824 167.899 62.4832C167.564 63.4285 167.073 64.3111 166.446 65.0944C166.219 65.3921 165.93 65.6364 165.598 65.81C165.266 65.9836 164.9 66.0823 164.526 66.0992C164.286 66.1344 164.046 66.1408 163.81 66.16C162.85 66.2176 161.928 66.2048 161.016 66.1792C160.104 66.1536 159.211 66.1056 158.344 66.0512C154.866 65.8272 151.746 65.5104 149.128 65.2384C148.503 65.1837 147.881 65.0939 147.266 64.9696C146.72 64.8528 146.184 64.6901 145.666 64.4832C144.825 64.1567 144.055 63.6723 143.397 63.056C142.986 62.6628 142.633 62.2135 142.347 61.7216C142.245 61.5528 142.156 61.3763 142.082 61.1936C142.082 61.1936 142.171 61.376 142.376 61.7056C142.672 62.1852 143.03 62.6232 143.442 63.008C144.099 63.6109 144.866 64.0823 145.701 64.3968C146.22 64.5972 146.755 64.7546 147.301 64.8672C147.914 64.9849 148.534 65.0692 149.157 65.12C151.774 65.3792 154.894 65.6832 158.366 65.9008C159.237 65.952 160.126 65.9968 161.035 66.0192C161.944 66.0416 162.875 66.0544 163.816 66C164.05 65.9776 164.29 65.9712 164.523 65.936C164.756 65.9237 164.987 65.8796 165.208 65.8048C165.65 65.6343 166.04 65.3521 166.341 64.9856C166.954 64.2174 167.434 63.3522 167.762 62.4256C168.018 61.7856 168.226 61.1104 168.437 60.4512L168.526 60.2016C168.526 60.1632 168.558 60.1216 168.578 60.0768C168.589 60.0521 168.603 60.0285 168.619 60.0064C168.631 59.991 168.645 59.977 168.661 59.9648L168.683 59.9456C168.816 59.8537 168.926 59.7321 169.003 59.5904C169.153 59.2931 169.225 58.963 169.214 58.6304C169.215 58.3067 169.142 57.987 169 57.696C168.93 57.5586 168.831 57.4384 168.709 57.344C168.571 57.2512 168.44 57.152 168.302 57.0656C167.754 56.7206 167.181 56.4179 166.587 56.16C165.459 55.6516 164.286 55.2509 163.083 54.9632C163.01 54.9632 162.936 54.9312 162.866 54.9248H162.76H162.69C162.564 54.9921 162.444 55.0703 162.331 55.1584C162.108 55.3266 161.929 55.5461 161.81 55.7984C161.598 56.3046 161.554 56.8655 161.685 57.3984L161.714 57.5104L161.602 57.4848L151.736 55.2768C150.898 54.9242 150.033 54.6374 149.15 54.4192C148.83 54.3456 148.61 54.2944 148.45 54.2624C148.29 54.2304 148.162 54.2336 148.162 54.2336Z" fill="#263238"/>
<path d="M164.85 60.5344C164.622 60.478 164.406 60.3839 164.21 60.256C163.719 59.9823 163.267 59.6444 162.866 59.2512C162.462 58.8595 162.11 58.4187 161.816 57.9392C161.682 57.7427 161.58 57.5269 161.512 57.2992C161.951 57.9456 162.442 58.5546 162.981 59.12C163.56 59.6464 164.186 60.1197 164.85 60.5344Z" fill="#263238"/>
<path d="M95.2304 86.8896C95.2304 86.8896 97.2144 86.9952 98.4304 87.7664C99.6464 88.5376 101.63 89.728 102.446 91.2128C102.821 91.8944 101.755 92.0384 101.23 91.6416C100.706 91.2448 99.896 90.5024 99.496 90.4096L99.096 90.32C99.4607 91.1457 99.8676 91.9521 100.315 92.736C100.728 93.376 101.086 94.4384 99.848 94.4896C99.848 94.4896 99.0096 95.5776 98.1648 94.7712C98.1648 94.7712 97.5056 95.7568 96.4432 94.3904C96.4432 94.3904 95.8256 95.1712 95.5664 94.8736C95.3072 94.576 94.4624 94.0992 94.216 93.12C93.8483 91.9795 93.4211 90.859 92.936 89.7632L95.2304 86.8896Z" fill="#FFBF9D"/>
<path d="M78.3472 60.8C77.3302 61.1275 76.4525 61.7867 75.8544 62.672C75.0928 63.8432 74.8592 65.872 75.0768 67.3824C75.5376 70.5664 76.9968 75.9392 77.8192 79.3888C78.1008 80.5792 78.68 82.7104 80.3792 83.84L92.504 91.1104L95.7456 86.3104L84.6928 77.3024L82.5072 64.9568L78.3472 60.8Z" fill="#455A64"/>
<path d="M76.2512 72.9344C76.2678 72.9747 76.2807 73.0165 76.2896 73.0592L76.392 73.4336C76.4784 73.7728 76.6 74.2592 76.76 74.8832C77.08 76.1632 77.5344 77.9808 78.1008 80.2432C78.4296 81.4755 79.1262 82.5784 80.0976 83.4048C80.6525 83.849 81.2458 84.2431 81.8704 84.5824L83.8192 85.76L92.552 91.0336L92.44 91.0592L93.608 89.328L95.6816 86.2464L95.6976 86.3584L84.744 77.3376H84.7248V77.3152C84.0016 74.272 83.4768 71.7792 83.144 70.0448C82.9808 69.1776 82.8656 68.5024 82.792 68.0416C82.76 67.8176 82.7344 67.6416 82.7152 67.5168C82.696 67.392 82.6928 67.3376 82.6928 67.3376C82.7102 67.3954 82.7241 67.4542 82.7344 67.5136C82.7568 67.6384 82.7888 67.8112 82.8272 68.0352C82.9136 68.4928 83.0384 69.168 83.2176 70.032C83.5664 71.76 84.1104 74.2464 84.8496 77.2864L84.8272 77.2512L95.8 86.2304L95.8576 86.2784L95.816 86.3392L93.7424 89.4208L92.5744 91.152L92.5328 91.216L92.4624 91.1776L83.7424 85.888L81.7968 84.7072C81.168 84.3644 80.5705 83.9672 80.0112 83.52C79.023 82.6736 78.3182 81.5444 77.992 80.2848C77.4448 78.016 77.0064 76.1824 76.712 74.912C76.568 74.272 76.4528 73.7952 76.3728 73.456L76.28 73.0624C76.2674 73.0205 76.2578 72.9777 76.2512 72.9344Z" fill="#263238"/>
<path d="M76.4496 62.5056C76.5249 62.4562 76.6083 62.4204 76.696 62.4C76.9283 62.3283 77.1658 62.2748 77.4064 62.24C78.209 62.1162 79.0303 62.2274 79.7712 62.56C80.4872 62.9333 81.0955 63.4843 81.5376 64.16C81.6716 64.3642 81.7792 64.5847 81.8576 64.816C81.8919 64.8983 81.9114 64.9861 81.9152 65.0752C81.7769 64.7814 81.6175 64.498 81.4384 64.2272C80.9829 63.5966 80.3869 63.0806 79.6976 62.72C78.9826 62.4031 78.1964 62.2817 77.4192 62.368C76.8208 62.416 76.4592 62.5344 76.4496 62.5056Z" fill="#263238"/>
</svg>
