<svg width="24" height="24" viewBox="0 0 24 24" fill="none" xmlns="http://www.w3.org/2000/svg">
<path d="M20 4.53333V19.4667C20 19.7612 19.7612 20 19.4667 20H4.53333C4.23878 20 4 19.7612 4 19.4667V4.53333C4 4.23878 4.23878 4 4.53333 4H19.4667C19.7612 4 20 4.23878 20 4.53333Z" stroke="#1F1F1F" stroke-width="1.5" stroke-linecap="round" stroke-linejoin="round"/>
<path d="M4 15.5556L10.2222 12.8889L20 17.3334" stroke="#1F1F1F" stroke-width="1.5" stroke-linecap="round" stroke-linejoin="round"/>
<path d="M15.5556 10.2223C14.5737 10.2223 13.7778 9.42637 13.7778 8.44453C13.7778 7.46269 14.5737 6.66675 15.5556 6.66675C16.5375 6.66675 17.3334 7.46269 17.3334 8.44453C17.3334 9.42637 16.5375 10.2223 15.5556 10.2223Z" stroke="#1F1F1F" stroke-width="1.5" stroke-linecap="round" stroke-linejoin="round"/>
</svg>
