<svg width="24" height="24" viewBox="0 0 24 24" fill="none" xmlns="http://www.w3.org/2000/svg">
<path fill-rule="evenodd" clip-rule="evenodd" d="M1.5 11.75C1.5 6.07438 6.00283 1.5 11.5249 1.5C17.0469 1.5 21.5497 6.07438 21.5497 11.75C21.5497 17.4256 17.0469 22 11.5249 22C6.00283 22 1.5 17.4256 1.5 11.75ZM11.5249 0C5.14531 0 0 5.27535 0 11.75C0 18.2246 5.14531 23.5 11.5249 23.5C17.9044 23.5 23.0497 18.2246 23.0497 11.75C23.0497 5.27535 17.9044 0 11.5249 0ZM7.54242 8.44999C7.54242 6.22795 9.31082 4.39999 11.5249 4.39999C13.7389 4.39999 15.5073 6.22795 15.5073 8.44999C15.5073 9.69537 14.9519 10.8169 14.0738 11.5623C16.196 12.55 17.6622 14.7326 17.6622 17.25V18.35C17.6622 18.7642 17.3265 19.1 16.9122 19.1C16.498 19.1 16.1622 18.7642 16.1622 18.35V17.25C16.1622 14.612 14.0714 12.5 11.5248 12.5C8.97819 12.5 6.88739 14.612 6.88739 17.25V18.35C6.88739 18.7642 6.5516 19.1 6.13739 19.1C5.72318 19.1 5.38739 18.7642 5.38739 18.35V17.25C5.38739 14.7326 6.85368 12.55 8.97589 11.5622C8.09786 10.8169 7.54242 9.69534 7.54242 8.44999ZM11.5249 5.89999C10.1684 5.89999 9.04242 7.02697 9.04242 8.44999C9.04242 9.87307 10.1683 11 11.5249 11C12.8814 11 14.0073 9.87307 14.0073 8.44999C14.0073 7.02697 12.8814 5.89999 11.5249 5.89999Z" fill="#A5A29A"/>
</svg>
