<svg width="60" height="60" viewBox="0 0 60 60" fill="none" xmlns="http://www.w3.org/2000/svg">
<rect width="60" height="60" rx="20" fill="#E9F4FF"/>
<path d="M44.0578 27.3921H42.9167V27.3333H30.1667V33H38.173C37.0049 36.2987 33.8663 38.6667 30.1667 38.6667C25.4725 38.6667 21.6667 34.8608 21.6667 30.1667C21.6667 25.4725 25.4725 21.6667 30.1667 21.6667C32.3335 21.6667 34.3048 22.4841 35.8057 23.8193L39.8128 19.8123C37.2826 17.4542 33.8982 16 30.1667 16C22.3431 16 16 22.3431 16 30.1667C16 37.9902 22.3431 44.3333 30.1667 44.3333C37.9902 44.3333 44.3333 37.9902 44.3333 30.1667C44.3333 29.2168 44.2356 28.2896 44.0578 27.3921Z" fill="#FFC107"/>
<path d="M17.6334 23.5728L22.2879 26.9862C23.5473 23.8682 26.5974 21.6667 30.1667 21.6667C32.3335 21.6667 34.3048 22.4841 35.8057 23.8193L39.8128 19.8122C37.2826 17.4542 33.8982 16 30.1667 16C24.7253 16 20.0063 19.072 17.6334 23.5728Z" fill="#FF3D00"/>
<path d="M30.1667 44.3333C33.8259 44.3333 37.1509 42.933 39.6647 40.6557L35.2801 36.9454C33.8578 38.0228 32.0898 38.6667 30.1667 38.6667C26.4819 38.6667 23.3532 36.3171 22.1746 33.0383L17.5548 36.5976C19.8994 41.1855 24.6608 44.3333 30.1667 44.3333Z" fill="#4CAF50"/>
<path d="M44.0578 27.3921H42.9166V27.3333H30.1666V33H38.1729C37.6119 34.5846 36.5926 35.9509 35.278 36.9461C35.2787 36.9454 35.2794 36.9454 35.2801 36.9447L39.6647 40.655C39.3544 40.9369 44.3333 37.25 44.3333 30.1667C44.3333 29.2168 44.2355 28.2896 44.0578 27.3921Z" fill="#1976D2"/>
</svg>
