<svg width="32" height="32" viewBox="0 0 32 32" fill="none" xmlns="http://www.w3.org/2000/svg">
<path fill-rule="evenodd" clip-rule="evenodd" d="M14.2294 27.23L10.3622 24.1502V12.8572L15.4768 5.02922C15.9758 4.25925 17.2233 3.74593 18.2213 4.13092C19.344 4.5159 20.0925 5.79919 19.843 6.95414L19.2192 11.0606C19.0945 11.9589 19.7182 12.6006 20.4667 12.6006H25.4566C27.3278 12.6006 28.4505 14.1406 27.8268 15.9372L24.8329 25.3051C24.4586 26.845 22.8369 28 21.3399 28H16.5995C15.8511 28 14.7283 27.7433 14.2294 27.23ZM4 11.574V24.1502C4 25.9467 4.74848 26.5884 6.49494 26.5884H7.74241C9.48887 26.5884 10.2374 25.9467 10.2374 24.1502V11.574C10.2374 9.77742 9.48887 9.13578 7.74241 9.13578H6.49494C4.74848 9.13578 4 9.77742 4 11.574Z" fill="white"/>
</svg>
