<svg width="24" height="24" viewBox="0 0 24 24" fill="none" xmlns="http://www.w3.org/2000/svg">
<path fill-rule="evenodd" clip-rule="evenodd" d="M9.16538 4.83221C9.16538 2.99188 10.6573 1.5 12.4976 1.5C14.3379 1.5 15.8298 2.99188 15.8298 4.83221V7.31281H9.16538V4.83221ZM17.3298 4.83221V7.31354C19.9141 7.35869 21.9952 9.46772 21.9952 12.0628V19.2509C21.9952 21.8743 19.8685 24.0009 17.2452 24.0009H7.75C5.12665 24.0009 3 21.8743 3 19.2509V12.0628C3 9.46771 5.08107 7.35869 7.66538 7.31354V4.83221C7.66538 2.16345 9.82884 0 12.4976 0C15.1663 0 17.3298 2.16345 17.3298 4.83221ZM4.5 12.0628C4.5 10.2679 5.95507 8.81281 7.75 8.81281H8.41538H16.5798H17.2452C19.0401 8.81281 20.4952 10.2679 20.4952 12.0628V19.2509C20.4952 21.0459 19.0401 22.5009 17.2452 22.5009H7.75C5.95508 22.5009 4.5 21.0459 4.5 19.2509V12.0628ZM10.3317 15.6568C10.3317 14.5429 11.2756 13.5942 12.4975 13.5942C13.7194 13.5942 14.6634 14.5429 14.6634 15.6568C14.6634 16.7707 13.7194 17.7194 12.4975 17.7194C11.2756 17.7194 10.3317 16.7707 10.3317 15.6568ZM12.4975 12.0942C10.4986 12.0942 8.83167 13.664 8.83167 15.6568C8.83167 17.6496 10.4986 19.2194 12.4975 19.2194C14.4964 19.2194 16.1634 17.6496 16.1634 15.6568C16.1634 13.664 14.4964 12.0942 12.4975 12.0942Z" fill="#A5A29A"/>
</svg>
