<svg width="24" height="24" viewBox="0 0 24 24" fill="none" xmlns="http://www.w3.org/2000/svg">
<path fill-rule="evenodd" clip-rule="evenodd" d="M4.3927 2.40142C3.79617 3.00685 3.5 4.11829 3.5 6.37503V17.625C3.5 19.8818 3.79617 20.9932 4.3927 21.5986C4.98541 22.2002 6.07145 22.5 8.29228 22.5H14.943C17.1638 22.5 18.2499 22.2002 18.8426 21.5986C19.4391 20.9932 19.7353 19.8818 19.7353 17.625V6.37503C19.7353 4.11829 19.4391 3.00685 18.8426 2.40142C18.2499 1.79986 17.1638 1.50003 14.943 1.50003H8.29228C6.07145 1.50003 4.98541 1.79986 4.3927 2.40142ZM3.32421 1.34864C4.39419 0.262698 6.07928 3.05176e-05 8.29228 3.05176e-05H14.943C17.156 3.05176e-05 18.8411 0.262698 19.9111 1.34864C20.9772 2.43071 21.2353 4.13178 21.2353 6.37503V17.625C21.2353 19.8683 20.9772 21.5694 19.9111 22.6514C18.8411 23.7374 17.156 24 14.943 24H8.29228C6.07928 24 4.39419 23.7374 3.32421 22.6514C2.25806 21.5694 2 19.8683 2 17.625V6.37503C2 4.13178 2.25806 2.43071 3.32421 1.34864ZM8.65076 4.68753C8.65076 4.27332 8.98654 3.93753 9.40076 3.93753H13.8346C14.2488 3.93753 14.5846 4.27332 14.5846 4.68753C14.5846 5.10174 14.2488 5.43753 13.8346 5.43753H9.40076C8.98654 5.43753 8.65076 5.10174 8.65076 4.68753ZM11.6176 15.75C10.2441 15.75 9.14954 16.8771 9.14954 18.2438C9.14954 19.6105 10.2441 20.7375 11.6176 20.7375C12.9912 20.7375 14.0858 19.6105 14.0858 18.2438C14.0858 16.8771 12.9912 15.75 11.6176 15.75ZM10.6495 18.2438C10.6495 17.6845 11.0934 17.25 11.6176 17.25C12.1419 17.25 12.5858 17.6845 12.5858 18.2438C12.5858 18.8031 12.1419 19.2375 11.6176 19.2375C11.0934 19.2375 10.6495 18.8031 10.6495 18.2438Z" fill="#A5A29A"/>
</svg>
