<svg width="25" height="24" viewBox="0 0 25 24" fill="none" xmlns="http://www.w3.org/2000/svg">
<path d="M14.6683 19.6523L14.6683 19.6523L14.6634 19.6496C14.2133 19.4031 13.6721 19.3006 13.1717 19.3006C12.6712 19.3006 12.1301 19.4031 11.6799 19.6496L11.6799 19.6496L11.6751 19.6523L5.82712 22.9111C5.82668 22.9113 5.82625 22.9116 5.82581 22.9118C5.02545 23.3526 4.46105 23.2978 4.14071 23.1094C3.82105 22.9214 3.5 22.4565 3.5 21.5431V4.63019C3.5 2.49854 5.24854 0.75 7.38019 0.75H18.9632C21.0948 0.75 22.8434 2.49854 22.8434 4.63019V21.5431C22.8434 22.4565 22.5223 22.9214 22.2027 23.1094C21.8823 23.2978 21.3179 23.3526 20.5174 22.9118C20.517 22.9115 20.5166 22.9113 20.5163 22.9111L14.6683 19.6523Z" stroke="#1F1F1F" stroke-width="1.5" stroke-linecap="round" stroke-linejoin="round"/>
</svg>
