<svg width="24" height="24" viewBox="0 0 24 24" fill="none" xmlns="http://www.w3.org/2000/svg">
<path d="M17.0021 9.1209C17.0021 7.76275 16.4964 6.46023 15.596 5.49988C14.6956 4.53952 13.4745 4 12.2013 4C10.928 4 9.7069 4.53952 8.80656 5.49988C7.90623 6.46023 7.40042 7.76275 7.40042 9.1209C7.40042 15.0953 5 16.8023 5 16.8023H19.4025C19.4025 16.8023 17.0021 15.0953 17.0021 9.1209Z" stroke="#1F1F1F" stroke-width="1.5" stroke-linecap="round" stroke-linejoin="round"/>
<path d="M13.5856 19.2026C13.445 19.4452 13.2431 19.6465 13.0001 19.7863C12.7572 19.9263 12.4818 20 12.2014 20C11.921 20 11.6456 19.9263 11.4027 19.7863C11.1598 19.6465 10.9578 19.4452 10.8171 19.2026" stroke="#1F1F1F" stroke-width="1.5" stroke-linecap="round" stroke-linejoin="round"/>
</svg>
