<svg width="32" height="32" viewBox="0 0 32 32" fill="none" xmlns="http://www.w3.org/2000/svg">
<path d="M27.7486 14.6703L19.1774 22.9296C19.0575 23.0452 18.9047 23.124 18.7384 23.1559C18.572 23.1878 18.3996 23.1715 18.2429 23.1089C18.0862 23.0464 17.9523 22.9404 17.8581 22.8044C17.7639 22.6685 17.7137 22.5087 17.7139 22.3452V18.2393C11.5962 18.5738 7.40163 22.3969 6.22416 23.6079C6.03927 23.7982 5.79681 23.9274 5.53129 23.9772C5.26577 24.027 4.99071 23.9948 4.74526 23.8852C4.49982 23.7757 4.29648 23.5943 4.16421 23.3669C4.03193 23.1396 3.97744 22.8778 4.00851 22.6188C4.406 19.2883 6.29916 16.0847 9.3398 13.5986C11.8651 11.5338 14.9347 10.2236 17.7139 9.99445V5.82658C17.7137 5.66313 17.7639 5.50332 17.8581 5.36738C17.9523 5.23144 18.0862 5.12547 18.2429 5.06291C18.3996 5.00034 18.572 4.98398 18.7384 5.01591C18.9047 5.04783 19.0575 5.1266 19.1774 5.24224L27.7486 13.5016C27.8283 13.5783 27.8915 13.6694 27.9347 13.7696C27.9778 13.8699 28 13.9774 28 14.0859C28 14.1945 27.9778 14.3019 27.9347 14.4022C27.8915 14.5025 27.8283 14.5936 27.7486 14.6703Z" fill="white"/>
</svg>
