<svg width="24" height="24" viewBox="0 0 24 24" fill="none" xmlns="http://www.w3.org/2000/svg">
<path d="M12.3527 14.9415C10.7443 14.9415 9.43896 13.6227 9.43896 11.9977C9.43896 10.3728 10.7443 9.05396 12.3527 9.05396C13.961 9.05396 15.2664 10.3728 15.2664 11.9977C15.2664 13.6227 13.961 14.9415 12.3527 14.9415ZM12.3527 10.2315C11.3892 10.2315 10.6044 11.0243 10.6044 11.9977C10.6044 12.9712 11.3892 13.764 12.3527 13.764C13.3161 13.764 14.1009 12.9712 14.1009 11.9977C14.1009 11.0243 13.3161 10.2315 12.3527 10.2315Z" fill="#292D32"/>
<path d="M14.8468 19.9968C14.6836 19.9968 14.5204 19.9732 14.3573 19.934C13.8755 19.8005 13.4715 19.4944 13.2151 19.0626L13.1219 18.9056C12.6634 18.1049 12.0341 18.1049 11.5757 18.9056L11.4902 19.0548C11.2338 19.4944 10.8297 19.8084 10.348 19.934C9.8585 20.0674 9.35346 19.9968 8.92612 19.7377L7.58969 18.9606C7.11573 18.6858 6.77385 18.2384 6.62623 17.6967C6.48637 17.1551 6.5563 16.5977 6.82824 16.1188C7.05357 15.7185 7.11573 15.3574 6.98364 15.1297C6.85155 14.9021 6.51745 14.7686 6.05902 14.7686C4.92462 14.7686 4 13.8345 4 12.6883V11.3067C4 10.1606 4.92462 9.22644 6.05902 9.22644C6.51745 9.22644 6.85155 9.09299 6.98364 8.86533C7.11573 8.63768 7.06134 8.27658 6.82824 7.87622C6.5563 7.39736 6.48637 6.83215 6.62623 6.29835C6.76608 5.75669 7.10796 5.30923 7.58969 5.03448L8.93389 4.25732C9.81188 3.73136 10.9696 4.03751 11.498 4.94028L11.5912 5.09728C12.0496 5.89799 12.679 5.89799 13.1374 5.09728L13.2229 4.94813C13.7512 4.03751 14.9089 3.73136 15.7947 4.26517L17.1311 5.04233C17.6051 5.31708 17.947 5.76454 18.0946 6.3062C18.2345 6.84785 18.1645 7.40521 17.8926 7.88407C17.6673 8.28443 17.6051 8.64553 17.7372 8.87318C17.8693 9.10084 18.2034 9.23429 18.6618 9.23429C19.7962 9.23429 20.7208 10.1685 20.7208 11.3146V12.6962C20.7208 13.8423 19.7962 14.7765 18.6618 14.7765C18.2034 14.7765 17.8693 14.9099 17.7372 15.1376C17.6051 15.3652 17.6595 15.7263 17.8926 16.1267C18.1645 16.6055 18.2422 17.1708 18.0946 17.7046C17.9547 18.2462 17.6129 18.6937 17.1311 18.9684L15.7869 19.7456C15.4917 19.9104 15.1731 19.9968 14.8468 19.9968ZM12.3526 17.0923C13.0442 17.0923 13.6891 17.5319 14.1319 18.309L14.2174 18.4582C14.3107 18.623 14.4661 18.7408 14.6525 18.7879C14.839 18.835 15.0255 18.8114 15.1809 18.7172L16.5251 17.9322C16.7271 17.8145 16.8825 17.6182 16.9447 17.3827C17.0068 17.1472 16.9757 16.9039 16.8592 16.6997C16.4163 15.9304 16.3619 15.1376 16.7038 14.5331C17.0457 13.9287 17.7527 13.5833 18.6385 13.5833C19.1358 13.5833 19.532 13.1829 19.532 12.6805V11.2989C19.532 10.8043 19.1358 10.3961 18.6385 10.3961C17.7527 10.3961 17.0457 10.0507 16.7038 9.44624C16.3619 8.84178 16.4163 8.04892 16.8592 7.27961C16.9757 7.07551 17.0068 6.83215 16.9447 6.59665C16.8825 6.36115 16.7349 6.17274 16.5328 6.04714L15.1887 5.26998C14.8546 5.06588 14.4117 5.18363 14.2096 5.52903L14.1242 5.67819C13.6813 6.45535 13.0364 6.89496 12.3449 6.89496C11.6534 6.89496 11.0084 6.45535 10.5656 5.67819L10.4801 5.52118C10.2858 5.19148 9.85074 5.07373 9.51663 5.26998L8.17244 6.05499C7.97042 6.17274 7.81502 6.369 7.75286 6.6045C7.6907 6.84 7.72178 7.08336 7.83833 7.28746C8.28121 8.05677 8.3356 8.84963 7.99373 9.45409C7.65185 10.0586 6.94479 10.404 6.05902 10.404C5.56175 10.404 5.16549 10.8043 5.16549 11.3067V12.6883C5.16549 13.1829 5.56175 13.5911 6.05902 13.5911C6.94479 13.5911 7.65185 13.9365 7.99373 14.541C8.3356 15.1454 8.28121 15.9383 7.83833 16.7076C7.72178 16.9117 7.6907 17.1551 7.75286 17.3906C7.81502 17.6261 7.96265 17.8145 8.16467 17.9401L9.50886 18.7172C9.67203 18.8193 9.86627 18.8428 10.045 18.7957C10.2315 18.7486 10.3869 18.623 10.4879 18.4582L10.5733 18.309C11.0162 17.5397 11.6611 17.0923 12.3526 17.0923Z" fill="#292D32"/>
</svg>
