<svg width="16" height="16" viewBox="0 0 16 16" fill="none" xmlns="http://www.w3.org/2000/svg">
<path d="M13.0466 5.78392C12.786 5.68792 11.372 5.51325 10.458 5.41059C10.6013 4.57392 10.6666 3.80725 10.6666 2.99992C10.6666 2.08059 9.91863 1.33325 8.99996 1.33325C8.08129 1.33325 7.33329 2.08059 7.33329 2.99992C7.33329 4.24992 6.88929 4.82525 6.25596 5.46592C6.07104 5.21871 5.83122 5.01783 5.55541 4.87911C5.27961 4.7404 4.97535 4.66764 4.66663 4.66659C3.56396 4.66659 2.66663 5.56392 2.66663 6.66659V10.6666C2.66663 11.7693 3.56396 12.6666 4.66663 12.6666C5.16996 12.6666 5.62529 12.4733 5.97663 12.1653L6.10196 12.2939C6.74196 12.7846 8.54663 13.3333 10.0006 13.3333C11.2533 13.3333 11.7393 13.1379 12.1693 12.9646L12.38 12.8826C12.936 12.6793 13.4306 12.0646 13.5373 11.4159L13.9813 7.43325C14.0966 6.74192 13.686 6.01659 13.0466 5.78392ZM4.66663 11.3333C4.29929 11.3333 3.99996 11.0346 3.99996 10.6666V6.66659C4.00764 6.49493 4.08123 6.33286 4.20541 6.2141C4.3296 6.09535 4.4948 6.02907 4.66663 6.02907C4.83845 6.02907 5.00365 6.09535 5.12784 6.2141C5.25202 6.33286 5.32561 6.49493 5.33329 6.66659V10.6666C5.33329 11.0346 5.03396 11.3333 4.66663 11.3333ZM12.218 11.2333C12.1933 11.3826 12.0233 11.5939 11.9226 11.6306L11.672 11.7279C11.3086 11.8739 10.9946 11.9999 9.99996 11.9999C8.72396 11.9999 7.25463 11.4979 6.91196 11.2359C6.80663 11.1559 6.66663 10.8599 6.66663 10.6666V7.34659C6.66863 7.31525 6.70063 6.90925 7.13796 6.47192C7.74663 5.86259 8.66663 4.94259 8.66663 2.99992C8.66663 2.81659 8.81663 2.66659 8.99996 2.66659C9.18329 2.66659 9.33329 2.81659 9.33329 2.99992C9.33329 3.93792 9.23596 4.81992 9.01396 5.86192L8.81596 6.79259L9.69663 6.66725C10.0986 6.70059 12.3186 6.96525 12.586 7.03392C12.6246 7.05392 12.674 7.15592 12.66 7.24925L12.218 11.2333Z" fill="#1F1F1F"/>
</svg>
