<svg width="24" height="24" viewBox="0 0 24 24" fill="none" xmlns="http://www.w3.org/2000/svg">
<path fill-rule="evenodd" clip-rule="evenodd" d="M8.7557 7.49473C8.7557 5.54579 10.3378 3.96428 12.2914 3.96428C14.245 3.96428 15.8271 5.54579 15.8271 7.49473C15.8271 9.44368 14.245 11.0252 12.2914 11.0252C10.3378 11.0252 8.7557 9.44368 8.7557 7.49473ZM12.2914 2.46428C9.51114 2.46428 7.2557 4.71562 7.2557 7.49473C7.2557 10.2738 9.51114 12.5252 12.2914 12.5252C15.0717 12.5252 17.3271 10.2738 17.3271 7.49473C17.3271 4.71562 15.0717 2.46428 12.2914 2.46428ZM12.2914 14.3414C7.96664 14.3414 4.17859 17.2194 4.17859 21.084C4.17859 21.4983 4.51438 21.834 4.92859 21.834C5.3428 21.834 5.67859 21.4983 5.67859 21.084C5.67859 18.3226 8.49053 15.8414 12.2914 15.8414C16.0924 15.8414 18.9043 18.3226 18.9043 21.084C18.9043 21.4983 19.2401 21.834 19.6543 21.834C20.0685 21.834 20.4043 21.4983 20.4043 21.084C20.4043 17.2194 16.6162 14.3414 12.2914 14.3414Z" fill="#A5A29A"/>
</svg>
